<?xml version="1.0" encoding="UTF-8" standalone="no"?> <svg xmlns="http://www.w3.org/2000/svg" viewBox="0 0 32 32"><defs><style>.cls-1{fill:#8fa5a5;}.cls-2{fill:#fd3730;}.cls-3{fill:#eaeff0;}.cls-4{fill:#2d4a60;}</style></defs><title>Mall</title><g id="Mall_Shop" data-name="Mall/Shop"><path class="cls-1" d="M28.3,6.769A1.987,1.987,0,0,0,26.719,6H7A1,1,0,0,0,7,8h6.153l.333,2H8.3a1,1,0,0,0,0,2H13.82l.333,2H9.667a1,1,0,0,0,0,2h4.819l.334,2H11a1,1,0,0,0,0,2H23.438a3,3,0,0,0,2.911-2.272L28.66,8.484A1.986,1.986,0,0,0,28.3,6.769ZM26.72,8l-.5,2H22.514l.333-2Zm-1.5,6H21.847l.333-2h3.54ZM15.18,8h5.64l-.334,2H15.514Zm.667,4h4.306l-.333,2H16.18Zm.667,4h2.972l-.333,2H16.847Zm6.924,2H21.18l.334-2H24.72l-.311,1.242A1,1,0,0,1,23.438,18Z"/><path class="cls-2" d="M25.7,24H10a3,3,0,0,1-.38-5.976L5.508,5.684A1,1,0,0,0,4.559,5H3A1,1,0,0,1,3,3H4.559A3,3,0,0,1,7.4,5.051l4.544,13.633A1,1,0,0,1,11,20H10a1,1,0,0,0,0,2H25.7a1,1,0,0,1,0,2Z"/><circle class="cls-3" cx="23" cy="26" r="2"/><circle class="cls-3" cx="11" cy="26" r="2"/><path class="cls-4" d="M23,29a3,3,0,1,1,3-3A3,3,0,0,1,23,29Zm0-4a1,1,0,1,0,1,1A1,1,0,0,0,23,25Z"/><path class="cls-4" d="M11,29a3,3,0,1,1,3-3A3,3,0,0,1,11,29Zm0-4a1,1,0,1,0,1,1A1,1,0,0,0,11,25Z"/></g></svg>