<svg width="34" height="32" viewBox="0 0 34 32" fill="none" xmlns="http://www.w3.org/2000/svg">
<g id="Group">
<path id="Vector" d="M3.00003 12.8889V26.8888C3.00003 27.714 3.32781 28.5053 3.91125 29.0887C4.4947 29.6722 5.28602 30 6.11114 30H27.8889C28.714 30 29.5054 29.6722 30.0888 29.0887C30.6722 28.5053 31 27.714 31 26.8888V12.8889" stroke="#1B1A1F" stroke-width="2.2"/>
<path id="Vector_2" d="M21.4069 30V20.6667C21.4069 19.8416 21.0792 19.0503 20.4957 18.4668C19.9123 17.8834 19.1209 17.5556 18.2958 17.5556H15.1847C14.3596 17.5556 13.5683 17.8834 12.9848 18.4668C12.4014 19.0503 12.0736 19.8416 12.0736 20.6667V30" stroke="#1B1A1F" stroke-width="2.2" stroke-miterlimit="16"/>
<path id="Vector_3" d="M32.2724 11.8996L29.6373 2.67667C29.5815 2.48167 29.4637 2.31015 29.3018 2.18806C29.1398 2.06597 28.9425 1.99995 28.7397 2H22.4444L23.1833 10.8729C23.1945 11.0156 23.2395 11.1535 23.3147 11.2753C23.39 11.397 23.4931 11.499 23.6157 11.5729C24.2224 11.9353 25.4077 12.6042 26.3333 12.8889C27.9137 13.3758 30.2222 13.2 31.5382 13.0382C31.6661 13.0217 31.7889 12.9774 31.898 12.9085C32.007 12.8396 32.0998 12.7478 32.1697 12.6394C32.2396 12.531 32.285 12.4086 32.3027 12.2808C32.3205 12.153 32.3101 12.0229 32.2724 11.8996Z" stroke="#1B1A1F" stroke-width="2.2"/>
<path id="Vector_4" d="M20.1112 12.8889C20.9947 12.6167 22.1147 11.996 22.7401 11.6258C22.8858 11.539 23.0041 11.4128 23.0811 11.2617C23.1582 11.1105 23.191 10.9407 23.1756 10.7718L22.4445 2H11.5556L10.8245 10.7718C10.8088 10.941 10.8414 11.1111 10.9185 11.2626C10.9956 11.414 11.114 11.5404 11.2601 11.6273C11.8854 11.996 13.0054 12.6167 13.8889 12.8889C16.2114 13.6044 17.7887 13.6044 20.1112 12.8889V12.8889Z" stroke="#1B1A1F" stroke-width="2.2"/>
<path id="Vector_5" d="M4.36267 2.67667L1.72756 11.9011C1.69036 12.0243 1.68042 12.1541 1.69842 12.2815C1.71641 12.4089 1.76192 12.5308 1.83178 12.6389C1.90164 12.7469 1.99418 12.8385 2.10297 12.9071C2.21176 12.9758 2.33419 13.02 2.46178 13.0367C3.77622 13.2 6.08622 13.3742 7.66666 12.8889C8.59222 12.6042 9.77911 11.9353 10.3842 11.5744C10.507 11.5004 10.6103 11.3982 10.6856 11.2761C10.7608 11.1541 10.8057 11.0158 10.8167 10.8729L11.5556 2H5.26022C5.05741 1.99995 4.8601 2.06597 4.69816 2.18806C4.53621 2.31015 4.41844 2.48167 4.36267 2.67667V2.67667Z" stroke="#1B1A1F" stroke-width="2.2"/>
</g>
</svg>
