<?xml version="1.0" standalone="no"?>
<!DOCTYPE svg PUBLIC "-//W3C//DTD SVG 20010904//EN"
 "http://www.w3.org/TR/2001/REC-SVG-20010904/DTD/svg10.dtd">
<svg version="1.0" xmlns="http://www.w3.org/2000/svg"
 width="1792.000000pt" height="576.000000pt" viewBox="0 0 1792.000000 576.000000"
 preserveAspectRatio="xMidYMid meet">

<g transform="translate(0.000000,576.000000) scale(0.100000,-0.100000)"
fill="#000000" stroke="none">
<path d="M0 2880 l0 -2880 8960 0 8960 0 0 2880 0 2880 -8960 0 -8960 0 0
-2880z m5085 2480 c3 -5 6 -826 7 -1825 0 -1431 -2 -1818 -12 -1830 -11 -13
-99 -15 -689 -13 l-676 3 -5 565 c-3 311 -6 566 -8 568 -1 1 -203 1 -449 0
l-448 -3 -2 -550 c-1 -302 -4 -558 -7 -567 -4 -17 -44 -18 -608 -20 l-603 -3
-3 -596 c-2 -487 -5 -599 -16 -608 -9 -8 -201 -10 -692 -9 l-679 3 0 730 0
730 558 0 c485 0 559 2 567 15 6 9 10 234 10 561 0 410 3 548 12 557 9 9 158
12 609 12 545 0 597 1 603 16 8 20 7 909 -1 942 l-5 22 -597 0 c-451 0 -600 3
-609 12 -17 17 -17 1269 0 1286 15 15 3733 18 3743 2z m8765 -642 c0 -7 -7
-47 -15 -88 -8 -41 -22 -109 -30 -150 -8 -41 -22 -106 -31 -145 -8 -38 -19
-91 -24 -116 -5 -26 -13 -64 -19 -85 -6 -21 -9 -40 -6 -42 2 -2 26 1 52 7 91
20 157 22 238 8 192 -35 316 -148 372 -342 13 -44 17 -95 17 -190 -1 -166 -31
-292 -106 -445 -46 -93 -63 -116 -153 -205 -84 -84 -114 -107 -185 -142 -110
-53 -129 -59 -229 -78 -138 -25 -299 -18 -461 21 -77 19 -150 44 -150 53 1 3
5 26 10 51 6 25 15 68 20 95 10 50 15 71 44 200 9 39 21 95 27 125 11 58 25
127 60 280 34 154 132 618 174 825 46 230 66 320 74 328 8 8 229 45 284 46 23
1 37 -4 37 -11z m-6700 -113 c145 -23 287 -74 325 -114 17 -20 17 -22 -6 -58
-14 -21 -31 -51 -39 -68 -8 -16 -17 -32 -21 -35 -3 -3 -15 -26 -27 -52 -12
-27 -26 -48 -31 -48 -5 0 -36 14 -69 30 -109 54 -257 77 -383 60 -177 -24
-269 -110 -269 -251 0 -81 63 -163 162 -213 297 -148 411 -244 476 -399 22
-54 26 -77 26 -177 1 -103 -2 -123 -27 -185 -44 -113 -83 -167 -172 -242 -104
-86 -218 -130 -407 -158 -227 -32 -540 26 -667 124 l-24 19 33 58 c18 33 49
88 68 124 19 36 38 69 42 73 4 5 22 -1 41 -12 152 -91 316 -124 479 -96 107
19 152 36 208 82 48 39 67 71 82 138 13 57 -6 135 -42 175 -33 37 -113 100
-127 100 -6 0 -11 5 -11 10 0 6 -4 10 -10 10 -5 0 -48 23 -96 50 -48 28 -89
50 -91 50 -2 0 -30 18 -62 39 -76 52 -155 140 -186 207 -55 120 -54 285 2 415
34 79 32 76 120 166 56 57 90 82 146 108 70 32 187 69 252 78 70 10 217 6 305
-8z m5766 -177 c-4 -35 -11 -79 -16 -98 -10 -37 -35 -153 -45 -207 l-7 -33
161 0 c139 0 161 -2 161 -15 0 -9 -10 -65 -21 -125 l-22 -110 -170 -2 -171 -3
-8 -35 c-4 -19 -14 -71 -22 -115 -9 -44 -22 -111 -31 -150 -8 -38 -34 -160
-56 -270 -46 -229 -45 -261 13 -291 41 -21 129 -14 187 16 24 12 46 19 49 15
5 -5 -21 -193 -34 -251 -13 -51 -248 -83 -372 -50 -58 16 -91 34 -135 75 -90
83 -92 196 -8 576 11 50 30 137 41 195 29 145 51 252 56 273 5 15 -4 17 -95
17 -56 0 -101 4 -101 8 0 7 30 150 45 220 5 21 10 22 110 22 90 0 104 2 109
18 3 9 19 82 36 162 17 80 34 148 38 151 4 3 34 12 67 19 33 6 98 20 145 30
47 10 89 19 94 19 5 1 6 -27 2 -61z m-4372 -328 c92 -29 155 -81 206 -169 6
-11 21 -3 66 36 115 99 244 153 369 153 163 0 279 -70 342 -205 23 -50 28 -77
31 -161 4 -109 -7 -195 -53 -399 -9 -38 -21 -95 -26 -125 -22 -115 -27 -139
-57 -275 -17 -77 -33 -158 -37 -180 -4 -22 -11 -45 -16 -51 -8 -10 -304 -12
-314 -2 -2 2 5 44 16 93 11 50 33 153 49 230 16 77 36 172 45 210 92 409 95
464 21 541 -49 51 -94 63 -177 45 -70 -14 -132 -48 -181 -98 -35 -36 -38 -45
-52 -143 -9 -58 -20 -125 -26 -150 -5 -25 -17 -79 -25 -120 -16 -73 -25 -114
-45 -202 -5 -24 -17 -79 -26 -123 -9 -44 -25 -117 -35 -162 -11 -45 -19 -89
-19 -98 0 -8 -12 -20 -26 -26 -34 -12 -275 -10 -291 2 -8 7 -9 20 -2 42 8 27
24 101 70 322 4 22 24 112 43 200 19 88 41 194 50 235 32 151 14 252 -55 301
-29 21 -45 24 -111 23 -66 -1 -88 -6 -142 -33 -110 -54 -144 -112 -185 -311
-11 -54 -60 -291 -71 -340 -4 -19 -22 -100 -39 -180 -17 -80 -36 -161 -41
-181 -6 -20 -10 -45 -10 -57 0 -11 -7 -23 -16 -26 -9 -3 -81 -6 -161 -6 l-145
0 7 48 c3 26 10 63 15 82 29 110 156 713 216 1025 21 111 28 144 40 203 4 21
7 22 139 22 l135 0 0 -70 c0 -38 3 -70 6 -70 3 0 27 19 54 43 125 111 310 154
464 107z m2161 1 c80 -20 105 -32 157 -74 83 -66 128 -171 128 -297 0 -67 -22
-195 -71 -405 -5 -22 -13 -60 -18 -85 -5 -25 -23 -112 -41 -195 -19 -92 -32
-183 -33 -237 l-2 -88 -147 0 -148 0 -1 53 c-1 28 -1 60 0 70 2 17 -24 25 -31
9 -9 -22 -116 -94 -185 -123 -73 -32 -85 -34 -188 -34 -93 0 -118 4 -159 23
-126 57 -198 164 -204 303 -8 172 71 331 207 419 115 73 219 104 476 141 198
28 211 32 219 70 3 17 6 54 6 81 0 43 -5 55 -33 83 -76 76 -284 69 -462 -16
-39 -18 -73 -34 -76 -36 -3 -2 -12 51 -19 118 l-13 123 23 15 c49 33 218 84
310 94 101 11 239 6 305 -12z m1505 3 c7 -7 -1 -63 -22 -161 l-32 -151 -91 5
c-121 7 -181 -15 -272 -100 -128 -120 -149 -167 -213 -477 -6 -30 -15 -71 -20
-90 -9 -36 -24 -104 -60 -275 -34 -159 -15 -145 -190 -145 l-150 0 0 26 c0 14
5 46 11 72 17 78 46 202 68 297 12 50 37 169 56 265 19 96 44 218 55 270 21
96 90 438 90 446 0 2 63 4 141 4 l141 0 -7 -77 c-3 -43 -8 -95 -11 -115 -3
-21 -2 -38 3 -38 4 0 23 23 42 51 63 93 174 177 265 200 41 11 184 5 196 -7z
m2835 -41 c-12 -50 -66 -307 -75 -362 -5 -30 -14 -68 -19 -85 -5 -17 -16 -65
-26 -106 -9 -41 -28 -122 -42 -180 -47 -191 -34 -283 48 -338 29 -20 44 -23
99 -20 43 2 82 12 115 28 70 35 170 136 184 186 16 54 123 536 161 724 18 85
34 161 36 168 2 9 43 12 160 12 l156 0 -6 -47 c-4 -27 -15 -86 -26 -133 -10
-47 -26 -121 -35 -165 -9 -44 -23 -109 -31 -145 -19 -85 -34 -155 -44 -205 -5
-22 -16 -69 -25 -105 -20 -81 -72 -335 -86 -415 -5 -33 -14 -81 -20 -107 l-11
-48 -134 0 -134 0 0 82 0 82 -32 -30 c-124 -115 -242 -164 -392 -164 -158 0
-271 79 -316 221 -20 60 -22 84 -17 191 3 71 13 159 25 208 32 134 108 482
138 625 14 72 28 136 30 143 2 9 44 12 165 12 l161 0 -7 -27z m1439 -100 c9
-71 21 -173 26 -228 5 -55 16 -156 25 -225 8 -69 20 -180 27 -248 6 -67 15
-119 18 -115 7 8 32 53 130 238 46 86 91 171 135 250 16 28 40 73 55 100 38
72 112 205 133 240 9 17 27 49 38 73 l20 42 169 0 c94 0 170 -2 170 -5 0 -5
-16 -33 -90 -160 -29 -49 -94 -162 -145 -250 -50 -88 -112 -194 -136 -235 -25
-41 -48 -82 -52 -90 -4 -8 -18 -33 -32 -55 -14 -22 -28 -47 -32 -55 -3 -8 -25
-46 -49 -85 -58 -98 -83 -140 -171 -298 -121 -215 -240 -415 -275 -461 -61
-80 -166 -174 -230 -205 -101 -49 -214 -63 -318 -39 l-52 12 5 35 c7 48 45
222 49 226 2 2 21 -1 43 -7 67 -18 144 4 204 58 47 42 125 153 168 239 23 45
23 34 -14 275 -13 91 -31 206 -38 255 -7 50 -18 119 -25 155 -6 36 -15 92 -20
125 -4 33 -24 152 -43 265 -19 113 -38 226 -42 253 l-6 47 169 0 168 0 18
-127z m-10167 -3013 c44 -26 69 -81 77 -167 7 -67 6 -72 -14 -78 -33 -11 -47
11 -55 82 -9 87 -41 123 -107 123 -24 0 -54 -7 -67 -16 -45 -32 -51 -68 -51
-296 0 -236 4 -273 30 -308 25 -33 109 -44 150 -19 32 20 37 34 48 129 5 51
11 65 25 68 37 7 49 -17 41 -87 -13 -131 -61 -181 -171 -181 -125 0 -174 44
-193 177 -15 99 -8 420 9 475 25 81 81 116 186 117 43 1 69 -5 92 -19z m7810
6 c2 -2 4 -405 4 -613 l-1 -133 -35 0 c-19 0 -35 4 -35 9 0 5 -14 3 -31 -6
-39 -20 -93 -19 -124 1 -48 31 -59 70 -63 219 -7 237 25 317 128 317 30 0 52
-5 60 -15 25 -30 30 -13 30 98 0 120 8 142 45 131 11 -4 21 -7 22 -8z m1465 4
c108 0 109 0 106 -22 -3 -22 -8 -23 -98 -26 -60 -2 -97 -7 -102 -15 -4 -7 -8
-69 -8 -138 l0 -126 46 -7 c26 -3 64 -6 85 -6 35 0 39 -3 39 -25 0 -25 -1 -25
-79 -25 -63 0 -80 -3 -85 -16 -3 -9 -6 -90 -6 -180 l0 -164 -35 0 -35 0 0 374
c0 348 1 375 18 379 9 3 23 3 30 1 8 -2 63 -4 124 -4z m-5521 -10 c46 -13 83
-53 103 -113 19 -57 23 -394 5 -476 -12 -55 -43 -108 -74 -125 -11 -6 -23 -15
-26 -19 -5 -8 -247 -13 -253 -5 -5 4 -10 462 -8 621 l2 127 108 0 c59 0 123
-5 143 -10z m2832 -13 c61 -40 87 -126 67 -222 -8 -39 -19 -61 -39 -78 l-29
-24 35 -34 c47 -45 53 -65 53 -167 0 -100 -17 -143 -70 -180 -30 -20 -45 -22
-161 -22 -71 0 -129 3 -130 8 -3 31 -4 720 -1 730 8 22 239 13 275 -11z m837
-352 l0 -375 -35 0 -35 0 0 368 c0 203 3 372 7 375 3 4 19 7 35 7 l28 0 0
-375z m-5272 248 l3 -82 42 -3 c34 -2 43 -7 45 -25 3 -19 -2 -22 -40 -25 l-43
-3 -3 -207 c-2 -182 0 -208 14 -223 10 -10 27 -15 40 -12 24 4 42 -22 30 -42
-11 -17 -67 -21 -95 -7 -55 29 -56 33 -61 270 l-5 221 -30 5 c-22 4 -30 11
-30 25 0 15 8 21 33 23 l32 3 0 79 c0 81 5 91 45 87 18 -2 20 -10 23 -84z
m242 32 c0 -45 0 -45 -35 -45 -35 0 -35 0 -35 45 0 45 0 45 35 45 35 0 35 0
35 -45z m4840 5 c0 -34 -4 -41 -24 -46 -36 -9 -46 2 -46 47 0 38 1 39 35 39
34 0 35 -1 35 -40z m762 -6 c-4 -44 -5 -45 -36 -42 -29 3 -31 6 -34 46 l-3 42
38 0 38 0 -3 -46z m1948 -21 c-1 -38 -1 -73 -1 -80 1 -7 20 -13 44 -15 34 -2
43 -7 45 -25 3 -19 -2 -22 -40 -25 l-43 -3 -3 -209 c-3 -223 1 -242 45 -233
28 5 49 -23 31 -41 -17 -17 -90 -15 -115 3 -30 21 -34 47 -37 276 l-3 204 -31
3 c-26 3 -32 8 -32 28 0 20 5 24 29 24 35 0 44 19 41 88 -4 71 -3 72 36 72
l35 0 -1 -67z m1120 -87 c19 -59 70 -111 70 -72 0 8 16 27 35 42 29 21 45 26
88 26 47 -1 55 -5 85 -38 24 -28 32 -47 32 -76 0 -34 -3 -38 -25 -38 -20 0
-25 5 -25 27 0 79 -115 100 -133 24 -9 -36 8 -59 53 -72 39 -12 54 -29 25 -29
-26 0 -17 -15 38 -67 76 -72 87 -93 87 -162 0 -55 -2 -61 -35 -90 -31 -27 -43
-31 -91 -31 -72 0 -107 19 -133 73 -25 52 -26 73 -5 81 31 12 42 5 48 -29 9
-47 50 -79 94 -71 47 7 62 23 62 65 0 47 -24 82 -96 141 -67 55 -76 54 -125
-13 -30 -41 -80 -138 -93 -184 -13 -41 -53 -63 -115 -63 -71 0 -101 16 -126
65 -17 35 -20 60 -20 210 0 189 6 217 58 252 59 40 108 39 189 -4 3 -2 11 12
18 31 15 45 25 45 40 2z m-10708 -6 c59 -17 87 -62 98 -161 19 -166 9 -283
-32 -348 -26 -42 -133 -57 -187 -25 -47 28 -65 84 -69 220 -4 146 9 225 44
271 39 52 76 62 146 43z m434 -3 c0 -1 10 -15 22 -31 21 -28 22 -37 22 -267 0
-156 -4 -240 -11 -244 -5 -4 -21 -4 -35 -1 l-24 6 0 225 c0 214 -1 226 -21
246 -22 22 -47 19 -89 -10 l-25 -18 -5 -219 -5 -219 -33 -3 -32 -3 2 268 3
268 30 0 c23 0 31 -5 33 -22 l3 -22 38 23 c45 29 68 36 101 29 14 -2 25 -5 26
-6z m401 -25 c31 -36 34 -75 31 -307 l-3 -200 -37 -3 -38 -3 0 234 0 234 -25
11 c-28 13 -67 3 -97 -25 -16 -14 -18 -39 -18 -235 l0 -218 -35 0 -35 0 2 268
3 267 33 3 c29 3 32 1 32 -22 0 -31 4 -32 41 -5 63 44 109 45 146 1z m360 -9
c36 -39 46 -84 41 -173 l-3 -55 -105 -5 -105 -5 -3 -49 c-4 -63 14 -146 36
-162 22 -18 63 -17 87 0 13 9 21 31 25 67 5 52 6 54 38 57 31 3 32 2 32 -37 0
-105 -54 -157 -153 -149 -104 9 -137 73 -137 267 0 127 13 199 42 237 51 64
150 68 205 7z m350 27 c34 -22 52 -57 59 -118 6 -54 4 -63 -11 -68 -27 -11
-50 9 -53 47 -5 59 -21 87 -54 94 -78 18 -104 -50 -95 -250 6 -160 20 -195 80
-195 43 0 67 32 67 89 0 52 16 75 47 69 15 -3 18 -13 15 -68 -5 -111 -44 -146
-153 -138 -50 4 -65 9 -80 29 -31 40 -41 88 -46 214 -10 231 37 322 159 311
25 -3 55 -10 65 -16z m863 -16 l25 -24 0 -243 0 -242 -35 0 -35 0 -3 229 c-2
204 -4 231 -20 242 -20 15 -57 8 -94 -18 l-28 -19 0 -220 0 -219 -35 0 -35 0
2 268 3 267 33 3 c29 3 32 1 32 -22 0 -31 4 -32 41 -5 61 43 106 44 149 3z
m353 -2 l30 -30 39 31 c39 31 40 31 54 12 16 -21 11 -28 -37 -54 -22 -12 -33
-25 -32 -37 6 -44 4 -132 -2 -166 -12 -64 -88 -113 -158 -101 -28 4 -37 1 -51
-18 -27 -39 -20 -55 28 -68 25 -6 53 -11 63 -11 79 0 153 -58 153 -120 0 -53
-14 -81 -55 -107 -29 -19 -49 -23 -114 -23 -118 0 -181 32 -181 93 0 37 34 94
62 103 20 6 20 7 -6 30 -34 32 -33 65 3 106 l29 33 -23 27 c-34 40 -49 138
-30 207 15 58 62 116 99 125 48 10 99 -2 129 -32z m1317 28 c22 -6 43 -22 57
-42 25 -37 49 -162 39 -202 -6 -26 -7 -26 -111 -26 l-105 0 0 -90 c0 -83 2
-93 25 -115 29 -30 75 -33 98 -7 9 9 17 40 19 67 3 48 4 50 36 53 32 3 32 3
32 -43 0 -94 -46 -144 -132 -145 -76 0 -103 14 -128 68 -20 42 -21 59 -18 223
3 198 8 213 78 250 39 21 60 23 110 9z m411 -21 c44 -44 49 -76 49 -309 0
-183 -2 -220 -14 -220 -28 0 -46 12 -46 30 0 31 -15 31 -45 0 -56 -59 -152
-32 -176 50 -26 88 16 155 137 217 l76 38 -4 62 c-4 71 -26 103 -68 103 -33 0
-67 -36 -72 -75 -3 -26 -8 -30 -35 -33 -29 -3 -33 -1 -33 22 0 52 30 104 71
124 50 25 131 20 160 -9z m410 -11 c20 -24 27 -28 32 -16 3 9 26 25 51 37 60
30 108 21 136 -24 19 -30 20 -49 20 -269 l0 -236 -29 0 c-19 0 -32 6 -35 18
-3 9 -5 109 -4 222 0 113 -2 216 -6 228 -10 31 -75 31 -110 0 l-26 -23 -4
-220 c-2 -121 -5 -221 -5 -222 -1 -2 -14 -3 -31 -3 l-30 0 0 229 c0 195 -2
232 -16 245 -24 25 -78 20 -113 -10 l-31 -26 0 -218 c0 -136 -4 -221 -10 -225
-6 -3 -19 -3 -30 0 -20 6 -20 14 -18 273 l3 267 28 3 c23 3 27 0 27 -22 0 -32
3 -32 43 -2 59 44 117 42 158 -6z m535 14 c30 -22 43 -49 46 -92 3 -29 -1 -35
-19 -38 -17 -3 -24 5 -34 35 -14 44 -34 62 -68 63 -36 0 -61 -28 -61 -69 0
-31 10 -45 94 -128 81 -80 95 -99 106 -141 9 -41 9 -55 -6 -91 -20 -51 -58
-73 -126 -73 -82 1 -133 47 -140 127 -3 26 1 30 23 33 22 3 27 -2 32 -28 20
-99 157 -110 157 -12 0 44 -30 92 -83 134 -121 96 -152 160 -113 237 35 67
131 88 192 43z m2935 -9 l27 -25 42 28 c34 23 43 25 51 13 16 -25 10 -37 -28
-56 l-37 -18 0 -95 c-1 -64 -6 -105 -16 -124 -21 -43 -74 -70 -131 -69 -49 1
-69 -11 -82 -49 -8 -23 -3 -25 105 -48 81 -17 97 -24 126 -55 38 -41 42 -83
12 -132 -28 -47 -67 -63 -153 -63 -129 0 -177 27 -177 98 0 39 5 49 37 79 32
31 35 36 20 44 -43 24 -40 78 5 127 l21 22 -20 23 c-73 82 -45 269 47 319 46
25 114 17 151 -19z m-6333 -244 c3 -286 3 -285 -47 -272 -21 5 -21 10 -21 267
0 145 3 266 7 270 4 4 19 6 33 4 l25 -3 3 -266z m1662 237 c5 -27 6 -28 19
-12 19 22 65 46 89 46 13 0 21 -8 24 -23 7 -34 -1 -47 -28 -47 -21 0 -90 -23
-96 -32 -1 -2 -4 -100 -7 -218 l-6 -215 -35 0 -35 0 -1 240 c-2 295 -1 297 40
293 25 -2 32 -8 36 -32z m2780 -199 c0 -218 1 -235 19 -251 23 -21 64 -15 100
15 23 19 23 21 25 235 1 188 3 218 17 227 9 6 24 7 33 4 14 -6 16 -35 16 -272
l0 -265 -36 0 c-28 0 -35 3 -30 15 8 21 -13 19 -52 -5 -42 -26 -102 -26 -133
-1 -24 19 -24 20 -27 275 l-3 256 36 0 35 0 0 -233z m398 -39 l2 -268 -35 0
-35 0 -1 223 c-1 122 -3 236 -4 252 -3 45 12 67 43 63 l27 -3 3 -267z m762 2
l0 -270 -35 0 -35 0 0 263 c0 145 3 267 7 270 3 4 19 7 35 7 l28 0 0 -270z
m188 242 l3 -22 43 25 c52 30 108 33 137 6 27 -25 37 -116 34 -316 -4 -228 0
-205 -40 -205 l-35 0 0 230 0 230 -24 15 c-18 12 -29 13 -52 5 -65 -25 -64
-22 -64 -262 l0 -218 -35 0 -35 0 0 263 c0 145 3 267 7 271 4 4 19 6 33 4 17
-2 26 -10 28 -26z m1330 16 c9 -9 12 -76 12 -238 0 -235 3 -250 42 -250 11 0
37 9 58 20 l40 20 2 228 3 227 30 0 30 0 3 -267 2 -268 -35 0 c-28 0 -35 4
-35 20 0 25 -8 25 -34 1 -29 -26 -92 -42 -121 -31 -13 5 -32 21 -42 37 -16 24
-18 56 -22 255 -3 237 0 258 38 258 9 0 22 -5 29 -12z m652 -224 c5 -248 9
-264 58 -264 14 0 40 11 58 25 l34 26 2 222 3 222 30 0 30 0 3 -267 2 -268
-35 0 c-28 0 -35 4 -35 20 0 20 -1 20 -47 -5 -89 -47 -153 -27 -167 53 -8 52
-8 457 1 466 4 4 19 6 33 4 l25 -3 5 -231z m402 204 l3 -33 20 20 c53 54 110
59 110 10 0 -26 -4 -30 -35 -35 -45 -8 -77 -25 -90 -50 -6 -11 -10 -102 -10
-219 l0 -201 -35 0 -35 0 0 270 0 270 34 0 c32 0 35 -3 38 -32z m-4562 -423
c9 -11 11 -35 6 -83 -5 -55 -11 -71 -33 -90 -36 -32 -52 -14 -23 26 23 31 22
64 -2 60 -9 -2 -14 13 -16 50 -3 52 -3 52 26 52 16 0 35 -7 42 -15z"/>
<path d="M1591 5106 c-8 -9 -10 -123 -9 -402 l3 -389 600 -3 c336 -1 603 -6
608 -11 5 -5 9 -262 9 -598 -1 -323 1 -596 4 -605 5 -17 41 -18 569 -18 440 0
566 -3 572 -12 4 -7 8 -262 8 -566 0 -469 2 -554 14 -562 20 -12 825 -12 856
0 l25 10 0 1573 c0 1210 -3 1576 -12 1585 -19 19 -3231 17 -3247 -2z"/>
<path d="M439 1683 c0 -5 0 -222 -1 -483 l0 -475 434 -5 c242 -3 439 -1 446 4
9 7 12 111 10 485 l-3 476 -442 3 c-244 1 -443 -1 -444 -5z"/>
<path d="M13710 3827 c-49 -13 -46 -4 -79 -177 -5 -25 -21 -99 -35 -165 -15
-66 -31 -144 -36 -174 -5 -30 -18 -90 -29 -135 -30 -123 -43 -197 -37 -203 3
-3 39 -8 79 -11 249 -16 439 175 488 489 12 79 8 180 -11 243 -16 52 -80 120
-128 134 -49 15 -153 14 -212 -1z"/>
<path d="M10500 3368 c-239 -40 -286 -55 -344 -115 -105 -109 -95 -266 21
-304 49 -16 138 -6 197 22 64 30 160 120 179 168 9 21 23 74 31 117 9 43 18
89 22 102 6 19 3 22 -22 21 -16 -1 -54 -6 -84 -11z"/>
<path d="M13954 688 c-33 -15 -44 -73 -44 -225 0 -129 2 -143 23 -174 26 -40
54 -46 96 -24 l31 16 0 195 0 195 -35 15 c-39 16 -43 16 -71 2z"/>
<path d="M9890 580 l0 -320 59 0 c32 0 74 6 92 14 61 26 64 36 67 294 3 220 2
235 -18 276 -24 50 -37 56 -132 56 l-68 0 0 -320z"/>
<path d="M12700 770 l0 -130 75 0 c64 0 77 3 96 23 28 30 39 60 39 112 0 91
-39 125 -144 125 l-66 0 0 -130z"/>
<path d="M12700 420 l0 -160 78 0 c114 1 142 33 142 167 0 114 -41 153 -160
153 l-60 0 0 -160z"/>
<path d="M17167 682 c-9 -10 -19 -37 -23 -60 -6 -37 -4 -42 13 -42 20 0 106
50 118 70 4 6 -1 20 -11 31 -22 24 -75 25 -97 1z"/>
<path d="M17145 540 c-7 -12 18 -24 37 -18 8 3 5 9 -9 16 -14 8 -24 9 -28 2z"/>
<path d="M17140 398 c0 -93 13 -128 51 -142 60 -21 99 16 99 94 0 29 4 40 15
40 24 0 18 25 -14 59 -26 28 -35 31 -90 31 l-61 0 0 -82z"/>
<path d="M6587 682 c-30 -33 -37 -74 -36 -210 0 -156 11 -202 50 -216 39 -13
78 0 90 32 6 15 9 97 7 198 -3 152 -5 174 -22 193 -23 26 -67 27 -89 3z"/>
<path d="M7722 680 c-19 -18 -22 -32 -22 -90 l0 -70 64 0 c41 0 67 5 75 14 17
20 -1 136 -24 153 -27 19 -68 16 -93 -7z"/>
<path d="M9289 669 c-26 -28 -29 -37 -29 -103 0 -53 5 -79 20 -103 18 -30 24
-33 68 -33 42 0 50 3 65 29 22 37 23 160 2 200 -26 52 -83 56 -126 10z"/>
<path d="M9267 208 c-36 -31 -43 -68 -20 -97 16 -19 29 -23 90 -24 59 -2 76 2
100 19 34 26 40 47 19 79 -10 16 -29 25 -58 30 -24 3 -57 9 -74 11 -23 4 -38
0 -57 -18z"/>
<path d="M10659 681 c-21 -17 -24 -28 -24 -88 l0 -68 68 -3 c49 -2 67 0 68 10
3 55 -5 127 -17 146 -18 28 -63 29 -95 3z"/>
<path d="M11079 452 c-24 -16 -53 -39 -63 -50 -23 -26 -27 -101 -7 -125 22
-27 73 -21 104 11 25 26 27 35 27 110 0 45 -4 82 -8 82 -4 0 -28 -13 -53 -28z"/>
<path d="M14900 680 c-23 -17 -25 -27 -28 -108 -4 -81 -2 -91 20 -116 30 -34
89 -39 119 -9 39 39 38 194 -2 234 -24 24 -76 24 -109 -1z"/>
<path d="M14867 202 c-58 -61 -26 -111 74 -114 82 -2 129 20 129 60 0 44 -20
59 -91 71 -86 14 -81 15 -112 -17z"/>
</g>
</svg>
