<?xml version="1.0" standalone="no"?>
<!DOCTYPE svg PUBLIC "-//W3C//DTD SVG 20010904//EN"
 "http://www.w3.org/TR/2001/REC-SVG-20010904/DTD/svg10.dtd">
<svg version="1.0" xmlns="http://www.w3.org/2000/svg"
 width="1024.000000pt" height="329.000000pt" viewBox="0 0 1024.000000 329.000000"
 preserveAspectRatio="xMidYMid meet">

<g transform="translate(0.000000,329.000000) scale(0.100000,-0.100000)"
fill="#000000" stroke="none">
<path d="M812 3058 c-17 -17 -17 -709 0 -726 9 -9 98 -12 340 -12 l328 0 0
-275 0 -275 -321 0 c-202 0 -327 -4 -340 -10 -18 -10 -19 -24 -19 -325 l0
-314 -122 -4 -123 -3 128 -2 127 -2 0 319 c0 282 2 320 16 325 9 3 162 6 340
6 l324 0 0 285 0 285 -337 2 -338 3 0 360 0 360 1045 3 c575 1 1055 0 1068 -3
l22 -5 0 -1028 c0 -786 -3 -1031 -12 -1040 -18 -18 -727 -17 -751 0 -15 12
-17 46 -19 328 l-3 315 -270 0 -270 0 -3 -314 c-1 -212 -6 -319 -13 -328 -9
-10 -78 -13 -340 -13 l-329 0 -2 -342 -3 -343 -380 0 -380 0 -3 399 c-1 271 1
403 8 410 6 7 80 13 173 16 l162 6 -152 2 c-83 1 -163 -2 -177 -8 l-26 -10 0
-409 c0 -364 2 -410 16 -415 9 -3 181 -6 383 -6 272 0 370 3 379 12 9 9 12 99
12 345 l0 333 323 0 c243 0 327 3 340 12 15 12 17 46 19 328 l3 315 263 3 262
2 0 -314 c0 -314 0 -315 22 -330 19 -14 73 -16 385 -16 315 0 364 2 377 16 14
14 16 122 16 1043 0 785 -3 1030 -12 1039 -17 17 -2119 17 -2136 0z"/>
<path d="M940 2695 l0 -235 328 0 c242 0 331 -3 340 -12 9 -9 12 -100 12 -350
l0 -338 338 -2 337 -3 5 -320 5 -320 258 -3 257 -2 0 910 0 910 -940 0 -940 0
0 -235z m1870 -675 l0 -900 -250 0 -250 0 0 313 c0 230 -3 316 -12 325 -9 9
-98 12 -340 12 l-328 0 0 340 c0 325 -1 340 -19 350 -13 6 -138 10 -340 10
l-321 0 0 225 0 225 930 0 930 0 0 -900z"/>
<path d="M7953 2703 c9 -2 23 -2 30 0 6 3 -1 5 -18 5 -16 0 -22 -2 -12 -5z"/>
<path d="M8002 2690 c0 -14 2 -19 5 -12 2 6 2 18 0 25 -3 6 -5 1 -5 -13z"/>
<path d="M7888 2693 c6 -2 18 -2 25 0 6 3 1 5 -13 5 -14 0 -19 -2 -12 -5z"/>
<path d="M7817 2683 c-4 -3 -7 -11 -7 -17 0 -7 3 -7 8 0 4 7 16 14 27 17 19 5
19 5 -1 6 -11 0 -24 -2 -27 -6z"/>
<path d="M4038 2643 c17 -2 47 -2 65 0 17 2 3 4 -33 4 -36 0 -50 -2 -32 -4z"/>
<path d="M7802 2630 c0 -14 2 -19 5 -12 2 6 2 18 0 25 -3 6 -5 1 -5 -13z"/>
<path d="M7992 2630 c0 -14 2 -19 5 -12 2 6 2 18 0 25 -3 6 -5 1 -5 -13z"/>
<path d="M3958 2633 c6 -2 18 -2 25 0 6 3 1 5 -13 5 -14 0 -19 -2 -12 -5z"/>
<path d="M4168 2633 c6 -2 18 -2 25 0 6 3 1 5 -13 5 -14 0 -19 -2 -12 -5z"/>
<path d="M4218 2623 c7 -3 16 -2 19 1 4 3 -2 6 -13 5 -11 0 -14 -3 -6 -6z"/>
<path d="M3844 2594 c-18 -14 -18 -14 6 -3 31 14 36 19 24 19 -6 0 -19 -7 -30
-16z"/>
<path d="M7982 2580 c0 -14 2 -19 5 -12 2 6 2 18 0 25 -3 6 -5 1 -5 -13z"/>
<path d="M7791 2574 c0 -11 3 -14 6 -6 3 7 2 16 -1 19 -3 4 -6 -2 -5 -13z"/>
<path d="M3787 2560 c-15 -12 -36 -35 -47 -53 l-22 -32 26 30 c14 17 38 40 53
52 15 13 25 23 22 23 -4 0 -18 -9 -32 -20z"/>
<path d="M4356 2566 c3 -8 0 -25 -6 -38 -11 -22 -10 -22 4 -4 18 23 20 42 6
51 -5 3 -7 0 -4 -9z"/>
<path d="M7440 2566 c0 -2 11 -6 25 -8 14 -3 25 -1 25 3 0 5 -11 9 -25 9 -14
0 -25 -2 -25 -4z"/>
<path d="M7408 2553 c7 -3 16 -2 19 1 4 3 -2 6 -13 5 -11 0 -14 -3 -6 -6z"/>
<path d="M7358 2543 c6 -2 18 -2 25 0 6 3 1 5 -13 5 -14 0 -19 -2 -12 -5z"/>
<path d="M7971 2534 c0 -11 3 -14 6 -6 3 7 2 16 -1 19 -3 4 -6 -2 -5 -13z"/>
<path d="M7318 2533 c7 -3 16 -2 19 1 4 3 -2 6 -13 5 -11 0 -14 -3 -6 -6z"/>
<path d="M7472 2520 c0 -14 2 -19 5 -12 2 6 2 18 0 25 -3 6 -5 1 -5 -13z"/>
<path d="M7781 2524 c0 -11 3 -14 6 -6 3 7 2 16 -1 19 -3 4 -6 -2 -5 -13z"/>
<path d="M7283 2515 c-3 -9 -3 -18 -1 -21 3 -3 8 4 11 16 6 23 -1 27 -10 5z"/>
<path d="M7772 2480 c0 -14 2 -19 5 -12 2 6 2 18 0 25 -3 6 -5 1 -5 -13z"/>
<path d="M7962 2480 c0 -14 2 -19 5 -12 2 6 2 18 0 25 -3 6 -5 1 -5 -13z"/>
<path d="M4008 2473 c6 -2 18 -2 25 0 6 3 1 5 -13 5 -14 0 -19 -2 -12 -5z"/>
<path d="M4123 2473 c9 -2 23 -2 30 0 6 3 -1 5 -18 5 -16 0 -22 -2 -12 -5z"/>
<path d="M7461 2464 c0 -11 3 -14 6 -6 3 7 2 16 -1 19 -3 4 -6 -2 -5 -13z"/>
<path d="M3702 2445 c-7 -14 -12 -31 -12 -38 1 -7 7 3 16 22 17 39 13 54 -4
16z"/>
<path d="M3954 2454 c-18 -14 -18 -14 6 -3 31 14 36 19 24 19 -6 0 -19 -7 -30
-16z"/>
<path d="M4185 2460 c27 -12 43 -12 25 0 -8 5 -22 9 -30 9 -10 0 -8 -3 5 -9z"/>
<path d="M7272 2450 c0 -14 2 -19 5 -12 2 6 2 18 0 25 -3 6 -5 1 -5 -13z"/>
<path d="M4301 2443 c-8 -15 -13 -15 -36 -5 -36 16 -46 15 -15 -3 34 -20 47
-18 60 5 13 24 5 27 -9 3z"/>
<path d="M7762 2430 c0 -14 2 -19 5 -12 2 6 2 18 0 25 -3 6 -5 1 -5 -13z"/>
<path d="M7952 2430 c0 -14 2 -19 5 -12 2 6 2 18 0 25 -3 6 -5 1 -5 -13z"/>
<path d="M3901 2406 c-52 -84 -15 -156 117 -224 108 -57 158 -96 192 -149 17
-26 30 -42 30 -36 0 20 -61 93 -103 124 -23 17 -77 49 -120 71 -42 22 -88 54
-102 70 -32 38 -33 97 -4 144 11 19 18 34 16 34 -3 0 -15 -15 -26 -34z"/>
<path d="M7452 2420 c0 -14 2 -19 5 -12 2 6 2 18 0 25 -3 6 -5 1 -5 -13z"/>
<path d="M7262 2400 c0 -14 2 -19 5 -12 2 6 2 18 0 25 -3 6 -5 1 -5 -13z"/>
<path d="M7752 2380 c0 -14 2 -19 5 -12 2 6 2 18 0 25 -3 6 -5 1 -5 -13z"/>
<path d="M3682 2365 c0 -16 2 -22 5 -12 2 9 2 23 0 30 -3 6 -5 -1 -5 -18z"/>
<path d="M7941 2374 c0 -11 3 -14 6 -6 3 7 2 16 -1 19 -3 4 -6 -2 -5 -13z"/>
<path d="M7441 2358 l-1 -28 93 2 92 2 -87 3 c-80 4 -87 5 -91 26 -4 18 -4 18
-6 -5z"/>
<path d="M7250 2357 c0 -14 -11 -17 -60 -17 -33 0 -60 -3 -60 -7 0 -15 121 -2
127 13 3 8 3 18 -1 21 -3 4 -6 -1 -6 -10z"/>
<path d="M4828 2352 c-10 -4 17 -7 60 -7 42 0 88 -3 102 -7 19 -6 18 -4 -5 7
-31 15 -127 19 -157 7z"/>
<path d="M5308 2353 c17 -2 47 -2 65 0 17 2 3 4 -33 4 -36 0 -50 -2 -32 -4z"/>
<path d="M6058 2353 c23 -2 61 -2 85 0 23 2 4 4 -43 4 -47 0 -66 -2 -42 -4z"/>
<path d="M6965 2355 c24 -8 116 -12 103 -4 -7 5 -35 8 -63 8 -27 0 -45 -2 -40
-4z"/>
<path d="M7965 2344 c-26 -9 -29 -11 -10 -7 17 3 62 9 100 13 l70 7 -60 1
c-33 0 -78 -6 -100 -14z"/>
<path d="M5230 2340 c-18 -12 -2 -12 25 0 13 6 15 9 5 9 -8 0 -22 -4 -30 -9z"/>
<path d="M5978 2343 c6 -2 18 -2 25 0 6 3 1 5 -13 5 -14 0 -19 -2 -12 -5z"/>
<path d="M6198 2343 c7 -3 16 -2 19 1 4 3 -2 6 -13 5 -11 0 -14 -3 -6 -6z"/>
<path d="M7736 2314 c-4 -20 -5 -38 -3 -40 3 -3 8 11 11 32 4 20 5 38 3 40 -3
3 -8 -11 -11 -32z"/>
<path d="M8145 2340 c27 -12 43 -12 25 0 -8 5 -22 9 -30 9 -10 0 -8 -3 5 -9z"/>
<path d="M4587 2333 l82 -4 3 -42 3 -42 35 34 35 33 -32 -21 -33 -22 0 35 0
36 -87 -2 -88 -2 82 -3z"/>
<path d="M4764 2324 c-18 -14 -18 -14 6 -3 31 14 36 19 24 19 -6 0 -19 -7 -30
-16z"/>
<path d="M5938 2333 c7 -3 16 -2 19 1 4 3 -2 6 -13 5 -11 0 -14 -3 -6 -6z"/>
<path d="M6262 2320 c20 -11 48 -34 63 -52 15 -18 22 -24 17 -13 -17 34 -84
86 -109 85 -4 -1 8 -10 29 -20z"/>
<path d="M6621 2318 c1 -17 2 -19 6 -5 4 14 16 17 79 17 l74 0 0 -67 1 -68 21
30 c12 17 40 48 62 70 23 21 32 33 21 26 -11 -8 -37 -32 -57 -55 l-38 -41 0
58 0 57 -85 0 c-82 0 -85 -1 -84 -22z"/>
<path d="M8500 2333 c0 -5 40 -7 89 -5 l90 3 4 -28 c4 -27 4 -27 6 5 l1 32
-95 0 c-52 0 -95 -3 -95 -7z"/>
<path d="M8951 2323 c0 -11 3 -13 6 -5 3 8 32 12 93 12 61 0 90 -4 93 -12 3
-8 6 -6 6 5 1 15 -10 17 -99 17 -89 0 -100 -2 -99 -17z"/>
<path d="M9311 2308 c2 -32 2 -32 6 -5 l4 28 90 -3 c49 -2 89 0 89 5 0 4 -43
7 -95 7 l-95 0 1 -32z"/>
<path d="M9820 2318 c-10 -21 -10 -21 3 -5 12 14 31 17 106 17 67 0 90 -3 85
-12 -4 -7 -3 -8 5 -4 27 17 -6 26 -94 26 -88 0 -95 -2 -105 -22z"/>
<path d="M5056 2289 l39 -47 40 31 c22 17 45 35 50 40 18 17 -30 -12 -59 -36
l-29 -23 -39 40 -40 41 38 -46z"/>
<path d="M5460 2327 c0 -2 15 -16 33 -33 l32 -29 -29 33 c-28 30 -36 37 -36
29z"/>
<path d="M7062 2310 c0 -14 2 -19 5 -12 2 6 2 18 0 25 -3 6 -5 1 -5 -13z"/>
<path d="M8232 2290 c25 -21 51 -53 58 -70 7 -17 15 -29 17 -26 14 13 -88 136
-113 136 -4 0 13 -18 38 -40z"/>
<path d="M4502 2300 c0 -14 2 -19 5 -12 2 6 2 18 0 25 -3 6 -5 1 -5 -13z"/>
<path d="M5861 2306 c-7 -8 -11 -33 -8 -58 l4 -43 1 47 c1 33 7 50 20 57 9 6
12 11 6 11 -6 0 -17 -6 -23 -14z"/>
<path d="M7612 2300 c0 -14 2 -19 5 -12 2 6 2 18 0 25 -3 6 -5 1 -5 -13z"/>
<path d="M7122 2290 c0 -14 2 -19 5 -12 2 6 2 18 0 25 -3 6 -5 1 -5 -13z"/>
<path d="M8492 2290 c0 -14 2 -19 5 -12 2 6 2 18 0 25 -3 6 -5 1 -5 -13z"/>
<path d="M9502 2280 c0 -19 2 -27 5 -17 2 9 2 25 0 35 -3 9 -5 1 -5 -18z"/>
<path d="M3682 2275 c0 -16 2 -22 5 -12 2 9 2 23 0 30 -3 6 -5 -1 -5 -18z"/>
<path d="M8942 2280 c0 -14 2 -19 5 -12 2 6 2 18 0 25 -3 6 -5 1 -5 -13z"/>
<path d="M9132 2280 c0 -14 2 -19 5 -12 2 6 2 18 0 25 -3 6 -5 1 -5 -13z"/>
<path d="M9997 2293 c-2 -5 -17 -30 -32 -58 -16 -27 -24 -45 -18 -40 14 14 66
105 60 105 -3 0 -8 -3 -10 -7z"/>
<path d="M6612 2270 c0 -14 2 -19 5 -12 2 6 2 18 0 25 -3 6 -5 1 -5 -13z"/>
<path d="M9775 2240 c-14 -27 -23 -50 -20 -50 2 0 16 23 30 50 14 28 23 50 20
50 -2 0 -16 -22 -30 -50z"/>
<path d="M7051 2264 c0 -11 3 -14 6 -6 3 7 2 16 -1 19 -3 4 -6 -2 -5 -13z"/>
<path d="M4492 2250 c0 -14 2 -19 5 -12 2 6 2 18 0 25 -3 6 -5 1 -5 -13z"/>
<path d="M7602 2250 c0 -14 2 -19 5 -12 2 6 2 18 0 25 -3 6 -5 1 -5 -13z"/>
<path d="M8672 2250 c0 -14 2 -19 5 -12 2 6 2 18 0 25 -3 6 -5 1 -5 -13z"/>
<path d="M5531 2230 c15 -45 24 -54 15 -15 -4 17 -12 34 -17 40 -5 5 -4 -6 2
-25z"/>
<path d="M7112 2240 c0 -14 2 -19 5 -12 2 6 2 18 0 25 -3 6 -5 1 -5 -13z"/>
<path d="M7722 2240 c0 -14 2 -19 5 -12 2 6 2 18 0 25 -3 6 -5 1 -5 -13z"/>
<path d="M8482 2240 c0 -14 2 -19 5 -12 2 6 2 18 0 25 -3 6 -5 1 -5 -13z"/>
<path d="M8931 2234 c0 -11 3 -14 6 -6 3 7 2 16 -1 19 -3 4 -6 -2 -5 -13z"/>
<path d="M9122 2230 c0 -14 2 -19 5 -12 2 6 2 18 0 25 -3 6 -5 1 -5 -13z"/>
<path d="M9322 2230 c0 -14 2 -19 5 -12 2 6 2 18 0 25 -3 6 -5 1 -5 -13z"/>
<path d="M6602 2220 c0 -14 2 -19 5 -12 2 6 2 18 0 25 -3 6 -5 1 -5 -13z"/>
<path d="M7042 2220 c0 -14 2 -19 5 -12 2 6 2 18 0 25 -3 6 -5 1 -5 -13z"/>
<path d="M9513 2195 c0 -22 2 -30 4 -17 2 12 2 30 0 40 -3 9 -5 -1 -4 -23z"/>
<path d="M4482 2200 c0 -14 2 -19 5 -12 2 6 2 18 0 25 -3 6 -5 1 -5 -13z"/>
<path d="M6053 2213 c9 -2 23 -2 30 0 6 3 -1 5 -18 5 -16 0 -22 -2 -12 -5z"/>
<path d="M4822 2201 c26 -4 55 -13 65 -21 11 -8 8 -5 -5 8 -17 16 -34 22 -65
21 l-42 -2 47 -6z"/>
<path d="M5253 2203 c9 -2 23 -2 30 0 6 3 -1 5 -18 5 -16 0 -22 -2 -12 -5z"/>
<path d="M5978 2203 c6 -2 18 -2 25 0 6 3 1 5 -13 5 -14 0 -19 -2 -12 -5z"/>
<path d="M6121 2206 c2 -2 15 -9 29 -15 24 -11 24 -11 6 3 -16 13 -49 24 -35
12z"/>
<path d="M7107 2198 c2 -5 26 -8 53 -8 29 0 50 -5 53 -12 4 -8 6 -7 6 4 1 13
-11 17 -58 20 -33 1 -57 0 -54 -4z"/>
<path d="M7500 2201 c-81 -5 -95 -9 -96 -24 -1 -12 -1 -13 3 -2 4 12 23 15 99
15 56 0 94 4 94 10 0 6 -1 9 -2 8 -2 -1 -46 -4 -98 -7z"/>
<path d="M8472 2190 c0 -14 2 -19 5 -12 2 6 2 18 0 25 -3 6 -5 1 -5 -13z"/>
<path d="M8661 2194 c0 -11 3 -14 6 -6 3 7 2 16 -1 19 -3 4 -6 -2 -5 -13z"/>
<path d="M4713 2171 c-41 -30 -81 -105 -70 -133 3 -8 6 -6 6 6 2 42 43 106 84
131 23 14 37 25 31 25 -6 0 -29 -13 -51 -29z"/>
<path d="M5162 2170 c-38 -27 -63 -72 -48 -87 3 -4 6 3 6 14 0 26 41 70 82 88
18 8 26 14 17 15 -9 0 -35 -13 -57 -30z"/>
<path d="M5328 2172 c15 -15 29 -26 31 -25 6 4 -41 53 -50 53 -4 0 4 -13 19
-28z"/>
<path d="M5861 2183 c-1 -27 14 -29 49 -7 23 14 12 13 -27 -3 -6 -2 -13 4 -16
14 -4 14 -5 14 -6 -4z"/>
<path d="M6362 2180 c0 -14 2 -19 5 -12 2 6 2 18 0 25 -3 6 -5 1 -5 -13z"/>
<path d="M7712 2180 c0 -14 2 -19 5 -12 2 6 2 18 0 25 -3 6 -5 1 -5 -13z"/>
<path d="M7914 2184 c-10 -8 -13 -12 -6 -9 8 4 26 11 40 15 22 7 23 8 6 9 -11
1 -29 -6 -40 -15z"/>
<path d="M8018 2193 c7 -3 16 -2 19 1 4 3 -2 6 -13 5 -11 0 -14 -3 -6 -6z"/>
<path d="M8921 2184 c0 -11 3 -14 6 -6 3 7 2 16 -1 19 -3 4 -6 -2 -5 -13z"/>
<path d="M9112 2180 c0 -14 2 -19 5 -12 2 6 2 18 0 25 -3 6 -5 1 -5 -13z"/>
<path d="M5553 2120 c0 -36 2 -50 4 -32 2 17 2 47 0 65 -2 17 -4 3 -4 -33z"/>
<path d="M6592 2160 c0 -14 2 -19 5 -12 2 6 2 18 0 25 -3 6 -5 1 -5 -13z"/>
<path d="M6943 2173 c15 -2 39 -2 55 0 15 2 2 4 -28 4 -30 0 -43 -2 -27 -4z"/>
<path d="M8086 2160 c6 -8 16 -24 22 -35 6 -11 12 -15 12 -8 0 7 -10 22 -22
35 -13 13 -18 17 -12 8z"/>
<path d="M9332 2155 c0 -16 2 -22 5 -12 2 9 2 23 0 30 -3 6 -5 -1 -5 -18z"/>
<path d="M9715 2130 c-14 -27 -23 -50 -20 -50 2 0 16 23 30 50 14 28 23 50 20
50 -2 0 -16 -22 -30 -50z"/>
<path d="M9907 2138 c-35 -61 -51 -95 -40 -83 14 14 76 125 70 125 -3 0 -16
-19 -30 -42z"/>
<path d="M3734 2148 c22 -34 87 -82 186 -137 41 -24 89 -55 105 -69 l30 -27
-27 30 c-15 17 -71 55 -124 85 -54 30 -118 75 -142 100 -30 29 -39 35 -28 18z"/>
<path d="M6178 2120 l4 -48 -54 -11 -53 -10 48 4 c27 3 53 7 58 11 11 6 12 91
2 97 -5 3 -6 -17 -5 -43z"/>
<path d="M6859 2146 c-56 -38 -120 -135 -119 -178 1 -7 9 8 19 33 24 63 58
105 110 140 24 16 40 29 35 29 -5 0 -25 -11 -45 -24z"/>
<path d="M8652 2150 c0 -14 2 -19 5 -12 2 6 2 18 0 25 -3 6 -5 1 -5 -13z"/>
<path d="M4472 2140 c0 -14 2 -19 5 -12 2 6 2 18 0 25 -3 6 -5 1 -5 -13z"/>
<path d="M7202 2140 c0 -14 2 -19 5 -12 2 6 2 18 0 25 -3 6 -5 1 -5 -13z"/>
<path d="M7891 2144 c0 -11 3 -14 6 -6 3 7 2 16 -1 19 -3 4 -6 -2 -5 -13z"/>
<path d="M8462 2140 c0 -14 2 -19 5 -12 2 6 2 18 0 25 -3 6 -5 1 -5 -13z"/>
<path d="M4911 2134 c0 -11 3 -14 6 -6 3 7 2 16 -1 19 -3 4 -6 -2 -5 -13z"/>
<path d="M7392 2130 c0 -14 2 -19 5 -12 2 6 2 18 0 25 -3 6 -5 1 -5 -13z"/>
<path d="M7701 2134 c0 -11 3 -14 6 -6 3 7 2 16 -1 19 -3 4 -6 -2 -5 -13z"/>
<path d="M8912 2130 c0 -14 2 -19 5 -12 2 6 2 18 0 25 -3 6 -5 1 -5 -13z"/>
<path d="M9102 2130 c0 -14 2 -19 5 -12 2 6 2 18 0 25 -3 6 -5 1 -5 -13z"/>
<path d="M8323 2060 c0 -47 2 -66 4 -42 2 23 2 61 0 85 -2 23 -4 4 -4 -43z"/>
<path d="M6582 2110 c0 -14 2 -19 5 -12 2 6 2 18 0 25 -3 6 -5 1 -5 -13z"/>
<path d="M9523 2095 c0 -22 2 -30 4 -17 2 12 2 30 0 40 -3 9 -5 -1 -4 -23z"/>
<path d="M5363 2085 c0 -22 2 -30 4 -17 2 12 2 30 0 40 -3 9 -5 -1 -4 -23z"/>
<path d="M7882 2100 c0 -14 2 -19 5 -12 2 6 2 18 0 25 -3 6 -5 1 -5 -13z"/>
<path d="M8642 2100 c0 -14 2 -19 5 -12 2 6 2 18 0 25 -3 6 -5 1 -5 -13z"/>
<path d="M4456 2074 c-4 -20 -5 -38 -3 -40 3 -3 8 11 11 32 4 20 5 38 3 40 -3
3 -8 -11 -11 -32z"/>
<path d="M7192 2090 c0 -14 2 -19 5 -12 2 6 2 18 0 25 -3 6 -5 1 -5 -13z"/>
<path d="M7692 2090 c0 -14 2 -19 5 -12 2 6 2 18 0 25 -3 6 -5 1 -5 -13z"/>
<path d="M8452 2090 c0 -14 2 -19 5 -12 2 6 2 18 0 25 -3 6 -5 1 -5 -13z"/>
<path d="M9342 2090 c0 -14 2 -19 5 -12 2 6 2 18 0 25 -3 6 -5 1 -5 -13z"/>
<path d="M6362 2070 c0 -19 2 -27 5 -17 2 9 2 25 0 35 -3 9 -5 1 -5 -18z"/>
<path d="M7382 2080 c0 -14 2 -19 5 -12 2 6 2 18 0 25 -3 6 -5 1 -5 -13z"/>
<path d="M8121 2084 c0 -11 3 -14 6 -6 3 7 2 16 -1 19 -3 4 -6 -2 -5 -13z"/>
<path d="M8902 2080 c0 -14 2 -19 5 -12 2 6 2 18 0 25 -3 6 -5 1 -5 -13z"/>
<path d="M9092 2080 c0 -14 2 -19 5 -12 2 6 2 18 0 25 -3 6 -5 1 -5 -13z"/>
<path d="M6571 2064 c0 -11 3 -14 6 -6 3 7 2 16 -1 19 -3 4 -6 -2 -5 -13z"/>
<path d="M4912 2045 c0 -16 2 -22 5 -12 2 9 2 23 0 30 -3 6 -5 -1 -5 -18z"/>
<path d="M5096 2029 c-4 -23 -5 -44 -2 -46 2 -2 7 14 11 37 4 23 5 43 2 46 -2
3 -7 -14 -11 -37z"/>
<path d="M7682 2040 c0 -14 2 -19 5 -12 2 6 2 18 0 25 -3 6 -5 1 -5 -13z"/>
<path d="M7871 2044 c0 -11 3 -14 6 -6 3 7 2 16 -1 19 -3 4 -6 -2 -5 -13z"/>
<path d="M8442 2040 c0 -14 2 -19 5 -12 2 6 2 18 0 25 -3 6 -5 1 -5 -13z"/>
<path d="M8632 2040 c0 -14 2 -19 5 -12 2 6 2 18 0 25 -3 6 -5 1 -5 -13z"/>
<path d="M6013 2043 c9 -2 25 -2 35 0 9 3 1 5 -18 5 -19 0 -27 -2 -17 -5z"/>
<path d="M7181 2034 c0 -11 3 -14 6 -6 3 7 2 16 -1 19 -3 4 -6 -2 -5 -13z"/>
<path d="M7372 2030 c0 -14 2 -19 5 -12 2 6 2 18 0 25 -3 6 -5 1 -5 -13z"/>
<path d="M8891 2034 c0 -11 3 -14 6 -6 3 7 2 16 -1 19 -3 4 -6 -2 -5 -13z"/>
<path d="M9082 2030 c0 -14 2 -19 5 -12 2 6 2 18 0 25 -3 6 -5 1 -5 -13z"/>
<path d="M9635 1980 c-19 -38 -33 -70 -30 -70 2 0 21 32 40 70 19 39 33 70 30
70 -2 0 -21 -31 -40 -70z"/>
<path d="M5542 2020 c0 -14 2 -19 5 -12 2 6 2 18 0 25 -3 6 -5 1 -5 -13z"/>
<path d="M5948 2033 c6 -2 18 -2 25 0 6 3 1 5 -13 5 -14 0 -19 -2 -12 -5z"/>
<path d="M9352 2020 c0 -14 2 -19 5 -12 2 6 2 18 0 25 -3 6 -5 1 -5 -13z"/>
<path d="M9533 2005 c0 -22 2 -30 4 -17 2 12 2 30 0 40 -3 9 -5 -1 -4 -23z"/>
<path d="M9835 2010 c-9 -16 -13 -30 -11 -30 3 0 12 14 21 30 9 17 13 30 11
30 -3 0 -12 -13 -21 -30z"/>
<path d="M5346 1989 c-4 -23 -5 -44 -2 -46 2 -2 7 14 11 37 4 23 5 43 2 46 -2
3 -7 -14 -11 -37z"/>
<path d="M5908 2023 c7 -3 16 -2 19 1 4 3 -2 6 -13 5 -11 0 -14 -3 -6 -6z"/>
<path d="M6352 2010 c0 -14 2 -19 5 -12 2 6 2 18 0 25 -3 6 -5 1 -5 -13z"/>
<path d="M6561 2014 c0 -11 3 -14 6 -6 3 7 2 16 -1 19 -3 4 -6 -2 -5 -13z"/>
<path d="M4442 2000 c0 -14 2 -19 5 -12 2 6 2 18 0 25 -3 6 -5 1 -5 -13z"/>
<path d="M4631 1994 c0 -11 3 -14 6 -6 3 7 2 16 -1 19 -3 4 -6 -2 -5 -13z"/>
<path d="M4902 1990 c0 -14 2 -19 5 -12 2 6 2 18 0 25 -3 6 -5 1 -5 -13z"/>
<path d="M5797 1980 c-43 -27 -107 -100 -107 -123 0 -5 15 13 33 39 20 31 52
61 87 81 30 18 50 33 44 33 -6 0 -31 -13 -57 -30z"/>
<path d="M7172 1990 c0 -14 2 -19 5 -12 2 6 2 18 0 25 -3 6 -5 1 -5 -13z"/>
<path d="M7672 1990 c0 -14 2 -19 5 -12 2 6 2 18 0 25 -3 6 -5 1 -5 -13z"/>
<path d="M7856 1974 c-4 -20 -5 -38 -3 -40 3 -3 8 11 11 32 4 20 5 38 3 40 -3
3 -8 -11 -11 -32z"/>
<path d="M8122 1980 c0 -19 2 -27 5 -17 2 9 2 25 0 35 -3 9 -5 1 -5 -18z"/>
<path d="M8431 1994 c0 -11 3 -14 6 -6 3 7 2 16 -1 19 -3 4 -6 -2 -5 -13z"/>
<path d="M8616 1974 c-4 -20 -5 -38 -3 -40 3 -3 8 11 11 32 4 20 5 38 3 40 -3
3 -8 -11 -11 -32z"/>
<path d="M8882 1990 c0 -14 2 -19 5 -12 2 6 2 18 0 25 -3 6 -5 1 -5 -13z"/>
<path d="M7362 1980 c0 -14 2 -19 5 -12 2 6 2 18 0 25 -3 6 -5 1 -5 -13z"/>
<path d="M9072 1980 c0 -14 2 -19 5 -12 2 6 2 18 0 25 -3 6 -5 1 -5 -13z"/>
<path d="M5532 1970 c0 -14 2 -19 5 -12 2 6 2 18 0 25 -3 6 -5 1 -5 -13z"/>
<path d="M4241 1964 c0 -11 3 -14 6 -6 3 7 2 16 -1 19 -3 4 -6 -2 -5 -13z"/>
<path d="M6342 1960 c0 -14 2 -19 5 -12 2 6 2 18 0 25 -3 6 -5 1 -5 -13z"/>
<path d="M6552 1960 c0 -14 2 -19 5 -12 2 6 2 18 0 25 -3 6 -5 1 -5 -13z"/>
<path d="M4432 1950 c0 -14 2 -19 5 -12 2 6 2 18 0 25 -3 6 -5 1 -5 -13z"/>
<path d="M4622 1950 c0 -14 2 -19 5 -12 2 6 2 18 0 25 -3 6 -5 1 -5 -13z"/>
<path d="M5082 1950 c0 -14 2 -19 5 -12 2 6 2 18 0 25 -3 6 -5 1 -5 -13z"/>
<path d="M9362 1945 c0 -16 2 -22 5 -12 2 9 2 23 0 30 -3 6 -5 -1 -5 -18z"/>
<path d="M9795 1940 c-9 -16 -13 -30 -11 -30 3 0 12 14 21 30 9 17 13 30 11
30 -3 0 -12 -13 -21 -30z"/>
<path d="M4892 1940 c0 -14 2 -19 5 -12 2 6 2 18 0 25 -3 6 -5 1 -5 -13z"/>
<path d="M7162 1940 c0 -14 2 -19 5 -12 2 6 2 18 0 25 -3 6 -5 1 -5 -13z"/>
<path d="M7661 1944 c0 -11 3 -14 6 -6 3 7 2 16 -1 19 -3 4 -6 -2 -5 -13z"/>
<path d="M8312 1940 c0 -14 2 -19 5 -12 2 6 2 18 0 25 -3 6 -5 1 -5 -13z"/>
<path d="M8421 1944 c0 -11 3 -14 6 -6 3 7 2 16 -1 19 -3 4 -6 -2 -5 -13z"/>
<path d="M8872 1940 c0 -14 2 -19 5 -12 2 6 2 18 0 25 -3 6 -5 1 -5 -13z"/>
<path d="M9543 1925 c0 -22 2 -30 4 -17 2 12 2 30 0 40 -3 9 -5 -1 -4 -23z"/>
<path d="M6732 1930 c0 -14 2 -19 5 -12 2 6 2 18 0 25 -3 6 -5 1 -5 -13z"/>
<path d="M7352 1930 c0 -14 2 -19 5 -12 2 6 2 18 0 25 -3 6 -5 1 -5 -13z"/>
<path d="M9062 1930 c0 -14 2 -19 5 -12 2 6 2 18 0 25 -3 6 -5 1 -5 -13z"/>
<path d="M4253 1880 c0 -36 2 -50 4 -32 2 17 2 47 0 65 -2 17 -4 3 -4 -33z"/>
<path d="M5522 1920 c0 -14 2 -19 5 -12 2 6 2 18 0 25 -3 6 -5 1 -5 -13z"/>
<path d="M6128 1933 c6 -2 18 -2 25 0 6 3 1 5 -13 5 -14 0 -19 -2 -12 -5z"/>
<path d="M8111 1924 c0 -11 3 -14 6 -6 3 7 2 16 -1 19 -3 4 -6 -2 -5 -13z"/>
<path d="M5332 1910 c0 -14 2 -19 5 -12 2 6 2 18 0 25 -3 6 -5 1 -5 -13z"/>
<path d="M6053 1923 c9 -2 23 -2 30 0 6 3 -1 5 -18 5 -16 0 -22 -2 -12 -5z"/>
<path d="M6332 1910 c0 -14 2 -19 5 -12 2 6 2 18 0 25 -3 6 -5 1 -5 -13z"/>
<path d="M6536 1894 c-4 -20 -5 -38 -3 -40 3 -3 8 11 11 32 4 20 5 38 3 40 -3
3 -8 -11 -11 -32z"/>
<path d="M4422 1900 c0 -14 2 -19 5 -12 2 6 2 18 0 25 -3 6 -5 1 -5 -13z"/>
<path d="M4612 1900 c0 -14 2 -19 5 -12 2 6 2 18 0 25 -3 6 -5 1 -5 -13z"/>
<path d="M5072 1900 c0 -14 2 -19 5 -12 2 6 2 18 0 25 -3 6 -5 1 -5 -13z"/>
<path d="M5998 1913 c7 -3 16 -2 19 1 4 3 -2 6 -13 5 -11 0 -14 -3 -6 -6z"/>
<path d="M7652 1900 c0 -14 2 -19 5 -12 2 6 2 18 0 25 -3 6 -5 1 -5 -13z"/>
<path d="M7842 1900 c0 -14 2 -19 5 -12 2 6 2 18 0 25 -3 6 -5 1 -5 -13z"/>
<path d="M8412 1900 c0 -14 2 -19 5 -12 2 6 2 18 0 25 -3 6 -5 1 -5 -13z"/>
<path d="M8602 1900 c0 -14 2 -19 5 -12 2 6 2 18 0 25 -3 6 -5 1 -5 -13z"/>
<path d="M4881 1894 c0 -11 3 -14 6 -6 3 7 2 16 -1 19 -3 4 -6 -2 -5 -13z"/>
<path d="M5929 1893 c-14 -9 -32 -25 -39 -37 -10 -16 -6 -15 16 6 16 15 40 31
54 37 14 5 18 10 10 10 -8 0 -27 -7 -41 -16z"/>
<path d="M6141 1894 c0 -11 3 -14 6 -6 3 7 2 16 -1 19 -3 4 -6 -2 -5 -13z"/>
<path d="M8301 1903 c-1 -6 -4 -20 -7 -30 -5 -17 -5 -17 6 0 6 10 9 23 6 30
-3 9 -5 9 -5 0z"/>
<path d="M8862 1890 c0 -14 2 -19 5 -12 2 6 2 18 0 25 -3 6 -5 1 -5 -13z"/>
<path d="M6722 1880 c0 -14 2 -19 5 -12 2 6 2 18 0 25 -3 6 -5 1 -5 -13z"/>
<path d="M7151 1884 c0 -11 3 -14 6 -6 3 7 2 16 -1 19 -3 4 -6 -2 -5 -13z"/>
<path d="M7336 1864 c-4 -20 -5 -38 -3 -40 3 -3 8 11 11 32 4 20 5 38 3 40 -3
3 -8 -11 -11 -32z"/>
<path d="M8096 1885 c-9 -26 -7 -32 5 -12 6 10 9 21 6 23 -2 3 -7 -2 -11 -11z"/>
<path d="M9052 1880 c0 -14 2 -19 5 -12 2 6 2 18 0 25 -3 6 -5 1 -5 -13z"/>
<path d="M9372 1875 c0 -16 2 -22 5 -12 2 9 2 23 0 30 -3 6 -5 -1 -5 -18z"/>
<path d="M9747 1858 c-35 -61 -51 -95 -40 -83 14 14 76 125 70 125 -3 0 -16
-19 -30 -42z"/>
<path d="M5512 1870 c0 -14 2 -19 5 -12 2 6 2 18 0 25 -3 6 -5 1 -5 -13z"/>
<path d="M4061 1864 c0 -11 3 -14 6 -6 3 7 2 16 -1 19 -3 4 -6 -2 -5 -13z"/>
<path d="M5322 1860 c0 -14 2 -19 5 -12 2 6 2 18 0 25 -3 6 -5 1 -5 -13z"/>
<path d="M6321 1864 c0 -11 3 -14 6 -6 3 7 2 16 -1 19 -3 4 -6 -2 -5 -13z"/>
<path d="M9574 1865 c-4 -8 -10 -12 -15 -9 -5 3 -9 -7 -9 -22 0 -15 2 -25 4
-23 10 11 36 69 31 69 -3 0 -8 -7 -11 -15z"/>
<path d="M4412 1850 c0 -14 2 -19 5 -12 2 6 2 18 0 25 -3 6 -5 1 -5 -13z"/>
<path d="M4602 1850 c0 -14 2 -19 5 -12 2 6 2 18 0 25 -3 6 -5 1 -5 -13z"/>
<path d="M5062 1850 c0 -14 2 -19 5 -12 2 6 2 18 0 25 -3 6 -5 1 -5 -13z"/>
<path d="M6132 1850 c0 -14 2 -19 5 -12 2 6 2 18 0 25 -3 6 -5 1 -5 -13z"/>
<path d="M7642 1850 c0 -14 2 -19 5 -12 2 6 2 18 0 25 -3 6 -5 1 -5 -13z"/>
<path d="M7832 1850 c0 -14 2 -19 5 -12 2 6 2 18 0 25 -3 6 -5 1 -5 -13z"/>
<path d="M8402 1845 c0 -16 2 -22 5 -12 2 9 2 23 0 30 -3 6 -5 -1 -5 -18z"/>
<path d="M4872 1840 c0 -14 2 -19 5 -12 2 6 2 18 0 25 -3 6 -5 1 -5 -13z"/>
<path d="M7142 1840 c0 -14 2 -19 5 -12 2 6 2 18 0 25 -3 6 -5 1 -5 -13z"/>
<path d="M8592 1840 c0 -14 2 -19 5 -12 2 6 2 18 0 25 -3 6 -5 1 -5 -13z"/>
<path d="M8276 1835 c-9 -26 -7 -32 5 -12 6 10 9 21 6 23 -2 3 -7 -2 -11 -11z"/>
<path d="M9042 1830 c0 -14 2 -19 5 -12 2 6 2 18 0 25 -3 6 -5 1 -5 -13z"/>
<path d="M4051 1824 c0 -11 3 -14 6 -6 3 7 2 16 -1 19 -3 4 -6 -2 -5 -13z"/>
<path d="M5502 1820 c0 -14 2 -19 5 -12 2 6 2 18 0 25 -3 6 -5 1 -5 -13z"/>
<path d="M6522 1820 c0 -14 2 -19 5 -12 2 6 2 18 0 25 -3 6 -5 1 -5 -13z"/>
<path d="M6712 1820 c0 -14 2 -19 5 -12 2 6 2 18 0 25 -3 6 -5 1 -5 -13z"/>
<path d="M5312 1810 c0 -14 2 -19 5 -12 2 6 2 18 0 25 -3 6 -5 1 -5 -13z"/>
<path d="M6312 1810 c0 -14 2 -19 5 -12 2 6 2 18 0 25 -3 6 -5 1 -5 -13z"/>
<path d="M8030 1777 c-24 -29 -33 -43 -20 -32 29 23 46 43 61 68 16 27 7 20
-41 -36z"/>
<path d="M8836 1813 c-6 -14 -5 -15 5 -6 7 7 10 15 7 18 -3 3 -9 -2 -12 -12z"/>
<path d="M9382 1810 c0 -14 2 -19 5 -12 2 6 2 18 0 25 -3 6 -5 1 -5 -13z"/>
<path d="M4402 1800 c0 -14 2 -19 5 -12 2 6 2 18 0 25 -3 6 -5 1 -5 -13z"/>
<path d="M4591 1804 c0 -11 3 -14 6 -6 3 7 2 16 -1 19 -3 4 -6 -2 -5 -13z"/>
<path d="M5051 1804 c0 -11 3 -14 6 -6 3 7 2 16 -1 19 -3 4 -6 -2 -5 -13z"/>
<path d="M6120 1803 c0 -9 -21 -36 -46 -61 -26 -24 -38 -39 -27 -33 42 22 104
111 78 111 -3 0 -5 -8 -5 -17z"/>
<path d="M7632 1800 c0 -14 2 -19 5 -12 2 6 2 18 0 25 -3 6 -5 1 -5 -13z"/>
<path d="M7822 1800 c0 -14 2 -19 5 -12 2 6 2 18 0 25 -3 6 -5 1 -5 -13z"/>
<path d="M4241 1794 c0 -11 3 -14 6 -6 3 7 2 16 -1 19 -3 4 -6 -2 -5 -13z"/>
<path d="M4861 1794 c0 -11 3 -14 6 -6 3 7 2 16 -1 19 -3 4 -6 -2 -5 -13z"/>
<path d="M5673 1750 c0 -36 2 -50 4 -32 2 17 2 47 0 65 -2 17 -4 3 -4 -33z"/>
<path d="M7132 1790 c0 -14 2 -19 5 -12 2 6 2 18 0 25 -3 6 -5 1 -5 -13z"/>
<path d="M4010 1762 c-25 -26 -28 -32 -11 -21 21 13 61 60 50 58 -2 0 -20 -17
-39 -37z"/>
<path d="M5861 1772 c-2 -49 44 -92 96 -91 l38 2 -43 6 c-52 9 -73 28 -82 78
l-8 38 -1 -33z"/>
<path d="M7322 1763 c-2 -47 23 -74 68 -72 21 1 20 2 -8 9 -44 10 -50 17 -55
65 l-4 40 -1 -42z"/>
<path d="M8237 1758 c-36 -61 -99 -123 -160 -158 -29 -16 -47 -30 -41 -30 7 0
40 19 73 41 57 38 120 108 150 167 20 38 4 24 -22 -20z"/>
<path d="M8393 1755 c0 -27 2 -38 4 -22 2 15 2 37 0 50 -2 12 -4 0 -4 -28z"/>
<path d="M9032 1780 c0 -14 2 -19 5 -12 2 6 2 18 0 25 -3 6 -5 1 -5 -13z"/>
<path d="M5491 1774 c0 -11 3 -14 6 -6 3 7 2 16 -1 19 -3 4 -6 -2 -5 -13z"/>
<path d="M6702 1770 c0 -14 2 -19 5 -12 2 6 2 18 0 25 -3 6 -5 1 -5 -13z"/>
<path d="M8785 1753 c-22 -19 -31 -31 -20 -25 19 9 74 63 64 62 -2 -1 -22 -17
-44 -37z"/>
<path d="M5042 1760 c0 -14 2 -19 5 -12 2 6 2 18 0 25 -3 6 -5 1 -5 -13z"/>
<path d="M5302 1760 c0 -14 2 -19 5 -12 2 6 2 18 0 25 -3 6 -5 1 -5 -13z"/>
<path d="M6302 1760 c0 -14 2 -19 5 -12 2 6 2 18 0 25 -3 6 -5 1 -5 -13z"/>
<path d="M6511 1764 c0 -11 3 -14 6 -6 3 7 2 16 -1 19 -3 4 -6 -2 -5 -13z"/>
<path d="M3555 1700 c-19 -38 -35 -72 -35 -75 0 -7 97 -55 112 -55 7 0 -12 12
-42 26 -30 14 -56 27 -58 28 -2 2 12 34 30 70 23 47 37 66 48 63 8 -3 24 -8
35 -12 13 -4 12 -1 -5 9 -14 8 -31 15 -37 16 -7 0 -29 -31 -48 -70z"/>
<path d="M4392 1750 c0 -14 2 -19 5 -12 2 6 2 18 0 25 -3 6 -5 1 -5 -13z"/>
<path d="M4581 1754 c0 -11 3 -14 6 -6 3 7 2 16 -1 19 -3 4 -6 -2 -5 -13z"/>
<path d="M4852 1750 c0 -14 2 -19 5 -12 2 6 2 18 0 25 -3 6 -5 1 -5 -13z"/>
<path d="M7616 1734 c-4 -20 -5 -38 -3 -40 3 -3 8 11 11 32 4 20 5 38 3 40 -3
3 -8 -11 -11 -32z"/>
<path d="M7812 1750 c0 -14 2 -19 5 -12 2 6 2 18 0 25 -3 6 -5 1 -5 -13z"/>
<path d="M9392 1740 c0 -14 2 -19 5 -12 2 6 2 18 0 25 -3 6 -5 1 -5 -13z"/>
<path d="M9670 1720 c-11 -22 -18 -40 -15 -40 2 0 14 18 25 40 11 22 18 40 15
40 -2 0 -14 -18 -25 -40z"/>
<path d="M9022 1730 c0 -14 2 -19 5 -12 2 6 2 18 0 25 -3 6 -5 1 -5 -13z"/>
<path d="M3680 1730 c8 -5 22 -9 30 -9 10 0 8 3 -5 9 -27 12 -43 12 -25 0z"/>
<path d="M5482 1720 c0 -14 2 -19 5 -12 2 6 2 18 0 25 -3 6 -5 1 -5 -13z"/>
<path d="M6691 1724 c0 -11 3 -14 6 -6 3 7 2 16 -1 19 -3 4 -6 -2 -5 -13z"/>
<path d="M7122 1710 c0 -19 2 -27 5 -17 2 9 2 25 0 35 -3 9 -5 1 -5 -18z"/>
<path d="M8619 1721 c24 -22 84 -28 110 -12 8 5 -4 7 -32 4 -33 -4 -54 -1 -74
11 l-28 17 24 -20z"/>
<path d="M4572 1710 c0 -14 2 -19 5 -12 2 6 2 18 0 25 -3 6 -5 1 -5 -13z"/>
<path d="M5292 1710 c0 -14 2 -19 5 -12 2 6 2 18 0 25 -3 6 -5 1 -5 -13z"/>
<path d="M6292 1710 c0 -14 2 -19 5 -12 2 6 2 18 0 25 -3 6 -5 1 -5 -13z"/>
<path d="M6501 1714 c0 -11 3 -14 6 -6 3 7 2 16 -1 19 -3 4 -6 -2 -5 -13z"/>
<path d="M3738 1713 c6 -2 18 -2 25 0 6 3 1 5 -13 5 -14 0 -19 -2 -12 -5z"/>
<path d="M3918 1713 c7 -3 16 -2 19 1 4 3 -2 6 -13 5 -11 0 -14 -3 -6 -6z"/>
<path d="M4158 1659 c-31 -32 -49 -55 -39 -50 18 10 101 97 101 106 0 8 -1 7
-62 -56z"/>
<path d="M4376 1684 c-4 -20 -5 -38 -3 -40 3 -3 8 11 11 32 4 20 5 38 3 40 -3
3 -8 -11 -11 -32z"/>
<path d="M4842 1700 c0 -14 2 -19 5 -12 2 6 2 18 0 25 -3 6 -5 1 -5 -13z"/>
<path d="M5031 1704 c0 -11 3 -14 6 -6 3 7 2 16 -1 19 -3 4 -6 -2 -5 -13z"/>
<path d="M7463 1670 c0 -30 2 -43 4 -27 2 15 2 39 0 55 -2 15 -4 2 -4 -28z"/>
<path d="M7800 1709 c0 -5 9 -9 20 -9 11 0 20 2 20 4 0 2 -9 6 -20 9 -11 3
-20 1 -20 -4z"/>
<path d="M7920 1710 c-21 -7 -21 -8 -5 -9 11 0 27 4 35 9 18 11 5 11 -30 0z"/>
<path d="M3808 1703 c17 -2 47 -2 65 0 17 2 3 4 -33 4 -36 0 -50 -2 -32 -4z"/>
<path d="M7428 1703 c7 -3 16 -2 19 1 4 3 -2 6 -13 5 -11 0 -14 -3 -6 -6z"/>
<path d="M9012 1680 c0 -14 2 -19 5 -12 2 6 2 18 0 25 -3 6 -5 1 -5 -13z"/>
<path d="M5472 1670 c0 -14 2 -19 5 -12 2 6 2 18 0 25 -3 6 -5 1 -5 -13z"/>
<path d="M6492 1670 c0 -14 2 -19 5 -12 2 6 2 18 0 25 -3 6 -5 1 -5 -13z"/>
<path d="M6681 1674 c0 -11 3 -14 6 -6 3 7 2 16 -1 19 -3 4 -6 -2 -5 -13z"/>
<path d="M8400 1682 c0 -29 42 -92 75 -112 20 -12 38 -20 40 -18 2 2 -11 12
-30 22 -23 13 -43 36 -60 69 -14 28 -25 45 -25 39z"/>
<path d="M9402 1665 c0 -16 2 -22 5 -12 2 9 2 23 0 30 -3 6 -5 -1 -5 -18z"/>
<path d="M4561 1664 c0 -11 3 -14 6 -6 3 7 2 16 -1 19 -3 4 -6 -2 -5 -13z"/>
<path d="M5022 1660 c0 -14 2 -19 5 -12 2 6 2 18 0 25 -3 6 -5 1 -5 -13z"/>
<path d="M5282 1660 c0 -14 2 -19 5 -12 2 6 2 18 0 25 -3 6 -5 1 -5 -13z"/>
<path d="M5680 1669 c0 -25 70 -108 93 -109 4 0 -9 15 -29 32 -20 18 -43 46
-50 63 -7 16 -13 23 -14 14z"/>
<path d="M7602 1660 c0 -14 2 -19 5 -12 2 6 2 18 0 25 -3 6 -5 1 -5 -13z"/>
<path d="M4832 1650 c0 -14 2 -19 5 -12 2 6 2 18 0 25 -3 6 -5 1 -5 -13z"/>
<path d="M6280 1620 l0 -50 -80 0 -80 0 -1 33 c-1 17 -1 35 0 40 2 13 -16 7
-30 -10 -8 -9 -34 -29 -58 -45 -25 -15 -40 -28 -34 -28 6 0 32 16 57 35 26 19
48 35 51 35 3 0 5 -16 5 -35 l0 -35 90 0 90 0 0 55 c0 30 -2 55 -5 55 -3 0 -5
-22 -5 -50z"/>
<path d="M9620 1630 c-11 -22 -18 -40 -15 -40 2 0 14 18 25 40 11 22 18 40 15
40 -2 0 -14 -18 -25 -40z"/>
<path d="M8799 1632 c-19 -16 -50 -39 -69 -51 -19 -11 -30 -21 -24 -21 7 0 36
18 65 40 29 22 58 41 64 43 5 3 7 7 4 11 -4 4 -22 -6 -40 -22z"/>
<path d="M9002 1630 c0 -14 2 -19 5 -12 2 6 2 18 0 25 -3 6 -5 1 -5 -13z"/>
<path d="M5462 1620 c0 -14 2 -19 5 -12 2 6 2 18 0 25 -3 6 -5 1 -5 -13z"/>
<path d="M6482 1620 c0 -14 2 -19 5 -12 2 6 2 18 0 25 -3 6 -5 1 -5 -13z"/>
<path d="M6672 1620 c0 -14 2 -19 5 -12 2 6 2 18 0 25 -3 6 -5 1 -5 -13z"/>
<path d="M4362 1610 c0 -14 2 -19 5 -12 2 6 2 18 0 25 -3 6 -5 1 -5 -13z"/>
<path d="M4552 1610 c0 -14 2 -19 5 -12 2 6 2 18 0 25 -3 6 -5 1 -5 -13z"/>
<path d="M5012 1610 c0 -14 2 -19 5 -12 2 6 2 18 0 25 -3 6 -5 1 -5 -13z"/>
<path d="M5272 1610 c0 -14 2 -19 5 -12 2 6 2 18 0 25 -3 6 -5 1 -5 -13z"/>
<path d="M7152 1610 c25 -44 92 -70 173 -68 l70 1 -80 7 c-87 7 -118 18 -154
58 -24 27 -24 27 -9 2z"/>
<path d="M7590 1605 c0 -14 4 -25 9 -25 4 0 6 11 3 25 -2 14 -6 25 -8 25 -2 0
-4 -11 -4 -25z"/>
<path d="M4822 1600 c0 -14 2 -19 5 -12 2 6 2 18 0 25 -3 6 -5 1 -5 -13z"/>
<path d="M9411 1601 c-1 -33 -74 -154 -107 -180 -15 -12 -22 -21 -16 -21 31 0
136 165 129 202 -4 22 -4 22 -6 -1z"/>
<path d="M7451 1588 c-1 -9 -13 -21 -28 -26 -16 -6 -21 -11 -12 -11 23 -1 52
24 46 40 -4 11 -6 10 -6 -3z"/>
<path d="M5450 1581 c0 -9 -24 -12 -94 -9 -52 2 -92 0 -89 -4 7 -12 181 -9
188 3 4 6 4 13 1 16 -3 4 -6 1 -6 -6z"/>
<path d="M6474 1578 c2 -9 28 -13 96 -13 68 0 94 4 96 13 1 7 0 8 -3 2 -2 -6
-43 -10 -93 -10 -50 0 -91 4 -93 10 -3 6 -4 5 -3 -2z"/>
<path d="M8990 1582 c0 -8 -26 -13 -77 -14 l-78 -2 74 -3 c69 -4 105 6 88 24
-4 3 -7 1 -7 -5z"/>
<path d="M4357 1568 c2 -5 47 -8 99 -8 52 0 94 3 94 8 0 4 -45 7 -99 7 -55 0
-97 -3 -94 -7z"/>
<path d="M4910 1570 l-95 -6 98 -2 c59 -1 97 2 97 8 0 6 -1 9 -2 8 -2 -1 -46
-5 -98 -8z"/>
<path d="M9561 1523 c-17 -32 -42 -78 -56 -103 -17 -29 -19 -36 -6 -20 23 29
105 180 97 180 -3 0 -19 -26 -35 -57z"/>
<path d="M7658 1563 c6 -2 18 -2 25 0 6 3 1 5 -13 5 -14 0 -19 -2 -12 -5z"/>
<path d="M3688 1553 c6 -2 18 -2 25 0 6 3 1 5 -13 5 -14 0 -19 -2 -12 -5z"/>
<path d="M3958 1553 c6 -2 18 -2 25 0 6 3 1 5 -13 5 -14 0 -19 -2 -12 -5z"/>
<path d="M7708 1553 c6 -2 18 -2 25 0 6 3 1 5 -13 5 -14 0 -19 -2 -12 -5z"/>
<path d="M7968 1553 c7 -3 16 -2 19 1 4 3 -2 6 -13 5 -11 0 -14 -3 -6 -6z"/>
<path d="M3783 1543 c32 -2 81 -2 110 0 29 2 3 3 -58 3 -60 0 -84 -1 -52 -3z"/>
<path d="M5847 1543 c18 -2 50 -2 70 0 21 2 7 4 -32 4 -38 0 -55 -2 -38 -4z"/>
<path d="M7808 1543 c29 -2 74 -2 100 0 26 2 2 3 -53 3 -55 0 -76 -1 -47 -3z"/>
<path d="M8543 1543 c9 -2 23 -2 30 0 6 3 -1 5 -18 5 -16 0 -22 -2 -12 -5z"/>
<path d="M8613 1543 c9 -2 25 -2 35 0 9 3 1 5 -18 5 -19 0 -27 -2 -17 -5z"/>
<path d="M9170 1395 c0 -8 2 -15 4 -15 2 0 6 7 10 15 3 8 1 15 -4 15 -6 0 -10
-7 -10 -15z"/>
<path d="M9218 1393 c12 -2 30 -2 40 0 9 3 -1 5 -23 4 -22 0 -30 -2 -17 -4z"/>
<path d="M9417 1315 c-64 -61 -69 -70 -13 -26 32 26 84 82 74 81 -2 -1 -29
-25 -61 -55z"/>
<path d="M9162 1330 c0 -14 2 -19 5 -12 2 6 2 18 0 25 -3 6 -5 1 -5 -13z"/>
<path d="M9153 1266 c1 -11 9 -21 17 -23 10 -3 11 -2 4 4 -6 4 -14 15 -17 23
-5 11 -6 9 -4 -4z"/>
<path d="M9315 1250 c-13 -6 -15 -9 -5 -9 8 0 22 4 30 9 18 12 2 12 -25 0z"/>
<path d="M9218 1233 c12 -2 32 -2 45 0 12 2 2 4 -23 4 -25 0 -35 -2 -22 -4z"/>
<path d="M300 690 l0 -280 255 0 255 0 0 280 0 280 -255 0 -255 0 0 -280z
m500 0 l0 -270 -245 0 -245 0 0 270 0 270 245 0 245 0 0 -270z"/>
<path d="M3545 535 c-14 -13 -25 -30 -25 -37 1 -7 7 -2 15 12 7 14 26 30 42
37 19 8 22 12 10 13 -10 0 -29 -11 -42 -25z"/>
<path d="M3659 549 c14 -5 30 -13 36 -17 6 -4 2 1 -8 11 -11 9 -27 17 -36 16
-10 0 -7 -4 8 -10z"/>
<path d="M5718 553 c18 -2 45 -2 60 0 15 2 0 4 -33 4 -33 0 -45 -2 -27 -4z"/>
<path d="M7294 547 c-2 -7 -3 -105 -2 -217 l3 -205 78 -3 c75 -3 79 -2 107 27
17 17 30 39 29 53 -1 19 -3 17 -10 -9 -14 -49 -42 -63 -126 -63 l-73 0 0 210
0 209 58 4 57 3 -58 2 c-39 1 -59 -2 -63 -11z"/>
<path d="M7890 340 l0 -220 25 0 25 0 -2 158 -2 157 -3 -152 c-3 -127 -6 -153
-18 -153 -13 0 -15 32 -15 210 0 176 2 210 14 210 11 0 16 -14 19 -47 l3 -48
2 53 c2 49 1 52 -23 52 l-25 0 0 -220z"/>
<path d="M8124 546 c-3 -7 -3 -42 -1 -77 l3 -64 2 72 c2 66 4 72 25 76 l22 4
-23 2 c-12 0 -25 -5 -28 -13z"/>
<path d="M8887 553 c-4 -3 -7 -102 -7 -220 l0 -213 28 1 c23 2 24 2 5 6 -23 4
-23 5 -23 214 l0 211 75 -4 c41 -2 75 0 75 5 0 9 -144 10 -153 0z"/>
<path d="M5845 538 c11 -6 26 -18 33 -26 6 -9 12 -11 12 -4 0 12 -39 42 -55
42 -5 0 -1 -6 10 -12z"/>
<path d="M7460 536 c0 -2 8 -10 18 -17 15 -13 16 -12 3 4 -13 16 -21 21 -21
13z"/>
<path d="M4874 516 c-3 -8 -4 -31 -1 -52 3 -38 4 -37 5 8 2 40 5 47 25 51 l22
4 -23 2 c-12 0 -25 -5 -28 -13z"/>
<path d="M5014 515 c-10 -24 4 -45 28 -44 l23 2 -22 4 c-14 3 -23 12 -23 23 0
11 9 20 23 23 l22 4 -23 2 c-12 0 -25 -6 -28 -14z"/>
<path d="M7780 500 c0 -25 4 -30 25 -30 21 0 25 5 25 30 0 25 -4 30 -25 30
-21 0 -25 -5 -25 -30z m40 0 c0 -11 -7 -20 -15 -20 -8 0 -15 9 -15 20 0 11 7
20 15 20 8 0 15 -9 15 -20z"/>
<path d="M8230 500 c0 -25 4 -30 25 -30 21 0 25 5 25 30 0 25 -4 30 -25 30
-21 0 -25 -5 -25 -30z m40 0 c0 -11 -7 -20 -15 -20 -8 0 -15 9 -15 20 0 11 7
20 15 20 8 0 15 -9 15 -20z"/>
<path d="M9312 478 l2 -53 3 48 c3 32 9 47 18 47 9 0 15 -15 18 -47 l3 -48 2
53 c2 49 1 52 -23 52 -24 0 -25 -3 -23 -52z"/>
<path d="M3570 505 c-6 -8 -10 -19 -8 -24 1 -6 8 1 15 14 13 28 11 31 -7 10z"/>
<path d="M3661 503 c7 -12 15 -20 18 -17 3 2 -3 12 -13 22 -17 16 -18 16 -5
-5z"/>
<path d="M5732 338 l3 -183 30 -1 c28 -1 28 -1 3 3 l-28 4 0 175 0 174 39 0
c23 0 46 -7 55 -16 9 -8 16 -11 16 -5 0 17 -36 31 -80 31 l-40 0 2 -182z"/>
<path d="M7342 443 l2 -78 3 72 4 72 37 4 37 4 -42 1 -43 2 2 -77z"/>
<path d="M7491 484 c0 -11 3 -14 6 -6 3 7 2 16 -1 19 -3 4 -6 -2 -5 -13z"/>
<path d="M3514 340 c0 -80 2 -112 3 -72 2 39 2 105 0 145 -1 39 -3 7 -3 -73z"/>
<path d="M3723 445 c0 -22 2 -30 4 -17 2 12 2 30 0 40 -3 9 -5 -1 -4 -23z"/>
<path d="M7453 445 c0 -22 2 -30 4 -17 2 12 2 30 0 40 -3 9 -5 -1 -4 -23z"/>
<path d="M5852 338 c-2 -123 -4 -140 -22 -158 -11 -11 -16 -20 -10 -20 5 0 17
11 25 24 13 19 15 49 12 157 l-3 134 -2 -137z"/>
<path d="M3682 430 c0 -14 2 -19 5 -12 2 6 2 18 0 25 -3 6 -5 1 -5 -13z"/>
<path d="M5904 340 c0 -63 1 -89 3 -57 2 31 2 83 0 115 -2 31 -3 5 -3 -58z"/>
<path d="M3860 430 c19 -5 43 -18 52 -30 10 -12 18 -18 18 -12 0 19 -52 52
-79 51 -22 -1 -21 -2 9 -9z"/>
<path d="M4098 433 c7 -3 16 -2 19 1 4 3 -2 6 -13 5 -11 0 -14 -3 -6 -6z"/>
<path d="M4318 433 c7 -3 16 -2 19 1 4 3 -2 6 -13 5 -11 0 -14 -3 -6 -6z"/>
<path d="M4508 433 c7 -3 16 -2 19 1 4 3 -2 6 -13 5 -11 0 -14 -3 -6 -6z"/>
<path d="M4718 433 c6 -2 18 -2 25 0 6 3 1 5 -13 5 -14 0 -19 -2 -12 -5z"/>
<path d="M5228 433 c7 -3 16 -2 19 1 4 3 -2 6 -13 5 -11 0 -14 -3 -6 -6z"/>
<path d="M5427 430 c18 -4 40 -13 48 -20 13 -11 19 -10 33 5 16 18 16 18 0 6
-14 -10 -21 -10 -40 3 -12 9 -34 16 -48 15 -22 -1 -21 -2 7 -9z"/>
<path d="M6033 425 c-16 -12 -22 -12 -26 -2 -3 6 -6 2 -6 -11 l-1 -23 29 22
c16 12 34 18 40 15 6 -4 11 -2 11 3 0 16 -22 13 -47 -4z"/>
<path d="M6188 433 c7 -3 16 -2 19 1 4 3 -2 6 -13 5 -11 0 -14 -3 -6 -6z"/>
<path d="M6393 433 c9 -2 23 -2 30 0 6 3 -1 5 -18 5 -16 0 -22 -2 -12 -5z"/>
<path d="M6631 436 c2 -2 18 -6 34 -10 22 -5 26 -4 15 4 -14 9 -59 15 -49 6z"/>
<path d="M6758 433 c6 -2 18 -2 25 0 6 3 1 5 -13 5 -14 0 -19 -2 -12 -5z"/>
<path d="M6948 433 c7 -3 16 -2 19 1 4 3 -2 6 -13 5 -11 0 -14 -3 -6 -6z"/>
<path d="M8068 433 c7 -3 16 -2 19 1 4 3 -2 6 -13 5 -11 0 -14 -3 -6 -6z"/>
<path d="M8455 430 c27 -12 43 -12 25 0 -8 5 -22 9 -30 9 -10 0 -8 -3 5 -9z"/>
<path d="M8628 433 c6 -2 18 -2 25 0 6 3 1 5 -13 5 -14 0 -19 -2 -12 -5z"/>
<path d="M9747 429 c-9 -5 -21 -8 -26 -5 -5 4 -7 -3 -4 -13 5 -19 5 -19 24 0
25 25 49 24 49 -1 0 -14 -7 -20 -23 -20 -41 0 -47 -17 -47 -141 0 -110 -1
-118 -20 -122 -17 -4 -16 -4 2 -3 22 1 23 5 28 126 l5 125 30 5 c24 4 30 10
30 30 0 27 -20 36 -48 19z"/>
<path d="M9888 433 c7 -3 16 -2 19 1 4 3 -2 6 -13 5 -11 0 -14 -3 -6 -6z"/>
<path d="M10098 433 c7 -3 16 -2 19 1 4 3 -2 6 -13 5 -11 0 -14 -3 -6 -6z"/>
<path d="M3554 340 c0 -52 1 -74 3 -47 2 26 2 68 0 95 -2 26 -3 4 -3 -48z"/>
<path d="M3992 278 l-2 -158 25 0 25 0 -2 128 -2 127 -3 -122 c-3 -99 -6 -123
-18 -123 -12 0 -15 28 -18 153 l-3 152 -2 -157z"/>
<path d="M4026 415 c4 -8 9 -15 13 -15 11 1 45 30 35 30 -6 0 -15 -5 -22 -12
-9 -9 -12 -9 -12 0 0 7 -4 12 -10 12 -5 0 -7 -7 -4 -15z"/>
<path d="M4139 413 c6 -12 11 -80 11 -152 0 -109 -3 -131 -15 -131 -12 0 -15
23 -18 128 l-3 127 -2 -132 -2 -133 25 0 25 0 0 138 c0 110 -3 142 -16 158
-15 18 -15 18 -5 -3z"/>
<path d="M4212 278 l-2 -158 25 0 25 0 0 123 c0 130 5 147 47 147 23 0 23 -1
23 -135 l0 -135 28 1 c23 2 23 2 5 6 -22 4 -23 9 -25 136 -3 130 -3 132 -26
135 -13 2 -32 -4 -43 -14 -17 -15 -19 -31 -19 -136 0 -97 -3 -118 -15 -118
-12 0 -15 26 -18 153 l-3 152 -2 -157z"/>
<path d="M4250 413 c0 -16 10 -16 33 1 17 13 16 14 -7 12 -15 0 -26 -7 -26
-13z"/>
<path d="M4455 410 c-26 -28 -15 -31 12 -3 12 13 19 23 14 23 -4 0 -16 -9 -26
-20z"/>
<path d="M4563 407 c12 -13 24 -22 26 -20 6 4 -30 43 -40 43 -5 0 2 -10 14
-23z"/>
<path d="M4675 420 c-3 -6 1 -7 9 -4 18 7 21 14 7 14 -6 0 -13 -4 -16 -10z"/>
<path d="M4761 427 c2 -1 13 -9 24 -17 19 -14 19 -14 6 3 -7 9 -18 17 -24 17
-6 0 -8 -1 -6 -3z"/>
<path d="M4841 414 c0 -11 3 -14 6 -6 3 7 2 16 -1 19 -3 4 -6 -2 -5 -13z"/>
<path d="M4963 415 c0 -8 4 -12 9 -9 5 3 6 10 3 15 -9 13 -12 11 -12 -6z"/>
<path d="M5012 278 c3 -145 4 -153 23 -154 16 -1 17 0 2 3 -16 4 -18 17 -15
154 2 82 0 149 -5 149 -4 0 -6 -69 -5 -152z"/>
<path d="M5122 278 l-2 -158 24 0 25 0 3 134 c2 74 0 132 -4 129 -5 -2 -8 -60
-8 -129 0 -103 -3 -124 -15 -124 -12 0 -15 26 -18 153 l-3 152 -2 -157z"/>
<path d="M5157 414 c4 -11 10 -11 26 -2 12 6 23 12 25 13 1 1 -11 2 -27 2 -20
0 -28 -4 -24 -13z"/>
<path d="M5266 417 c3 -10 9 -15 12 -12 3 3 0 11 -7 18 -10 9 -11 8 -5 -6z"/>
<path d="M5536 415 c-3 -8 -1 -15 4 -15 6 0 10 7 10 15 0 8 -2 15 -4 15 -2 0
-6 -7 -10 -15z"/>
<path d="M5962 278 l-2 -158 25 0 25 0 0 118 c0 125 6 142 47 142 13 0 23 4
23 9 0 13 -41 1 -62 -17 -15 -13 -18 -33 -18 -129 0 -93 -3 -113 -15 -113 -12
0 -15 26 -18 153 l-3 152 -2 -157z"/>
<path d="M6135 410 c-10 -11 -16 -22 -14 -24 2 -2 12 7 22 20 22 29 17 32 -8
4z"/>
<path d="M6246 408 c10 -14 21 -24 23 -22 3 3 -6 15 -18 27 l-24 22 19 -27z"/>
<path d="M6344 408 l-19 -23 23 19 c12 11 22 21 22 23 0 8 -8 2 -26 -19z"/>
<path d="M6456 408 c10 -14 21 -24 23 -22 3 3 -6 15 -18 27 l-24 22 19 -27z"/>
<path d="M6577 412 c4 -10 9 -10 22 0 9 7 17 13 19 14 2 1 -8 1 -21 0 -15 0
-23 -6 -20 -14z"/>
<path d="M6811 413 c7 -12 15 -20 18 -17 3 2 -3 12 -13 22 -17 16 -18 16 -5
-5z"/>
<path d="M6896 411 c-10 -11 -16 -26 -13 -33 4 -9 6 -7 6 4 1 9 11 24 23 32
12 9 18 16 12 16 -6 0 -19 -9 -28 -19z"/>
<path d="M7003 407 c12 -13 24 -22 26 -20 6 4 -30 43 -40 43 -5 0 2 -10 14
-23z"/>
<path d="M7491 414 c0 -11 3 -14 6 -6 3 7 2 16 -1 19 -3 4 -6 -2 -5 -13z"/>
<path d="M7554 295 c0 -77 2 -107 3 -67 2 40 2 103 0 140 -2 37 -3 4 -3 -73z"/>
<path d="M7594 310 c0 -69 1 -97 3 -63 2 35 2 91 0 126 -2 34 -3 6 -3 -63z"/>
<path d="M7675 418 c-8 -22 -10 -257 -3 -250 6 7 16 262 10 262 -1 0 -5 -6 -7
-12z"/>
<path d="M7780 275 l0 -155 25 0 25 0 0 155 c0 85 -3 155 -7 155 -5 0 -7 -67
-5 -150 3 -132 1 -150 -13 -150 -14 0 -16 18 -13 150 2 83 0 150 -4 150 -5 0
-8 -70 -8 -155z"/>
<path d="M8020 410 c-6 -11 -9 -20 -8 -20 2 0 11 9 21 20 9 11 13 20 7 20 -5
0 -14 -9 -20 -20z"/>
<path d="M8232 278 l-2 -158 25 0 25 0 -2 158 -2 157 -3 -152 c-3 -126 -6
-153 -18 -153 -12 0 -15 27 -18 153 l-3 152 -2 -157z"/>
<path d="M8377 415 c3 -8 9 -12 14 -9 12 7 11 11 -5 17 -10 4 -13 1 -9 -8z"/>
<path d="M8579 413 c-13 -17 -13 -17 6 -3 11 8 22 16 24 17 2 2 0 3 -6 3 -6 0
-17 -8 -24 -17z"/>
<path d="M8689 414 c21 -15 24 -15 39 0 9 9 11 16 5 16 -6 0 -13 -6 -16 -12
-4 -10 -7 -10 -18 0 -7 6 -18 12 -23 12 -6 0 0 -7 13 -16z"/>
<path d="M9072 303 c2 -131 6 -116 10 40 2 48 0 87 -4 87 -5 0 -7 -57 -6 -127z"/>
<path d="M9202 309 c-2 -138 -9 -156 -57 -147 -13 3 -22 1 -19 -3 9 -16 50
-10 68 10 14 15 16 37 13 142 l-3 124 -2 -126z"/>
<path d="M9240 280 c0 -123 -3 -150 -14 -150 -8 0 -16 5 -18 12 -3 8 -11 7
-28 -5 -14 -9 -20 -17 -14 -17 5 0 15 5 22 12 9 9 12 9 12 0 0 -7 11 -12 25
-12 l25 0 0 155 c0 85 -2 155 -5 155 -3 0 -5 -67 -5 -150z"/>
<path d="M9281 418 c0 -9 6 -21 14 -25 11 -6 15 -35 18 -123 l3 -115 2 123 c2
100 -1 122 -12 122 -8 0 -17 8 -19 18 -4 15 -5 15 -6 0z"/>
<path d="M9490 292 c5 -132 6 -137 27 -140 12 -2 31 2 42 8 20 10 21 19 19
143 l-2 132 -3 -124 c-2 -71 -8 -130 -15 -138 -6 -7 -21 -13 -34 -13 l-24 0 0
129 c0 72 -3 132 -7 134 -5 3 -6 -56 -3 -131z"/>
<path d="M9610 280 c0 -123 -3 -150 -14 -150 -8 0 -17 6 -19 13 -3 7 -6 5 -6
-5 -1 -13 7 -18 24 -18 l25 0 0 155 c0 85 -2 155 -5 155 -3 0 -5 -67 -5 -150z"/>
<path d="M9845 410 c-10 -11 -16 -22 -14 -24 2 -2 12 7 22 20 22 29 17 32 -8
4z"/>
<path d="M9956 408 c10 -14 21 -24 23 -22 3 3 -6 15 -18 27 l-24 22 19 -27z"/>
<path d="M10046 411 c-10 -11 -16 -26 -13 -33 4 -9 6 -7 6 4 1 9 11 24 23 32
12 9 18 16 12 16 -6 0 -19 -9 -28 -19z"/>
<path d="M10131 427 c2 -1 13 -9 24 -17 19 -14 19 -14 6 3 -7 9 -18 17 -24 17
-6 0 -8 -1 -6 -3z"/>
<path d="M3786 403 c-6 -14 -5 -15 5 -6 7 7 10 15 7 18 -3 3 -9 -2 -12 -12z"/>
<path d="M5430 397 c13 -7 27 -23 31 -37 6 -22 7 -22 8 -4 1 23 -28 54 -50 54
-8 0 -3 -6 11 -13z"/>
<path d="M3872 386 c7 -8 15 -12 17 -11 5 6 -10 25 -20 25 -5 0 -4 -6 3 -14z"/>
<path d="M4056 392 c-3 -5 8 -6 25 -4 16 2 29 6 29 8 0 8 -49 4 -54 -4z"/>
<path d="M4371 384 c0 -11 3 -14 6 -6 3 7 2 16 -1 19 -3 4 -6 -2 -5 -13z"/>
<path d="M4485 389 c-11 -16 -1 -19 13 -3 7 8 8 14 3 14 -5 0 -13 -5 -16 -11z"/>
<path d="M4874 285 c0 -66 1 -92 3 -57 2 34 2 88 0 120 -2 31 -3 3 -3 -63z"/>
<path d="M5210 391 c25 -7 25 -8 28 -139 l3 -132 24 0 25 0 -2 138 -2 137 -3
-132 c-3 -109 -6 -133 -18 -133 -12 0 -15 21 -15 119 0 66 -3 126 -6 135 -4
10 -17 16 -33 15 l-26 -1 25 -7z"/>
<path d="M5343 385 c-3 -9 -3 -18 -1 -21 3 -3 8 4 11 16 6 23 -1 27 -10 5z"/>
<path d="M5504 386 c-3 -8 -4 -25 -2 -38 3 -17 5 -13 9 15 5 38 2 47 -7 23z"/>
<path d="M6165 389 c-11 -16 -1 -19 13 -3 7 8 8 14 3 14 -5 0 -13 -5 -16 -11z"/>
<path d="M6200 396 c0 -2 7 -7 16 -10 8 -3 12 -2 9 4 -6 10 -25 14 -25 6z"/>
<path d="M6416 393 c6 -4 14 -15 17 -23 5 -11 6 -9 4 4 -1 11 -9 21 -17 23
-10 3 -11 2 -4 -4z"/>
<path d="M6589 383 c-13 -17 -13 -17 6 -3 11 8 22 16 24 17 2 2 0 3 -6 3 -6 0
-17 -8 -24 -17z"/>
<path d="M6715 390 c-3 -6 1 -7 9 -4 18 7 21 14 7 14 -6 0 -13 -4 -16 -10z"/>
<path d="M6776 387 c3 -10 9 -15 12 -12 3 3 0 11 -7 18 -10 9 -11 8 -5 -6z"/>
<path d="M6925 390 c-3 -6 1 -7 9 -4 18 7 21 14 7 14 -6 0 -13 -4 -16 -10z"/>
<path d="M6978 382 c9 -10 19 -17 21 -16 6 5 -20 34 -30 34 -5 0 -1 -8 9 -18z"/>
<path d="M7426 385 c-11 -8 -15 -15 -9 -15 6 0 16 7 23 15 16 19 11 19 -14 0z"/>
<path d="M8057 392 c-3 -4 9 -7 26 -7 l32 0 6 -115 5 -115 2 111 c1 75 -2 114
-10 122 -13 13 -54 16 -61 4z"/>
<path d="M8605 389 c-4 -6 -5 -12 -2 -15 2 -3 7 2 10 11 7 17 1 20 -8 4z"/>
<path d="M8719 383 c-13 -16 -12 -17 4 -4 16 13 21 21 13 21 -2 0 -10 -8 -17
-17z"/>
<path d="M9353 335 c0 -38 2 -53 4 -32 2 20 2 52 0 70 -2 17 -4 1 -4 -38z"/>
<path d="M10120 396 c0 -2 8 -10 18 -17 15 -13 16 -12 3 4 -13 16 -21 21 -21
13z"/>
<path d="M4801 374 c0 -11 3 -14 6 -6 3 7 2 16 -1 19 -3 4 -6 -2 -5 -13z"/>
<path d="M7464 371 c-22 -17 -22 -18 -2 -30 11 -7 26 -26 33 -44 8 -18 14 -24
15 -15 0 9 -11 30 -25 46 -22 27 -23 30 -7 45 22 22 13 21 -14 -2z"/>
<path d="M8387 383 c-4 -3 -7 -62 -7 -129 0 -119 -1 -123 -22 -127 -20 -4 -20
-4 4 -6 l27 -1 3 135 c2 74 3 135 2 135 0 0 -4 -3 -7 -7z"/>
<path d="M8500 260 c0 -108 -3 -130 -15 -130 -12 0 -15 23 -18 123 l-3 122 -2
-127 -2 -128 25 0 25 0 0 135 c0 74 -2 135 -5 135 -3 0 -5 -58 -5 -130z"/>
<path d="M3771 364 c0 -11 3 -14 6 -6 3 7 2 16 -1 19 -3 4 -6 -2 -5 -13z"/>
<path d="M6322 360 c0 -14 2 -19 5 -12 2 6 2 18 0 25 -3 6 -5 1 -5 -13z"/>
<path d="M6662 253 l-2 -133 25 0 25 0 -2 128 -2 127 -3 -122 c-3 -99 -6 -123
-18 -123 -12 0 -15 25 -18 128 l-3 127 -2 -132z"/>
<path d="M8001 364 c0 -11 3 -14 6 -6 3 7 2 16 -1 19 -3 4 -6 -2 -5 -13z"/>
<path d="M3812 274 c-2 -86 1 -104 16 -115 15 -12 16 -12 5 2 -7 9 -14 57 -16
115 l-3 99 -2 -101z"/>
<path d="M3934 275 c0 -55 1 -76 3 -47 2 29 2 74 0 100 -2 26 -3 2 -3 -53z"/>
<path d="M4550 340 c0 -28 -3 -30 -34 -30 -30 0 -35 4 -39 28 -4 25 -4 25 -6
-5 -1 -33 0 -33 44 -33 45 0 45 0 45 35 0 19 -2 35 -5 35 -3 0 -5 -13 -5 -30z"/>
<path d="M4590 325 l0 -45 -60 0 -60 0 2 -42 1 -43 4 38 4 37 60 0 59 0 0 50
c0 28 -2 50 -5 50 -3 0 -5 -20 -5 -45z"/>
<path d="M4692 274 c-2 -86 1 -104 16 -115 15 -12 16 -12 5 2 -7 9 -14 57 -16
115 l-3 99 -2 -101z"/>
<path d="M6114 280 c0 -52 1 -74 3 -47 2 26 2 68 0 95 -2 26 -3 4 -3 -48z"/>
<path d="M6230 340 c0 -28 -3 -30 -34 -30 -28 0 -35 4 -39 23 -4 19 -4 18 -6
-5 -1 -27 1 -28 44 -28 45 0 45 0 45 35 0 19 -2 35 -5 35 -3 0 -5 -13 -5 -30z"/>
<path d="M6270 325 l0 -45 -60 0 -60 0 2 -37 c1 -37 1 -37 5 -5 l4 32 60 0 59
0 0 50 c0 28 -2 50 -5 50 -3 0 -5 -20 -5 -45z"/>
<path d="M6361 354 c0 -11 3 -14 6 -6 3 7 2 16 -1 19 -3 4 -6 -2 -5 -13z"/>
<path d="M8044 275 c0 -55 1 -76 3 -47 2 29 2 74 0 100 -2 26 -3 2 -3 -53z"/>
<path d="M8935 365 c23 -8 85 -10 85 -3 0 4 -21 8 -47 7 -27 0 -43 -2 -38 -4z"/>
<path d="M9821 354 c0 -11 3 -14 6 -6 3 7 2 16 -1 19 -3 4 -6 -2 -5 -13z"/>
<path d="M4434 270 c0 -52 1 -74 3 -47 2 26 2 68 0 95 -2 26 -3 4 -3 -48z"/>
<path d="M6532 243 l-2 -123 28 1 c23 2 23 2 5 6 -21 4 -23 10 -26 121 l-3
117 -2 -122z"/>
<path d="M8553 325 c0 -22 2 -30 4 -17 2 12 2 30 0 40 -3 9 -5 -1 -4 -23z"/>
<path d="M8683 320 c0 -25 2 -35 4 -22 2 12 2 32 0 45 -2 12 -4 2 -4 -23z"/>
<path d="M8723 325 c0 -22 2 -30 4 -17 2 12 2 30 0 40 -3 9 -5 -1 -4 -23z"/>
<path d="M10150 348 c0 -4 6 -8 14 -8 8 0 17 4 20 8 2 4 -4 8 -15 8 -10 0 -19
-4 -19 -8z"/>
<path d="M3893 275 c0 -44 2 -61 4 -37 2 23 2 59 0 80 -2 20 -4 1 -4 -43z"/>
<path d="M5332 325 c0 -16 2 -22 5 -12 2 9 2 23 0 30 -3 6 -5 -1 -5 -18z"/>
<path d="M6881 341 c-1 -8 26 -42 59 -77 33 -34 60 -59 60 -55 0 4 -23 29 -51
56 -28 28 -55 59 -59 70 -5 12 -9 14 -9 6z"/>
<path d="M6920 340 c0 -5 21 -26 47 -47 25 -21 52 -51 59 -68 9 -21 13 -24 14
-11 0 11 -27 45 -60 77 -33 31 -60 54 -60 49z"/>
<path d="M8592 325 c0 -16 2 -22 5 -12 2 9 2 23 0 30 -3 6 -5 -1 -5 -18z"/>
<path d="M7340 245 l0 -95 38 2 c36 1 36 1 5 5 l-33 4 0 84 0 84 33 4 c31 4
31 4 -5 5 l-38 2 0 -95z"/>
<path d="M7420 326 c0 -2 7 -7 16 -10 8 -3 12 -2 9 4 -6 10 -25 14 -25 6z"/>
<path d="M10124 288 c40 -36 50 -53 56 -89 7 -44 7 -44 9 -7 1 41 -28 82 -82
119 -19 12 -12 3 17 -23z"/>
<path d="M5502 300 c0 -14 2 -19 5 -12 2 6 2 18 0 25 -3 6 -5 1 -5 -13z"/>
<path d="M10040 318 c0 -4 25 -31 55 -61 30 -30 55 -51 55 -48 0 4 -25 31 -55
61 -30 30 -55 51 -55 48z"/>
<path d="M5459 291 c-2 -13 -12 -29 -22 -35 -15 -9 -22 -7 -38 13 -10 13 -19
19 -19 13 0 -15 29 -42 44 -42 20 0 48 37 44 57 -4 14 -5 13 -9 -6z"/>
<path d="M7723 255 c0 -27 2 -38 4 -22 2 15 2 37 0 50 -2 12 -4 0 -4 -28z"/>
<path d="M6353 264 l-28 -25 33 22 c17 13 32 24 32 26 0 8 -11 1 -37 -23z"/>
<path d="M5346 265 c4 -11 7 -28 8 -37 0 -10 4 -14 9 -9 5 5 2 21 -8 37 -9 16
-13 20 -9 9z"/>
<path d="M7463 245 c0 -22 2 -30 4 -17 2 12 2 30 0 40 -3 9 -5 -1 -4 -23z"/>
<path d="M8600 271 c0 -13 39 -35 48 -27 3 3 0 6 -6 6 -6 0 -18 7 -26 16 -9 8
-16 11 -16 5z"/>
<path d="M8705 261 c-3 -11 -15 -23 -26 -26 -11 -4 -19 -9 -16 -11 2 -3 12 -2
21 2 18 7 41 42 33 51 -3 2 -8 -5 -12 -16z"/>
<path d="M3682 245 c0 -16 2 -22 5 -12 2 9 2 23 0 30 -3 6 -5 -1 -5 -18z"/>
<path d="M3723 235 c0 -22 2 -30 4 -17 2 12 2 30 0 40 -3 9 -5 -1 -4 -23z"/>
<path d="M5473 243 c-15 -15 -34 -23 -57 -23 -35 0 -56 -24 -37 -43 6 -6 9 -2
8 9 -2 14 7 20 36 25 34 5 89 43 76 52 -2 2 -14 -7 -26 -20z"/>
<path d="M6380 245 c-13 -14 -22 -27 -19 -29 2 -2 14 10 27 25 29 36 24 38 -8
4z"/>
<path d="M9863 225 c0 -27 2 -38 4 -22 2 15 2 37 0 50 -2 12 -4 0 -4 -28z"/>
<path d="M6483 185 c0 -38 2 -53 4 -32 2 20 2 52 0 70 -2 17 -4 1 -4 -38z"/>
<path d="M8574 242 c4 -7 2 -21 -5 -30 -12 -15 -11 -15 6 0 16 15 17 20 6 30
-11 11 -13 10 -7 0z"/>
<path d="M4785 233 c11 -3 23 -10 27 -17 5 -7 8 -5 8 7 0 12 -7 17 -27 16 -22
-1 -23 -2 -8 -6z"/>
<path d="M4550 205 c0 -14 2 -25 4 -25 2 0 6 11 8 25 3 14 1 25 -3 25 -5 0 -9
-11 -9 -25z"/>
<path d="M4592 200 c0 -19 2 -27 5 -17 2 9 2 25 0 35 -3 9 -5 1 -5 -18z"/>
<path d="M6237 223 c-4 -3 -7 -16 -7 -28 0 -11 -6 -27 -12 -35 -11 -12 -10
-12 5 -1 9 7 17 24 17 37 0 16 7 24 23 27 20 4 20 4 1 6 -11 0 -24 -2 -27 -6z"/>
<path d="M8602 218 c-15 -15 -16 -35 -2 -43 6 -3 7 1 4 10 -4 8 -1 22 6 30 15
18 9 20 -8 3z"/>
<path d="M9822 205 c0 -16 2 -22 5 -12 2 9 2 23 0 30 -3 6 -5 -1 -5 -18z"/>
<path d="M9941 208 c1 -17 2 -19 6 -5 6 25 31 21 36 -5 4 -20 4 -19 6 5 1 23
-3 27 -24 27 -20 0 -25 -5 -24 -22z"/>
<path d="M6913 189 c7 -18 19 -35 27 -37 10 -4 10 0 -3 12 -9 10 -17 24 -17
31 0 8 -5 17 -10 20 -6 4 -5 -8 3 -26z"/>
<path d="M3560 199 c0 -25 34 -49 66 -48 28 2 27 2 -6 8 -23 4 -39 14 -47 31
-8 16 -13 19 -13 9z"/>
<path d="M5891 197 c-1 -10 -13 -29 -27 -43 -14 -15 -20 -24 -13 -22 20 7 52
55 46 69 -4 10 -6 8 -6 -4z"/>
<path d="M10025 199 c-4 -6 -4 -13 -1 -16 3 -4 6 -1 6 5 0 22 27 12 38 -13 6
-14 16 -25 22 -25 6 0 1 14 -12 30 -22 31 -42 38 -53 19z"/>
<path d="M3771 184 c0 -11 3 -14 6 -6 3 7 2 16 -1 19 -3 4 -6 -2 -5 -13z"/>
<path d="M4651 184 c0 -11 3 -14 6 -6 3 7 2 16 -1 19 -3 4 -6 -2 -5 -13z"/>
<path d="M6271 184 c0 -11 3 -14 6 -6 3 7 2 16 -1 19 -3 4 -6 -2 -5 -13z"/>
<path d="M7438 178 c-10 -10 -14 -18 -9 -18 10 0 36 29 30 34 -2 1 -12 -6 -21
-16z"/>
<path d="M8001 184 c-1 -12 7 -30 17 -41 9 -10 13 -13 9 -7 -5 7 -12 25 -17
41 -7 23 -8 24 -9 7z"/>
<path d="M4757 171 c-4 -17 -3 -21 5 -13 5 5 8 16 6 23 -3 8 -7 3 -11 -10z"/>
<path d="M6361 174 c0 -11 3 -14 6 -6 3 7 2 16 -1 19 -3 4 -6 -2 -5 -13z"/>
<path d="M6430 183 c0 -6 -12 -16 -27 -21 -16 -6 -22 -11 -15 -11 7 -1 22 4
33 9 15 9 19 7 20 -7 0 -10 3 -13 5 -6 3 7 1 20 -5 30 -6 10 -11 13 -11 6z"/>
<path d="M9452 170 c0 -14 2 -19 5 -12 2 6 2 18 0 25 -3 6 -5 1 -5 -13z"/>
<path d="M3688 148 c-15 -15 -23 -28 -19 -28 9 0 56 49 50 53 -2 1 -16 -10
-31 -25z"/>
<path d="M3876 163 c-6 -14 -5 -15 5 -6 7 7 10 15 7 18 -3 3 -9 -2 -12 -12z"/>
<path d="M4480 171 c0 -10 19 -25 25 -20 1 2 -3 10 -11 17 -8 7 -14 8 -14 3z"/>
<path d="M6160 171 c0 -10 19 -25 25 -20 1 2 -3 10 -11 17 -8 7 -14 8 -14 3z"/>
<path d="M6880 174 c0 -6 7 -19 16 -30 14 -18 14 -18 3 6 -14 31 -19 36 -19
24z"/>
<path d="M7031 168 c-1 -9 -11 -24 -23 -32 -12 -9 -18 -16 -12 -16 17 0 47 38
41 52 -4 9 -6 7 -6 -4z"/>
<path d="M3906 142 l-19 -27 24 22 c12 12 21 24 18 27 -2 2 -13 -8 -23 -22z"/>
<path d="M4440 163 c0 -5 10 -18 23 -29 l22 -19 -20 25 c-11 14 -21 27 -22 29
-2 2 -3 0 -3 -6z"/>
<path d="M4928 158 c6 -6 18 -8 28 -6 14 3 12 5 -9 10 -19 3 -25 2 -19 -4z"/>
<path d="M5347 160 c10 -11 9 -18 -9 -37 -12 -13 -20 -25 -17 -27 2 -2 14 9
26 24 21 26 22 29 5 41 -14 11 -15 11 -5 -1z"/>
<path d="M5408 163 c6 -2 18 -2 25 0 6 3 1 5 -13 5 -14 0 -19 -2 -12 -5z"/>
<path d="M6120 161 c0 -10 39 -46 43 -40 2 2 -7 14 -20 26 -13 12 -23 19 -23
14z"/>
<path d="M7071 154 c0 -12 7 -28 17 -35 15 -12 16 -12 6 1 -7 8 -14 24 -17 35
-4 19 -5 19 -6 -1z"/>
<path d="M7122 140 c0 -19 2 -27 5 -17 2 9 2 25 0 35 -3 9 -5 1 -5 -18z"/>
<path d="M7600 159 c0 -5 11 -9 25 -9 14 0 25 2 25 4 0 2 -11 6 -25 8 -14 3
-25 1 -25 -3z"/>
<path d="M8059 157 c5 -5 19 -7 32 -5 20 3 19 5 -9 9 -20 3 -29 2 -23 -4z"/>
<path d="M8628 163 c6 -2 18 -2 25 0 6 3 1 5 -13 5 -14 0 -19 -2 -12 -5z"/>
<path d="M9365 160 c7 -11 45 -20 45 -10 0 4 -11 10 -25 12 -13 3 -22 2 -20
-2z"/>
<path d="M9830 163 c0 -5 10 -18 23 -29 l22 -19 -20 25 c-11 14 -21 27 -22 29
-2 2 -3 0 -3 -6z"/>
<path d="M9877 159 c7 -7 15 -10 18 -7 3 3 -2 9 -12 12 -14 6 -15 5 -6 -5z"/>
<path d="M9920 160 c-9 -6 -10 -10 -3 -10 6 0 15 5 18 10 8 12 4 12 -15 0z"/>
<path d="M9956 142 l-19 -27 24 22 c12 12 21 24 18 27 -2 2 -13 -8 -23 -22z"/>
<path d="M10039 153 c6 -12 16 -25 22 -28 20 -13 15 0 -9 25 -22 23 -24 23
-13 3z"/>
<path d="M10130 160 c-9 -6 -10 -10 -3 -10 6 0 15 5 18 10 8 12 4 12 -15 0z"/>
<path d="M3547 139 c12 -12 24 -21 27 -18 2 2 -8 13 -22 23 l-27 19 22 -24z"/>
<path d="M4564 138 l-19 -23 23 19 c12 11 22 21 22 23 0 8 -8 2 -26 -19z"/>
<path d="M5470 153 c8 -3 24 -13 35 -22 20 -16 20 -16 1 7 -11 12 -26 22 -35
21 -14 0 -14 -1 -1 -6z"/>
<path d="M6244 138 l-19 -23 23 19 c12 11 22 21 22 23 0 8 -8 2 -26 -19z"/>
<path d="M8565 150 c4 -6 -1 -17 -9 -26 -9 -8 -16 -20 -16 -26 0 -6 1 -9 3 -7
1 2 12 16 25 30 20 23 21 27 7 33 -9 3 -13 2 -10 -4z"/>
<path d="M8698 150 c12 -5 27 -20 32 -32 5 -15 9 -17 9 -7 1 19 -30 49 -50 48
-8 0 -4 -4 9 -9z"/>
<path d="M9080 154 c0 -13 18 -39 24 -34 2 3 -2 14 -10 24 -8 11 -14 16 -14
10z"/>
<path d="M4776 135 c-11 -8 -15 -15 -9 -15 6 0 16 7 23 15 16 19 11 19 -14 0z"/>
<path d="M7560 141 c0 -6 4 -13 10 -16 6 -3 7 1 4 9 -7 18 -14 21 -14 7z"/>
<path d="M7653 137 c-19 -11 -17 -12 25 -13 26 -1 38 1 27 4 -11 2 -22 8 -25
12 -3 5 -15 3 -27 -3z"/>
<path d="M9320 141 c0 -10 19 -25 25 -20 1 2 -3 10 -11 17 -8 7 -14 8 -14 3z"/>
<path d="M10156 135 c-11 -8 -15 -15 -9 -15 6 0 16 7 23 15 16 19 11 19 -14 0z"/>
<path d="M4677 129 c7 -7 15 -10 18 -7 3 3 -2 9 -12 12 -14 6 -15 5 -6 -5z"/>
<path d="M5378 129 c-10 -5 -18 -15 -18 -22 0 -8 3 -9 8 -1 4 6 16 16 27 22
11 6 16 11 10 11 -5 0 -18 -4 -27 -10z"/>
<path d="M6337 129 c7 -7 15 -10 18 -7 3 3 -2 9 -12 12 -14 6 -15 5 -6 -5z"/>
<path d="M8128 128 c6 -6 18 -8 28 -6 14 3 12 5 -9 10 -19 3 -25 2 -19 -4z"/>
<path d="M8595 130 c-8 -13 5 -13 25 0 13 8 13 10 -2 10 -9 0 -20 -4 -23 -10z"/>
<path d="M9540 130 c-9 -6 -10 -10 -3 -10 6 0 15 5 18 10 8 12 4 12 -15 0z"/>
<path d="M5438 123 c7 -3 16 -2 19 1 4 3 -2 6 -13 5 -11 0 -14 -3 -6 -6z"/>
<path d="M5723 123 c20 -2 54 -2 75 0 20 2 3 4 -38 4 -41 0 -58 -2 -37 -4z"/>
<path d="M6798 123 c6 -2 18 -2 25 0 6 3 1 5 -13 5 -14 0 -19 -2 -12 -5z"/>
<path d="M8657 123 c34 -7 48 -29 32 -50 -13 -16 -12 -17 4 -4 9 7 17 17 17
22 0 16 -32 39 -53 38 l-22 -2 22 -4z"/>
<path d="M3603 113 c9 -2 25 -2 35 0 9 3 1 5 -18 5 -19 0 -27 -2 -17 -5z"/>
<path d="M3838 113 c6 -2 18 -2 25 0 6 3 1 5 -13 5 -14 0 -19 -2 -12 -5z"/>
<path d="M4508 113 c7 -3 16 -2 19 1 4 3 -2 6 -13 5 -11 0 -14 -3 -6 -6z"/>
<path d="M4718 113 c6 -2 18 -2 25 0 6 3 1 5 -13 5 -14 0 -19 -2 -12 -5z"/>
<path d="M6188 113 c7 -3 16 -2 19 1 4 3 -2 6 -13 5 -11 0 -14 -3 -6 -6z"/>
<path d="M6948 113 c6 -2 18 -2 25 0 6 3 1 5 -13 5 -14 0 -19 -2 -12 -5z"/>
<path d="M7598 113 c7 -3 16 -2 19 1 4 3 -2 6 -13 5 -11 0 -14 -3 -6 -6z"/>
<path d="M8058 113 c7 -3 16 -2 19 1 4 3 -2 6 -13 5 -11 0 -14 -3 -6 -6z"/>
<path d="M9128 113 c7 -3 16 -2 19 1 4 3 -2 6 -13 5 -11 0 -14 -3 -6 -6z"/>
<path d="M9368 113 c7 -3 16 -2 19 1 4 3 -2 6 -13 5 -11 0 -14 -3 -6 -6z"/>
<path d="M9498 113 c7 -3 16 -2 19 1 4 3 -2 6 -13 5 -11 0 -14 -3 -6 -6z"/>
<path d="M9888 113 c6 -2 18 -2 25 0 6 3 1 5 -13 5 -14 0 -19 -2 -12 -5z"/>
<path d="M10098 113 c6 -2 18 -2 25 0 6 3 1 5 -13 5 -14 0 -19 -2 -12 -5z"/>
<path d="M7082 80 c0 -14 2 -19 5 -12 2 6 2 18 0 25 -3 6 -5 1 -5 -13z"/>
<path d="M7106 83 c-6 -14 -5 -15 5 -6 7 7 10 15 7 18 -3 3 -9 -2 -12 -12z"/>
<path d="M5369 68 c9 -13 26 -17 55 -16 l41 1 -40 4 c-22 3 -47 10 -55 16 -13
11 -13 10 -1 -5z"/>
<path d="M5493 54 c-12 -13 -18 -24 -13 -24 11 0 40 29 40 41 0 12 -1 11 -27
-17z"/>
<path d="M8713 54 c-12 -13 -18 -24 -13 -24 11 0 40 29 40 41 0 12 -1 11 -27
-17z"/>
<path d="M5320 61 c0 -10 29 -36 34 -30 1 2 -6 12 -16 22 -10 9 -18 13 -18 8z"/>
<path d="M8540 61 c0 -10 29 -36 34 -30 1 2 -6 12 -16 22 -10 9 -18 13 -18 8z"/>
<path d="M8623 53 c9 -2 25 -2 35 0 9 3 1 5 -18 5 -19 0 -27 -2 -17 -5z"/>
<path d="M5393 23 c15 -2 37 -2 50 0 12 2 0 4 -28 4 -27 0 -38 -2 -22 -4z"/>
<path d="M8613 23 c15 -2 37 -2 50 0 12 2 0 4 -28 4 -27 0 -38 -2 -22 -4z"/>
</g>
</svg>
