<?xml version="1.0" encoding="UTF-8"?>
<!DOCTYPE svg PUBLIC "-//W3C//DTD SVG 1.1//EN" "http://www.w3.org/Graphics/SVG/1.1/DTD/svg11.dtd">
<svg xmlns="http://www.w3.org/2000/svg" version="1.1" width="1024px" height="329px" style="shape-rendering:geometricPrecision; text-rendering:geometricPrecision; image-rendering:optimizeQuality; fill-rule:evenodd; clip-rule:evenodd" xmlns:xlink="http://www.w3.org/1999/xlink">
<g><path style="opacity:1" fill="#1e1e1e" d="M -0.5,-0.5 C 340.833,-0.5 682.167,-0.5 1023.5,-0.5C 1023.5,109.167 1023.5,218.833 1023.5,328.5C 682.167,328.5 340.833,328.5 -0.5,328.5C -0.5,218.833 -0.5,109.167 -0.5,-0.5 Z"/></g>
<g><path style="opacity:1" fill="#f6f6f6" d="M 213.5,164.5 C 196.167,164.5 178.833,164.5 161.5,164.5C 161.5,186.167 161.5,207.833 161.5,229.5C 160.833,229.5 160.5,229.833 160.5,230.5C 137.833,230.5 115.167,230.5 92.5,230.5C 92.5,253.167 92.5,275.833 92.5,298.5C 66,299.829 39.5,299.829 13,298.5C 12.5,271.169 12.3334,243.835 12.5,216.5C 34.673,216.831 56.673,216.497 78.5,215.5C 79.4973,194.34 79.8306,173.007 79.5,151.5C 102.006,151.831 124.34,151.497 146.5,150.5C 147.833,132.167 147.833,113.833 146.5,95.5C 123.833,95.5 101.167,95.5 78.5,95.5C 78.5,70.5 78.5,45.5 78.5,20.5C 149.5,20.5 220.5,20.5 291.5,20.5C 291.5,90.5 291.5,160.5 291.5,230.5C 265.833,230.5 240.167,230.5 214.5,230.5C 214.831,208.327 214.497,186.327 213.5,164.5 Z"/></g>
<g><path style="opacity:1" fill="#1e1e1e" d="M 228.5,151.5 C 206.242,150.511 183.908,150.178 161.5,150.5C 161.823,127.092 161.489,103.758 160.5,80.5C 138.34,79.5026 116.006,79.1692 93.5,79.5C 93.5,65.1667 93.5,50.8333 93.5,36.5C 154.5,36.5 215.5,36.5 276.5,36.5C 276.5,95.8333 276.5,155.167 276.5,214.5C 260.833,214.5 245.167,214.5 229.5,214.5C 229.831,193.327 229.497,172.327 228.5,151.5 Z"/></g>
<g><path style="opacity:1" fill="#515151" d="M 277.5,35.5 C 278.499,95.6644 278.832,155.998 278.5,216.5C 261.658,216.83 244.992,216.497 228.5,215.5C 244.833,215.5 261.167,215.5 277.5,215.5C 277.5,155.5 277.5,95.5 277.5,35.5 Z"/></g>
<g><path style="opacity:1" fill="#f7f7f6" d="M 781.5,55.5 C 783.5,55.5 785.5,55.5 787.5,55.5C 785.652,67.4197 783.319,79.2531 780.5,91C 780.833,91.5 781.167,92 781.5,92.5C 799.01,88.0052 811.176,94.0052 818,110.5C 821.686,131.589 815.853,149.422 800.5,164C 783.497,174.715 765.497,176.382 746.5,169C 745.941,168.275 745.608,167.442 745.5,166.5C 753.193,130.195 761.193,94.0282 769.5,58C 773.665,57.2946 777.665,56.4613 781.5,55.5 Z"/></g>
<g><path style="opacity:1" fill="#f7f8f7" d="M 386.5,62.5 C 395.879,62.2244 405.212,62.7244 414.5,64C 419.337,65.3238 423.671,67.4905 427.5,70.5C 424.959,75.0825 422.293,79.5825 419.5,84C 414.932,82.7393 410.265,81.406 405.5,80C 397.491,78.7091 389.824,79.7091 382.5,83C 376.884,88.0855 376.051,93.9189 380,100.5C 388.749,106.125 397.583,111.625 406.5,117C 415.057,125.455 417.89,135.622 415,147.5C 408.537,163.175 396.704,171.675 379.5,173C 365.586,174.953 352.92,171.953 341.5,164C 344.167,159.333 346.833,154.667 349.5,150C 356.744,153.231 364.41,155.398 372.5,156.5C 379.399,156.574 385.732,154.741 391.5,151C 396.136,145.141 396.636,138.975 393,132.5C 385.431,127.27 377.598,122.437 369.5,118C 355.735,105.394 353.901,91.2274 364,75.5C 370.478,69.1847 377.978,64.8514 386.5,62.5 Z"/></g>
<g><path style="opacity:1" fill="#f6f6f5" d="M 708.5,109.5 C 709.404,108.791 709.737,107.791 709.5,106.5C 705.833,106.5 702.167,106.5 698.5,106.5C 698.5,105.167 698.5,103.833 698.5,102.5C 699.051,99.1933 699.384,95.8599 699.5,92.5C 703.833,92.5 708.167,92.5 712.5,92.5C 713.833,85.8348 715.166,79.1681 716.5,72.5C 722.854,71.6292 729.187,70.6292 735.5,69.5C 733.412,77.0246 732.079,84.6913 731.5,92.5C 737.5,92.5 743.5,92.5 749.5,92.5C 748.372,97.4728 747.372,102.473 746.5,107.5C 739.833,107.5 733.167,107.5 726.5,107.5C 724.708,120.628 722.208,133.628 719,146.5C 718.45,158.027 723.283,160.694 733.5,154.5C 733.833,155.5 734.167,156.5 734.5,157.5C 733.508,161.802 732.675,166.135 732,170.5C 721.655,175.257 711.988,174.257 703,167.5C 699.699,161.958 698.699,155.958 700,149.5C 702.773,136.134 705.606,122.801 708.5,109.5 Z"/></g>
<g><path style="opacity:1" fill="#f6f7f6" d="M 473.5,90.5 C 484.85,88.8755 493.35,92.8755 499,102.5C 509.187,90.7637 521.354,87.9304 535.5,94C 544.059,101.633 546.892,111.133 544,122.5C 540.596,138.872 537.096,155.205 533.5,171.5C 527.5,171.5 521.5,171.5 515.5,171.5C 518.963,153.52 522.296,135.52 525.5,117.5C 526.035,110.366 522.701,106.7 515.5,106.5C 509.598,107.202 504.765,109.868 501,114.5C 497.324,133.536 493.491,152.536 489.5,171.5C 483.5,171.5 477.5,171.5 471.5,171.5C 474.507,153.298 477.84,135.131 481.5,117C 481.279,109.946 477.612,106.446 470.5,106.5C 464.14,107.094 459.307,110.094 456,115.5C 451.384,134.081 447.217,152.748 443.5,171.5C 437.5,171.5 431.5,171.5 425.5,171.5C 430.505,145.812 435.672,120.145 441,94.5C 446.197,92.5798 451.697,91.9132 457.5,92.5C 457.337,94.8568 457.503,97.1902 458,99.5C 462.606,95.363 467.773,92.363 473.5,90.5 Z"/></g>
<g><path style="opacity:1" fill="#f7f7f6" d="M 591.5,90.5 C 603.574,88.5308 613.741,91.8641 622,100.5C 625.356,106.757 626.356,113.424 625,120.5C 622.256,133.551 619.256,146.551 616,159.5C 615.501,163.486 615.334,167.486 615.5,171.5C 609.833,171.5 604.167,171.5 598.5,171.5C 598.664,168.813 598.497,166.146 598,163.5C 589.849,171.983 580.016,174.816 568.5,172C 561.93,169.762 557.763,165.262 556,158.5C 554.112,142.044 560.946,130.877 576.5,125C 586.275,122.61 596.108,120.776 606,119.5C 606.667,116.167 606.667,112.833 606,109.5C 604.786,107.951 603.286,106.785 601.5,106C 592.252,105.126 583.585,106.96 575.5,111.5C 573.619,106.579 573.286,101.579 574.5,96.5C 580.016,93.7157 585.683,91.7157 591.5,90.5 Z"/></g>
<g><path style="opacity:1" fill="#f6f6f5" d="M 650.5,94.5 C 653.248,93.8809 656.081,93.5475 659,93.5C 661.929,93.5248 664.429,94.1914 666.5,95.5C 666.276,99.2044 666.11,102.871 666,106.5C 671.494,94.6726 680.661,89.5059 693.5,91C 694.516,91.5194 695.182,92.3527 695.5,93.5C 694.039,98.8089 692.705,104.142 691.5,109.5C 679.507,108.081 670.341,112.747 664,123.5C 663.333,124.833 662.667,126.167 662,127.5C 658.929,142.207 655.762,156.874 652.5,171.5C 646.5,171.5 640.5,171.5 634.5,171.5C 639.993,145.861 645.327,120.194 650.5,94.5 Z"/></g>
<g><path style="opacity:1" fill="#afb0ae" d="M 666.5,95.5 C 664.429,94.1914 661.929,93.5248 659,93.5C 656.081,93.5475 653.248,93.8809 650.5,94.5C 655.735,92.55 661.402,91.8833 667.5,92.5C 667.737,93.791 667.404,94.791 666.5,95.5 Z"/></g>
<g><path style="opacity:1" fill="#a6a6a6" d="M 855.5,93.5 C 849.077,93.2088 842.744,93.5422 836.5,94.5C 839.258,93.1818 842.424,92.5152 846,92.5C 849.352,92.5018 852.518,92.8351 855.5,93.5 Z"/></g>
<g><path style="opacity:1" fill="#a5a6a5" d="M 882.5,93.5 C 888.645,92.5098 894.978,92.1765 901.5,92.5C 901.737,93.791 901.404,94.791 900.5,95.5C 894.926,93.5467 888.926,92.88 882.5,93.5 Z"/></g>
<g><path style="opacity:1" fill="#9c9c9b" d="M 980.5,93.5 C 987.011,92.1819 993.678,92.1819 1000.5,93.5C 1000.38,94.1067 1000.04,94.44 999.5,94.5C 993.355,93.5098 987.022,93.1765 980.5,93.5 Z"/></g>
<g><path style="opacity:1" fill="#f7f7f6" d="M 855.5,93.5 C 851.718,110.912 848.384,128.412 845.5,146C 844.683,152.898 847.683,156.398 854.5,156.5C 861.633,155.867 867.133,152.534 871,146.5C 874.835,128.821 878.668,111.154 882.5,93.5C 888.926,92.88 894.926,93.5467 900.5,95.5C 895.551,120.525 890.384,145.525 885,170.5C 879.928,171.471 874.762,171.805 869.5,171.5C 869.813,168.753 869.48,166.086 868.5,163.5C 858.19,173.329 846.524,175.496 833.5,170C 826.376,162.952 823.876,154.452 826,144.5C 829.609,127.842 833.109,111.175 836.5,94.5C 842.744,93.5422 849.077,93.2088 855.5,93.5 Z"/></g>
<g><path style="opacity:1" fill="#f6f6f6" d="M 948.5,122.5 C 948.444,127.731 949.111,132.731 950.5,137.5C 951.161,140.787 951.661,144.12 952,147.5C 960.75,128.996 970.25,110.996 980.5,93.5C 987.022,93.1765 993.355,93.5098 999.5,94.5C 980.517,128.466 961.017,162.133 941,195.5C 933.128,203.681 923.628,206.514 912.5,204C 911.484,203.481 910.818,202.647 910.5,201.5C 911.602,196.889 912.269,192.222 912.5,187.5C 916.919,188.931 921.252,188.764 925.5,187C 931.68,181.667 936.014,175.167 938.5,167.5C 933.765,142.623 929.765,117.623 926.5,92.5C 932.868,92.1703 939.202,92.5037 945.5,93.5C 946.96,103.102 947.96,112.769 948.5,122.5 Z"/></g>
<g><path style="opacity:1" fill="#a6a6a5" d="M 698.5,102.5 C 698.5,103.833 698.5,105.167 698.5,106.5C 702.167,106.5 705.833,106.5 709.5,106.5C 709.737,107.791 709.404,108.791 708.5,109.5C 705.316,107.586 701.649,106.92 697.5,107.5C 697.216,105.585 697.549,103.919 698.5,102.5 Z"/></g>
<g><path style="opacity:1" fill="#1d1d1c" d="M 777.5,107.5 C 795.1,105.269 802.267,112.936 799,130.5C 796.573,149.103 786.073,158.103 767.5,157.5C 770.203,140.691 773.536,124.024 777.5,107.5 Z"/></g>
<g><path style="opacity:1" fill="#0e0e0e" d="M 277.5,35.5 C 277.5,95.5 277.5,155.5 277.5,215.5C 261.167,215.5 244.833,215.5 228.5,215.5C 228.5,194.167 228.5,172.833 228.5,151.5C 229.497,172.327 229.831,193.327 229.5,214.5C 245.167,214.5 260.833,214.5 276.5,214.5C 276.5,155.167 276.5,95.8333 276.5,36.5C 215.5,36.5 154.5,36.5 93.5,36.5C 93.5,50.8333 93.5,65.1667 93.5,79.5C 116.006,79.1692 138.34,79.5026 160.5,80.5C 137.5,80.5 114.5,80.5 91.5,80.5C 91.5,65.5 91.5,50.5 91.5,35.5C 153.5,35.5 215.5,35.5 277.5,35.5 Z"/></g>
<g><path style="opacity:1" fill="#aeaeaf" d="M 948.5,122.5 C 949.889,127.269 950.556,132.269 950.5,137.5C 949.111,132.731 948.444,127.731 948.5,122.5 Z"/></g>
<g><path style="opacity:1" fill="#1e1e1e" d="M 599.5,133.5 C 600.978,133.238 602.311,133.571 603.5,134.5C 602.014,139.075 600.848,143.741 600,148.5C 594.639,155.934 587.472,159.101 578.5,158C 573.399,152.445 573.232,146.612 578,140.5C 580.469,138.348 583.302,136.848 586.5,136C 590.988,135.24 595.322,134.406 599.5,133.5 Z"/></g>
<g><path style="opacity:1" fill="#373636" d="M 146.5,95.5 C 147.833,113.833 147.833,132.167 146.5,150.5C 124.167,150.5 101.833,150.5 79.5,150.5C 101.66,149.503 123.994,149.169 146.5,149.5C 146.5,131.5 146.5,113.5 146.5,95.5 Z"/></g>
<g><path style="opacity:1" fill="#030202" d="M 213.5,164.5 C 213.667,185.836 213.5,207.169 213,228.5C 212.5,207.503 212.333,186.503 212.5,165.5C 195.833,165.5 179.167,165.5 162.5,165.5C 162.831,187.007 162.497,208.34 161.5,229.5C 161.5,207.833 161.5,186.167 161.5,164.5C 178.833,164.5 196.167,164.5 213.5,164.5 Z"/></g>
<g><path style="opacity:1" fill="#e0e1e0" d="M 79.5,150.5 C 101.833,150.5 124.167,150.5 146.5,150.5C 124.34,151.497 102.006,151.831 79.5,151.5C 79.8306,173.007 79.4973,194.34 78.5,215.5C 78.1693,193.66 78.5027,171.994 79.5,150.5 Z"/></g>
<g><path style="opacity:1" fill="#000000" d="M 77.5,230.5 C 61.0084,231.497 44.3417,231.83 27.5,231.5C 27.5,248.833 27.5,266.167 27.5,283.5C 44.5,283.5 61.5,283.5 78.5,283.5C 61.3414,284.497 44.008,284.83 26.5,284.5C 26.5,266.5 26.5,248.5 26.5,230.5C 43.5,230.5 60.5,230.5 77.5,230.5 Z"/></g>
<g><path style="opacity:1" fill="#000000" d="M 160.5,230.5 C 138.34,231.497 116.006,231.831 93.5,231.5C 93.8308,254.006 93.4974,276.34 92.5,298.5C 92.5,275.833 92.5,253.167 92.5,230.5C 115.167,230.5 137.833,230.5 160.5,230.5 Z"/></g>
<g><path style="opacity:1" fill="#1e1e1e" d="M 77.5,230.5 C 78.4967,247.992 78.8301,265.659 78.5,283.5C 61.5,283.5 44.5,283.5 27.5,283.5C 27.5,266.167 27.5,248.833 27.5,231.5C 44.3417,231.83 61.0084,231.497 77.5,230.5 Z"/></g>
<g><path style="opacity:1" fill="#ebebeb" d="M 349.5,310.5 C 348.625,299.86 348.291,289.194 348.5,278.5C 348.84,275.325 350.507,273.159 353.5,272C 365.292,269.623 370.625,274.456 369.5,286.5C 367.833,286.5 366.167,286.5 364.5,286.5C 366.675,277.51 363.342,274.01 354.5,276C 353.874,276.75 353.374,277.584 353,278.5C 352.333,287.5 352.333,296.5 353,305.5C 354.083,311.347 357.416,313.014 363,310.5C 364.337,306.974 364.837,303.308 364.5,299.5C 366.167,299.5 367.833,299.5 369.5,299.5C 371.123,312.045 365.79,317.212 353.5,315C 351.959,313.629 350.625,312.129 349.5,310.5 Z"/></g>
<g><path style="opacity:1" fill="#f1f2f2" d="M 565.5,271.5 C 571.762,270.872 577.762,271.705 583.5,274C 584.211,275.255 585.044,276.421 586,277.5C 586.667,287.833 586.667,298.167 586,308.5C 584.488,311.857 581.988,313.857 578.5,314.5C 574.167,314.5 569.833,314.5 565.5,314.5C 565.5,300.167 565.5,285.833 565.5,271.5 Z"/></g>
<g><path style="opacity:1" fill="#f8f8f8" d="M 900.5,274.5 C 896.5,274.5 892.5,274.5 888.5,274.5C 888.5,280.167 888.5,285.833 888.5,291.5C 900.5,292.167 900.5,292.833 888.5,293.5C 888.5,300.5 888.5,307.5 888.5,314.5C 887.167,314.5 885.833,314.5 884.5,314.5C 884.5,300.167 884.5,285.833 884.5,271.5C 889.833,271.5 895.167,271.5 900.5,271.5C 900.5,272.5 900.5,273.5 900.5,274.5 Z"/></g>
<g><path style="opacity:1" fill="#c5c5c6" d="M 773.5,274.5 C 775.167,274.5 776.833,274.5 778.5,274.5C 779.575,278.938 777.908,280.938 773.5,280.5C 773.5,278.5 773.5,276.5 773.5,274.5 Z"/></g>
<g><path style="opacity:1" fill="#dfdfe0" d="M 818.5,274.5 C 819.833,274.5 821.167,274.5 822.5,274.5C 822.5,276.167 822.5,277.833 822.5,279.5C 821.167,279.5 819.833,279.5 818.5,279.5C 818.5,277.833 818.5,276.167 818.5,274.5 Z"/></g>
<g><path style="opacity:1" fill="#c7c7c9" d="M 497.5,274.5 C 499.167,274.5 500.833,274.5 502.5,274.5C 503.575,278.938 501.908,280.938 497.5,280.5C 497.5,278.5 497.5,276.5 497.5,274.5 Z"/></g>
<g><path style="opacity:1" fill="#222222" d="M 569.5,275.5 C 572.518,275.335 575.518,275.502 578.5,276C 579.333,276.833 580.167,277.667 581,278.5C 582.948,288.461 582.948,298.461 581,308.5C 577.673,311.154 573.839,312.154 569.5,311.5C 569.5,299.5 569.5,287.5 569.5,275.5 Z"/></g>
<g><path style="opacity:1" fill="#6f6f70" d="M 484.5,274.5 C 484.5,277.833 484.5,281.167 484.5,284.5C 483.167,284.5 481.833,284.5 480.5,284.5C 481.209,283.596 482.209,283.263 483.5,283.5C 483.19,280.287 483.523,277.287 484.5,274.5 Z"/></g>
<g><path style="opacity:1" fill="#f0f1f0" d="M 484.5,274.5 C 485.833,274.5 487.167,274.5 488.5,274.5C 488.5,277.833 488.5,281.167 488.5,284.5C 490.167,284.5 491.833,284.5 493.5,284.5C 493.5,285.5 493.5,286.5 493.5,287.5C 491.833,287.5 490.167,287.5 488.5,287.5C 488.334,295.174 488.5,302.841 489,310.5C 492.094,310.793 493.594,312.459 493.5,315.5C 491.143,315.663 488.81,315.497 486.5,315C 485.177,314.184 484.511,313.017 484.5,311.5C 484.5,303.167 484.5,294.833 484.5,286.5C 483.167,286.5 481.833,286.5 480.5,286.5C 480.5,285.833 480.5,285.167 480.5,284.5C 481.833,284.5 483.167,284.5 484.5,284.5C 484.5,281.167 484.5,277.833 484.5,274.5 Z"/></g>
<g><path style="opacity:1" fill="#f2f2f2" d="M 501.5,284.5 C 501.5,294.5 501.5,304.5 501.5,314.5C 500.167,314.5 498.833,314.5 497.5,314.5C 497.5,304.5 497.5,294.5 497.5,284.5C 498.833,284.5 500.167,284.5 501.5,284.5 Z"/></g>
<g><path style="opacity:1" fill="#f1f1f1" d="M 524.5,314.5 C 523.167,314.5 521.833,314.5 520.5,314.5C 520.826,305.651 520.493,296.984 519.5,288.5C 516.875,287.076 514.542,287.409 512.5,289.5C 511.507,297.65 511.174,305.983 511.5,314.5C 510.5,314.5 509.5,314.5 508.5,314.5C 508.5,304.5 508.5,294.5 508.5,284.5C 509.833,284.5 511.167,284.5 512.5,284.5C 512.369,285.239 512.536,285.906 513,286.5C 516.746,282.607 520.412,282.607 524,286.5C 524.5,295.827 524.666,305.161 524.5,314.5 Z"/></g>
<g><path style="opacity:1" fill="#f3f4f4" d="M 751.5,284.5 C 752.833,284.5 754.167,284.5 755.5,284.5C 755.334,293.173 755.5,301.84 756,310.5C 758.132,311.78 760.298,311.78 762.5,310.5C 763.498,301.859 763.831,293.192 763.5,284.5C 764.833,284.5 766.167,284.5 767.5,284.5C 767.5,294.833 767.5,305.167 767.5,315.5C 766.167,315.5 764.833,315.5 763.5,315.5C 763.649,314.448 763.483,313.448 763,312.5C 759.531,315.916 755.864,316.25 752,313.5C 751.5,303.839 751.334,294.172 751.5,284.5 Z"/></g>
<g><path style="opacity:1" fill="#6d6c6c" d="M 828.5,284.5 C 830.683,283.157 832.683,283.49 834.5,285.5C 834.44,286.043 834.107,286.376 833.5,286.5C 832.158,284.995 830.492,284.328 828.5,284.5 Z"/></g>
<g><path style="opacity:1" fill="#eeeeee" d="M 967.5,314.5 C 966.167,314.5 964.833,314.5 963.5,314.5C 963.5,304.5 963.5,294.5 963.5,284.5C 964.568,283.566 965.901,283.232 967.5,283.5C 967.202,286.336 967.869,286.836 969.5,285C 971.473,284.505 973.473,284.338 975.5,284.5C 975.5,285.833 975.5,287.167 975.5,288.5C 972.635,288.055 970.135,288.722 968,290.5C 967.5,298.493 967.334,306.493 967.5,314.5 Z"/></g>
<g><path style="opacity:1" fill="#e7e7e7" d="M 994.5,289.5 C 994.5,292.833 994.5,296.167 994.5,299.5C 990.833,299.5 987.167,299.5 983.5,299.5C 982.12,303.437 982.286,307.437 984,311.5C 986.235,312.98 988.068,312.647 989.5,310.5C 990.461,308.735 990.795,306.735 990.5,304.5C 991.833,304.5 993.167,304.5 994.5,304.5C 994.5,305.5 994.5,306.5 994.5,307.5C 993.703,314.745 989.703,317.245 982.5,315C 979.906,313.661 978.406,311.494 978,308.5C 977.333,302.5 977.333,296.5 978,290.5C 981.518,282.939 986.685,281.606 993.5,286.5C 994.127,287.417 994.461,288.417 994.5,289.5 Z"/></g>
<g><path style="opacity:1" fill="#7d7c7c" d="M 592.5,284.5 C 593.919,283.549 595.585,283.216 597.5,283.5C 597.263,284.791 597.596,285.791 598.5,286.5C 598.44,287.043 598.107,287.376 597.5,287.5C 596.614,286.675 596.281,285.675 596.5,284.5C 595.167,284.5 593.833,284.5 592.5,284.5 Z"/></g>
<g><path style="opacity:1" fill="#d6d6d7" d="M 623.5,289.5 C 622.603,288.402 621.77,288.402 621,289.5C 620.814,292.036 620.314,294.369 619.5,296.5C 617.052,297.473 614.385,297.806 611.5,297.5C 611.665,294.482 611.498,291.482 611,288.5C 610.617,287.944 610.117,287.611 609.5,287.5C 612.289,283.439 615.956,282.606 620.5,285C 622.141,286.129 623.141,287.629 623.5,289.5 Z"/></g>
<g><path style="opacity:1" fill="#f1f1f2" d="M 936.5,286.5 C 934.833,286.5 933.167,286.5 931.5,286.5C 931.174,294.684 931.508,302.684 932.5,310.5C 933.568,311.434 934.901,311.768 936.5,311.5C 936.5,312.833 936.5,314.167 936.5,315.5C 933.315,315.98 930.481,315.314 928,313.5C 927.5,304.84 927.334,296.173 927.5,287.5C 926.167,287.5 924.833,287.5 923.5,287.5C 923.5,286.5 923.5,285.5 923.5,284.5C 924.833,284.5 926.167,284.5 927.5,284.5C 927.5,281.167 927.5,277.833 927.5,274.5C 928.833,274.5 930.167,274.5 931.5,274.5C 931.5,277.833 931.5,281.167 931.5,284.5C 933.781,284.077 935.448,284.744 936.5,286.5 Z"/></g>
<g><path style="opacity:1" fill="#f6f7f7" d="M 944.5,284.5 C 944.5,294.167 944.5,303.833 944.5,313.5C 943.5,313.5 942.5,313.5 941.5,313.5C 940.527,303.916 940.194,294.25 940.5,284.5C 941.833,284.5 943.167,284.5 944.5,284.5 Z"/></g>
<g><path style="opacity:1" fill="#f0f0f0" d="M 434.5,288.5 C 434.5,297.167 434.5,305.833 434.5,314.5C 433.167,314.5 431.833,314.5 430.5,314.5C 430.666,306.16 430.5,297.827 430,289.5C 427.667,286.833 425.333,286.833 423,289.5C 422.5,297.827 422.334,306.16 422.5,314.5C 421.167,314.5 419.833,314.5 418.5,314.5C 418.5,304.5 418.5,294.5 418.5,284.5C 419.568,283.566 420.901,283.232 422.5,283.5C 422.351,284.552 422.517,285.552 423,286.5C 426.397,283.019 430.064,282.686 434,285.5C 434.483,286.448 434.649,287.448 434.5,288.5 Z"/></g>
<g><path style="opacity:1" fill="#bbbbba" d="M 348.5,278.5 C 348.291,289.194 348.625,299.86 349.5,310.5C 348.732,309.737 348.232,308.737 348,307.5C 347.175,297.658 347.342,287.991 348.5,278.5 Z"/></g>
<g><path style="opacity:1" fill="#f0f0ef" d="M 412.5,314.5 C 411.167,314.5 409.833,314.5 408.5,314.5C 408.826,305.651 408.493,296.984 407.5,288.5C 405.064,286.983 402.898,287.316 401,289.5C 400.5,297.827 400.334,306.16 400.5,314.5C 399.167,314.5 397.833,314.5 396.5,314.5C 396.5,304.5 396.5,294.5 396.5,284.5C 397.833,284.5 399.167,284.5 400.5,284.5C 400.369,285.239 400.536,285.906 401,286.5C 404.746,282.607 408.412,282.607 412,286.5C 412.5,295.827 412.666,305.161 412.5,314.5 Z"/></g>
<g><path style="opacity:1" fill="#1c1b1b" d="M 619.5,296.5 C 617.167,296.5 614.833,296.5 612.5,296.5C 612.336,293.813 612.503,291.146 613,288.5C 615,287.167 617,287.167 619,288.5C 619.497,291.146 619.664,293.813 619.5,296.5 Z"/></g>
<g><path style="opacity:1" fill="#ebebeb" d="M 811.5,271.5 C 811.5,285.833 811.5,300.167 811.5,314.5C 810.167,314.5 808.833,314.5 807.5,314.5C 806.922,313.453 806.256,313.62 805.5,315C 801.726,316.183 798.559,315.349 796,312.5C 794.437,304.913 794.104,297.246 795,289.5C 797.387,283.402 801.387,282.069 807,285.5C 807.499,280.845 807.666,276.179 807.5,271.5C 808.833,271.5 810.167,271.5 811.5,271.5 Z"/></g>
<g><path style="opacity:1" fill="#5a595a" d="M 936.5,286.5 C 935.432,287.434 934.099,287.768 932.5,287.5C 932.5,295.167 932.5,302.833 932.5,310.5C 931.508,302.684 931.174,294.684 931.5,286.5C 933.167,286.5 934.833,286.5 936.5,286.5 Z"/></g>
<g><path style="opacity:1" fill="#f2f3f3" d="M 665.5,286.5 C 666.472,295.75 666.805,305.083 666.5,314.5C 665.5,314.5 664.5,314.5 663.5,314.5C 663.826,305.651 663.493,296.984 662.5,288.5C 659.742,286.952 657.242,287.285 655,289.5C 654.5,297.827 654.334,306.16 654.5,314.5C 653.167,314.5 651.833,314.5 650.5,314.5C 650.5,304.5 650.5,294.5 650.5,284.5C 652.451,284.227 653.951,284.893 655,286.5C 658.785,282.605 662.285,282.605 665.5,286.5 Z"/></g>
<g><path style="opacity:1" fill="#1a1919" d="M 801.5,287.5 C 803.262,287.357 804.929,287.691 806.5,288.5C 807.665,295.811 807.831,303.144 807,310.5C 804.16,313.371 801.826,313.037 800,309.5C 799.333,302.833 799.333,296.167 800,289.5C 800.717,288.956 801.217,288.289 801.5,287.5 Z"/></g>
<g><path style="opacity:1" fill="#1c1b1b" d="M 988.5,288.5 C 987.089,290.914 985.089,292.581 982.5,293.5C 982.305,288.669 984.305,287.003 988.5,288.5 Z"/></g>
<g><path style="opacity:1" fill="#8b8b8b" d="M 988.5,288.5 C 989.117,288.611 989.617,288.944 990,289.5C 990.497,291.81 990.663,294.143 990.5,296.5C 987.833,296.5 985.167,296.5 982.5,296.5C 982.5,295.5 982.5,294.5 982.5,293.5C 985.089,292.581 987.089,290.914 988.5,288.5 Z"/></g>
<g><path style="opacity:1" fill="#afafaf" d="M 665.5,286.5 C 666.167,286.5 666.833,286.5 667.5,286.5C 667.842,287.338 668.508,287.672 669.5,287.5C 667.569,296.57 666.903,305.903 667.5,315.5C 665.833,315.5 664.167,315.5 662.5,315.5C 662.5,306.5 662.5,297.5 662.5,288.5C 663.493,296.984 663.826,305.651 663.5,314.5C 664.5,314.5 665.5,314.5 666.5,314.5C 666.805,305.083 666.472,295.75 665.5,286.5 Z"/></g>
<g><path style="opacity:1" fill="#b3b4b4" d="M 908.5,310.5 C 907.507,302.016 907.174,293.349 907.5,284.5C 906.5,284.5 905.5,284.5 904.5,284.5C 904.5,293.833 904.5,303.167 904.5,312.5C 903.506,303.014 903.173,293.348 903.5,283.5C 905.167,283.5 906.833,283.5 908.5,283.5C 908.5,292.5 908.5,301.5 908.5,310.5 Z"/></g>
<g><path style="opacity:1" fill="#777777" d="M 480.5,286.5 C 481.833,286.5 483.167,286.5 484.5,286.5C 484.5,294.833 484.5,303.167 484.5,311.5C 483.508,303.684 483.174,295.684 483.5,287.5C 482.209,287.737 481.209,287.404 480.5,286.5 Z"/></g>
<g><path style="opacity:1" fill="#949393" d="M 777.5,284.5 C 778.494,294.653 778.828,304.986 778.5,315.5C 776.585,315.784 774.919,315.451 773.5,314.5C 774.833,314.5 776.167,314.5 777.5,314.5C 777.5,304.5 777.5,294.5 777.5,284.5 Z"/></g>
<g><path style="opacity:1" fill="#f2f2f2" d="M 844.5,287.5 C 844.5,296.5 844.5,305.5 844.5,314.5C 843.167,314.5 841.833,314.5 840.5,314.5C 840.666,305.827 840.5,297.16 840,288.5C 837.544,287.158 835.378,287.491 833.5,289.5C 832.507,297.65 832.174,305.983 832.5,314.5C 831.167,314.5 829.833,314.5 828.5,314.5C 828.5,304.5 828.5,294.5 828.5,284.5C 830.492,284.328 832.158,284.995 833.5,286.5C 834.107,286.376 834.44,286.043 834.5,285.5C 836.926,283.782 839.593,283.282 842.5,284C 843.823,284.816 844.489,285.983 844.5,287.5 Z"/></g>
<g><path style="opacity:1" fill="#929292" d="M 418.5,284.5 C 418.5,294.5 418.5,304.5 418.5,314.5C 419.833,314.5 421.167,314.5 422.5,314.5C 421.081,315.451 419.415,315.784 417.5,315.5C 417.172,304.986 417.506,294.653 418.5,284.5 Z"/></g>
<g><path style="opacity:1" fill="#969697" d="M 900.5,274.5 C 897.038,275.482 893.371,275.815 889.5,275.5C 889.5,280.5 889.5,285.5 889.5,290.5C 892.5,290.5 895.5,290.5 898.5,290.5C 898.5,291.833 898.5,293.167 898.5,294.5C 895.5,294.5 892.5,294.5 889.5,294.5C 889.5,301.5 889.5,308.5 889.5,315.5C 887.585,315.784 885.919,315.451 884.5,314.5C 885.833,314.5 887.167,314.5 888.5,314.5C 888.5,307.5 888.5,300.5 888.5,293.5C 900.5,292.833 900.5,292.167 888.5,291.5C 888.5,285.833 888.5,280.167 888.5,274.5C 892.5,274.5 896.5,274.5 900.5,274.5 Z"/></g>
<g><path style="opacity:1" fill="#7b7b7a" d="M 519.5,288.5 C 520.493,296.984 520.826,305.651 520.5,314.5C 521.833,314.5 523.167,314.5 524.5,314.5C 523.081,315.451 521.415,315.784 519.5,315.5C 519.5,306.5 519.5,297.5 519.5,288.5 Z"/></g>
<g><path style="opacity:1" fill="#f2f2f2" d="M 597.5,291.5 C 596.508,298.982 596.175,306.648 596.5,314.5C 595.167,314.5 593.833,314.5 592.5,314.5C 592.5,304.5 592.5,294.5 592.5,284.5C 593.833,284.5 595.167,284.5 596.5,284.5C 596.281,285.675 596.614,286.675 597.5,287.5C 598.107,287.376 598.44,287.043 598.5,286.5C 599.911,284.461 601.911,283.461 604.5,283.5C 604.5,285.167 604.5,286.833 604.5,288.5C 601.369,287.908 599.036,288.908 597.5,291.5 Z"/></g>
<g><path style="opacity:1" fill="#f0f0f0" d="M 777.5,284.5 C 777.5,294.5 777.5,304.5 777.5,314.5C 776.167,314.5 774.833,314.5 773.5,314.5C 773.5,304.5 773.5,294.5 773.5,284.5C 774.833,284.5 776.167,284.5 777.5,284.5 Z"/></g>
<g><path style="opacity:1" fill="#666565" d="M 833.5,289.5 C 833.5,298.167 833.5,306.833 833.5,315.5C 831.585,315.784 829.919,315.451 828.5,314.5C 829.833,314.5 831.167,314.5 832.5,314.5C 832.174,305.983 832.507,297.65 833.5,289.5 Z"/></g>
<g><path style="opacity:1" fill="#9fa09f" d="M 565.5,271.5 C 565.5,285.833 565.5,300.167 565.5,314.5C 569.833,314.5 574.167,314.5 578.5,314.5C 574.03,315.486 569.363,315.819 564.5,315.5C 564.171,300.657 564.504,285.99 565.5,271.5 Z"/></g>
<g><path style="opacity:1" fill="#a3a3a3" d="M 784.5,271.5 C 786.167,271.5 787.833,271.5 789.5,271.5C 789.5,286.167 789.5,300.833 789.5,315.5C 787.833,315.5 786.167,315.5 784.5,315.5C 784.5,300.833 784.5,286.167 784.5,271.5 Z"/></g>
<g><path style="opacity:1" fill="#fdfdfd" d="M 785.5,272.5 C 786.5,272.5 787.5,272.5 788.5,272.5C 788.5,286.5 788.5,300.5 788.5,314.5C 787.5,314.5 786.5,314.5 785.5,314.5C 785.5,300.5 785.5,286.5 785.5,272.5 Z"/></g>
<g><path style="opacity:1" fill="#969594" d="M 844.5,287.5 C 845.494,296.652 845.827,305.985 845.5,315.5C 843.585,315.784 841.919,315.451 840.5,314.5C 841.833,314.5 843.167,314.5 844.5,314.5C 844.5,305.5 844.5,296.5 844.5,287.5 Z"/></g>
<g><path style="opacity:1" fill="#7a7a79" d="M 434.5,288.5 C 435.493,297.318 435.827,306.318 435.5,315.5C 433.585,315.784 431.919,315.451 430.5,314.5C 431.833,314.5 433.167,314.5 434.5,314.5C 434.5,305.833 434.5,297.167 434.5,288.5 Z"/></g>
<g><path style="opacity:1" fill="#f0f0f0" d="M 725.5,271.5 C 729.846,271.334 734.179,271.501 738.5,272C 741.196,272.69 743.363,274.19 745,276.5C 745.667,280.167 745.667,283.833 745,287.5C 744.167,289.667 742.667,291.167 740.5,292C 742.624,293.122 744.457,294.622 746,296.5C 747.223,302.379 746.389,307.879 743.5,313C 742.255,313.791 740.922,314.291 739.5,314.5C 734.833,314.5 730.167,314.5 725.5,314.5C 725.5,300.167 725.5,285.833 725.5,271.5 Z"/></g>
<g><path style="opacity:1" fill="#1c1c1c" d="M 730.5,275.5 C 741.314,274.812 744.314,279.312 739.5,289C 738.552,289.483 737.552,289.649 736.5,289.5C 734.5,289.5 732.5,289.5 730.5,289.5C 730.5,284.833 730.5,280.167 730.5,275.5 Z"/></g>
<g><path style="opacity:1" fill="#6d6d6d" d="M 730.5,275.5 C 730.5,280.167 730.5,284.833 730.5,289.5C 732.5,289.5 734.5,289.5 736.5,289.5C 734.393,290.468 732.059,290.802 729.5,290.5C 729.179,285.305 729.513,280.305 730.5,275.5 Z"/></g>
<g><path style="opacity:1" fill="#717170" d="M 811.5,271.5 C 812.496,285.99 812.829,300.657 812.5,315.5C 810.585,315.784 808.919,315.451 807.5,314.5C 808.833,314.5 810.167,314.5 811.5,314.5C 811.5,300.167 811.5,285.833 811.5,271.5 Z"/></g>
<g><path style="opacity:1" fill="#b3b3b2" d="M 623.5,290.5 C 624.477,293.287 624.81,296.287 624.5,299.5C 620.5,299.5 616.5,299.5 612.5,299.5C 612.5,302.5 612.5,305.5 612.5,308.5C 611.521,305.375 611.187,302.042 611.5,298.5C 615.5,298.5 619.5,298.5 623.5,298.5C 623.5,295.833 623.5,293.167 623.5,290.5 Z"/></g>
<g><path style="opacity:1" fill="#676767" d="M 650.5,284.5 C 650.5,294.5 650.5,304.5 650.5,314.5C 651.833,314.5 653.167,314.5 654.5,314.5C 653.081,315.451 651.415,315.784 649.5,315.5C 649.172,304.986 649.506,294.653 650.5,284.5 Z"/></g>
<g><path style="opacity:1" fill="#f1f1f1" d="M 669.5,287.5 C 668.508,287.672 667.842,287.338 667.5,286.5C 671.254,282.616 675.087,282.616 679,286.5C 679.5,296.161 679.666,305.828 679.5,315.5C 678.167,315.5 676.833,315.5 675.5,315.5C 675.666,306.494 675.5,297.494 675,288.5C 673.301,287.594 671.467,287.261 669.5,287.5 Z"/></g>
<g><path style="opacity:1" fill="#727272" d="M 736.5,294.5 C 734.5,294.5 732.5,294.5 730.5,294.5C 730.5,300.167 730.5,305.833 730.5,311.5C 729.51,305.69 729.177,299.69 729.5,293.5C 732.059,293.198 734.393,293.532 736.5,294.5 Z"/></g>
<g><path style="opacity:1" fill="#1c1b1c" d="M 736.5,294.5 C 738.17,294.751 739.67,295.418 741,296.5C 741.667,300.5 741.667,304.5 741,308.5C 738.103,311.231 734.603,312.231 730.5,311.5C 730.5,305.833 730.5,300.167 730.5,294.5C 732.5,294.5 734.5,294.5 736.5,294.5 Z"/></g>
<g><path style="opacity:1" fill="#f2f3f3" d="M 609.5,287.5 C 610.117,287.611 610.617,287.944 611,288.5C 611.498,291.482 611.665,294.482 611.5,297.5C 614.385,297.806 617.052,297.473 619.5,296.5C 620.314,294.369 620.814,292.036 621,289.5C 621.77,288.402 622.603,288.402 623.5,289.5C 623.5,289.833 623.5,290.167 623.5,290.5C 623.5,293.167 623.5,295.833 623.5,298.5C 619.5,298.5 615.5,298.5 611.5,298.5C 611.187,302.042 611.521,305.375 612.5,308.5C 613.636,312.713 615.803,313.38 619,310.5C 619.495,308.527 619.662,306.527 619.5,304.5C 621.167,304.5 622.833,304.5 624.5,304.5C 623.737,315.887 618.57,318.553 609,312.5C 607.477,304.898 607.144,297.232 608,289.5C 608.278,288.584 608.778,287.918 609.5,287.5 Z"/></g>
<g><path style="opacity:1" fill="#e4e4e3" d="M 688.5,283.5 C 695.525,282.532 699.192,285.532 699.5,292.5C 698.167,292.5 696.833,292.5 695.5,292.5C 695.2,288.024 693.033,286.69 689,288.5C 688.333,290.167 688.333,291.833 689,293.5C 693.716,296.549 697.382,300.549 700,305.5C 700.452,313.708 696.619,316.875 688.5,315C 684.61,313.055 682.943,309.888 683.5,305.5C 684.833,305.5 686.167,305.5 687.5,305.5C 687.497,310.815 690.164,312.815 695.5,311.5C 695.752,308.68 695.252,306.014 694,303.5C 690.703,301.205 687.703,298.538 685,295.5C 683.593,290.599 684.76,286.599 688.5,283.5 Z"/></g>
<g><path style="opacity:1" fill="#888889" d="M 920.5,284.5 C 919.167,284.5 917.833,284.5 916.5,284.5C 916.826,293.349 916.493,302.016 915.5,310.5C 915.5,301.5 915.5,292.5 915.5,283.5C 917.415,283.216 919.081,283.549 920.5,284.5 Z"/></g>
<g><path style="opacity:1" fill="#888787" d="M 994.5,289.5 C 996.167,290.833 997.833,292.167 999.5,293.5C 1000.11,295.775 1001.44,297.441 1003.5,298.5C 998.091,299.242 995.091,302.242 994.5,307.5C 994.5,306.5 994.5,305.5 994.5,304.5C 993.167,304.5 991.833,304.5 990.5,304.5C 990.795,306.735 990.461,308.735 989.5,310.5C 989.829,305.487 987.829,301.82 983.5,299.5C 987.167,299.5 990.833,299.5 994.5,299.5C 994.5,296.167 994.5,292.833 994.5,289.5 Z"/></g>
<g><path style="opacity:1" fill="#808080" d="M 407.5,288.5 C 408.493,296.984 408.826,305.651 408.5,314.5C 409.833,314.5 411.167,314.5 412.5,314.5C 411.081,315.451 409.415,315.784 407.5,315.5C 407.5,306.5 407.5,297.5 407.5,288.5 Z"/></g>
<g><path style="opacity:1" fill="#8d8c8c" d="M 501.5,284.5 C 502.494,294.653 502.828,304.986 502.5,315.5C 500.585,315.784 498.919,315.451 497.5,314.5C 498.833,314.5 500.167,314.5 501.5,314.5C 501.5,304.5 501.5,294.5 501.5,284.5 Z"/></g>
<g><path style="opacity:1" fill="#aaaaaa" d="M 512.5,284.5 C 511.167,284.5 509.833,284.5 508.5,284.5C 508.5,294.5 508.5,304.5 508.5,314.5C 509.5,314.5 510.5,314.5 511.5,314.5C 511.174,305.983 511.507,297.65 512.5,289.5C 512.5,298.167 512.5,306.833 512.5,315.5C 510.833,315.5 509.167,315.5 507.5,315.5C 507.5,304.833 507.5,294.167 507.5,283.5C 509.415,283.216 511.081,283.549 512.5,284.5 Z"/></g>
<g><path style="opacity:1" fill="#191818" d="M 983.5,299.5 C 987.829,301.82 989.829,305.487 989.5,310.5C 988.068,312.647 986.235,312.98 984,311.5C 982.286,307.437 982.12,303.437 983.5,299.5 Z"/></g>
<g><path style="opacity:1" fill="#979797" d="M 400.5,284.5 C 399.167,284.5 397.833,284.5 396.5,284.5C 396.5,294.5 396.5,304.5 396.5,314.5C 397.833,314.5 399.167,314.5 400.5,314.5C 399.081,315.451 397.415,315.784 395.5,315.5C 395.5,304.833 395.5,294.167 395.5,283.5C 397.415,283.216 399.081,283.549 400.5,284.5 Z"/></g>
<g><path style="opacity:1" fill="#e9e9e9" d="M 633.5,283.5 C 637.803,282.796 641.303,284.13 644,287.5C 644.248,296.866 644.748,306.2 645.5,315.5C 643.833,315.5 642.167,315.5 640.5,315.5C 640.557,311.867 639.557,311.7 637.5,315C 631.818,316.48 628.818,314.313 628.5,308.5C 628.515,306.366 629.015,304.366 630,302.5C 632.766,299.907 635.933,297.907 639.5,296.5C 640.983,293.388 640.65,290.555 638.5,288C 637.167,287.333 635.833,287.333 634.5,288C 634.529,292.109 632.529,293.943 628.5,293.5C 628.075,289.017 629.741,285.683 633.5,283.5 Z"/></g>
<g><path style="opacity:1" fill="#171716" d="M 639.5,299.5 C 640.641,302.64 640.808,305.973 640,309.5C 638.211,311.229 636.044,311.896 633.5,311.5C 633.337,309.143 633.503,306.81 634,304.5C 635.73,302.598 637.563,300.931 639.5,299.5 Z"/></g>
<g><path style="opacity:1" fill="#e5e5e5" d="M 1003.5,298.5 C 1001.44,297.441 1000.11,295.775 999.5,293.5C 998.413,287.654 1000.75,284.32 1006.5,283.5C 1011.98,283.985 1014.65,286.985 1014.5,292.5C 1012,290.853 1009.5,289.187 1007,287.5C 1003.71,288.138 1002.71,290.138 1004,293.5C 1008,296.167 1011.33,299.5 1014,303.5C 1015.92,314.251 1011.75,317.751 1001.5,314C 999.503,311.508 998.503,308.675 998.5,305.5C 999.833,305.5 1001.17,305.5 1002.5,305.5C 1002.5,308.843 1004,311.177 1007,312.5C 1010.83,310.362 1011.5,307.362 1009,303.5C 1007.19,301.7 1005.35,300.033 1003.5,298.5 Z"/></g>
<g><path style="opacity:1" fill="#e7e6e6" d="M 445.5,283.5 C 449.192,282.971 452.358,283.971 455,286.5C 456.367,290.7 456.867,295.033 456.5,299.5C 452.5,299.5 448.5,299.5 444.5,299.5C 444.021,303.911 444.688,308.078 446.5,312C 451.393,312.114 453.393,309.614 452.5,304.5C 453.833,304.5 455.167,304.5 456.5,304.5C 456.963,313.207 452.963,316.707 444.5,315C 443.333,313.833 442.167,312.667 441,311.5C 439,303.5 439,295.5 441,287.5C 442.397,285.93 443.897,284.596 445.5,283.5 Z"/></g>
<g><path style="opacity:1" fill="#1e1d1d" d="M 446.5,287.5 C 448.722,287.178 450.556,287.845 452,289.5C 452.497,291.81 452.663,294.143 452.5,296.5C 449.833,296.5 447.167,296.5 444.5,296.5C 444.065,293.162 444.732,290.162 446.5,287.5 Z"/></g>
<g><path style="opacity:1" fill="#adacac" d="M 818.5,284.5 C 818.5,294.5 818.5,304.5 818.5,314.5C 819.5,314.5 820.5,314.5 821.5,314.5C 821.5,304.5 821.5,294.5 821.5,284.5C 822.494,294.653 822.828,304.986 822.5,315.5C 820.833,315.5 819.167,315.5 817.5,315.5C 817.172,304.986 817.506,294.653 818.5,284.5 Z"/></g>
<g><path style="opacity:1" fill="#fefefe" d="M 818.5,284.5 C 819.5,284.5 820.5,284.5 821.5,284.5C 821.5,294.5 821.5,304.5 821.5,314.5C 820.5,314.5 819.5,314.5 818.5,314.5C 818.5,304.5 818.5,294.5 818.5,284.5 Z"/></g>
<g><path style="opacity:1" fill="#e4e4e4" d="M 379.5,283.5 C 385.345,282.668 389.179,285.001 391,290.5C 391.839,297.567 391.506,304.567 390,311.5C 387.045,315.277 383.212,316.443 378.5,315C 376.19,313.363 374.69,311.196 374,308.5C 373.333,302.5 373.333,296.5 374,290.5C 374.967,287.379 376.8,285.046 379.5,283.5 Z"/></g>
<g><path style="opacity:1" fill="#1e1d1d" d="M 380.5,287.5 C 382.722,287.178 384.556,287.845 386,289.5C 386.667,296.167 386.667,302.833 386,309.5C 383.127,313.575 380.794,313.242 379,308.5C 378.333,302.167 378.333,295.833 379,289.5C 379.717,288.956 380.217,288.289 380.5,287.5 Z"/></g>
<g><path style="opacity:1" fill="#787777" d="M 963.5,284.5 C 963.5,294.5 963.5,304.5 963.5,314.5C 964.833,314.5 966.167,314.5 967.5,314.5C 966.081,315.451 964.415,315.784 962.5,315.5C 962.172,304.986 962.506,294.653 963.5,284.5 Z"/></g>
<g><path style="opacity:1" fill="#727272" d="M 725.5,271.5 C 725.5,285.833 725.5,300.167 725.5,314.5C 730.167,314.5 734.833,314.5 739.5,314.5C 734.695,315.487 729.695,315.821 724.5,315.5C 724.171,300.657 724.504,285.99 725.5,271.5 Z"/></g>
<g><path style="opacity:1" fill="#e9e8e8" d="M 535.5,283.5 C 539.192,282.971 542.358,283.971 545,286.5C 546.586,285.624 548.086,284.624 549.5,283.5C 549.833,284.167 550.167,284.833 550.5,285.5C 549.64,287.272 548.307,288.605 546.5,289.5C 548.055,294.061 547.555,298.394 545,302.5C 541.247,304.562 537.414,306.228 533.5,307.5C 533.977,308.478 534.643,309.311 535.5,310C 540.422,309.621 544.588,311.121 548,314.5C 549.291,318.672 548.124,321.839 544.5,324C 539.833,324.667 535.167,324.667 530.5,324C 526.558,319.93 526.891,316.096 531.5,312.5C 530.017,309.589 530.35,306.922 532.5,304.5C 529.7,299.853 528.867,294.853 530,289.5C 531.36,286.977 533.193,284.977 535.5,283.5 Z"/></g>
<g><path style="opacity:1" fill="#222121" d="M 535.5,287.5 C 543.003,286.853 545.503,290.186 543,297.5C 541.936,301.295 539.436,302.461 535.5,301C 532.857,296.435 532.857,291.935 535.5,287.5 Z"/></g>
<g><path style="opacity:1" fill="#ebebeb" d="M 466.5,283.5 C 475.046,283.045 478.712,287.045 477.5,295.5C 476.167,295.5 474.833,295.5 473.5,295.5C 474.822,290.007 472.822,287.507 467.5,288C 467,288.5 466.5,289 466,289.5C 465.333,296.5 465.333,303.5 466,310.5C 467.845,312.35 469.845,312.683 472,311.5C 473.252,308.986 473.752,306.32 473.5,303.5C 474.833,303.5 476.167,303.5 477.5,303.5C 478.787,313.049 474.787,316.882 465.5,315C 464.333,313.833 463.167,312.667 462,311.5C 461.333,303.833 461.333,296.167 462,288.5C 463.025,286.313 464.525,284.646 466.5,283.5 Z"/></g>
<g><path style="opacity:1" fill="#7b7b7b" d="M 597.5,291.5 C 597.5,299.5 597.5,307.5 597.5,315.5C 595.585,315.784 593.919,315.451 592.5,314.5C 593.833,314.5 595.167,314.5 596.5,314.5C 596.175,306.648 596.508,298.982 597.5,291.5 Z"/></g>
<g><path style="opacity:1" fill="#e6e5e5" d="M 855.5,283.5 C 859.306,283.02 862.639,284.02 865.5,286.5C 866.914,285.376 868.414,284.376 870,283.5C 871.188,284.563 871.688,285.897 871.5,287.5C 870.178,287.33 869.011,287.663 868,288.5C 870.011,299.031 865.844,304.864 855.5,306C 854.075,307.714 854.408,309.047 856.5,310C 861.141,309.691 864.974,311.191 868,314.5C 869.458,318.781 868.292,321.947 864.5,324C 860.167,324.667 855.833,324.667 851.5,324C 847.356,320.021 847.69,316.355 852.5,313C 849.871,309.801 850.204,306.801 853.5,304C 847.719,296.43 848.386,289.597 855.5,283.5 Z"/></g>
<g><path style="opacity:1" fill="#1d1d1d" d="M 855.5,287.5 C 858.365,287.055 860.865,287.722 863,289.5C 863.956,293.572 863.456,297.405 861.5,301C 858.937,301.918 856.77,301.418 855,299.5C 854.306,295.446 854.473,291.446 855.5,287.5 Z"/></g>
<g><path style="opacity:1" fill="#cdcdcb" d="M 703.5,308.5 C 705.167,308.5 706.833,308.5 708.5,308.5C 708.665,311.85 708.498,315.183 708,318.5C 703.691,322.459 702.858,321.793 705.5,316.5C 703.777,314.132 703.11,311.466 703.5,308.5 Z"/></g>
<g><path style="opacity:1" fill="#ededee" d="M 908.5,310.5 C 908.866,311.695 909.699,312.361 911,312.5C 912.585,311.956 914.085,311.289 915.5,310.5C 916.493,302.016 916.826,293.349 916.5,284.5C 917.833,284.5 919.167,284.5 920.5,284.5C 920.5,294.833 920.5,305.167 920.5,315.5C 918.234,315.859 916.401,315.192 915,313.5C 910.945,316.453 907.445,316.12 904.5,312.5C 904.5,303.167 904.5,293.833 904.5,284.5C 905.5,284.5 906.5,284.5 907.5,284.5C 907.174,293.349 907.507,302.016 908.5,310.5 Z"/></g>
<g><path style="opacity:1" fill="#bcbcbc" d="M 944.5,284.5 C 945.33,293.324 945.83,302.324 946,311.5C 948.155,312.683 950.155,312.35 952,310.5C 952.17,301.657 952.67,292.99 953.5,284.5C 953.5,294.5 953.5,304.5 953.5,314.5C 954.5,314.5 955.5,314.5 956.5,314.5C 956.5,304.5 956.5,294.5 956.5,284.5C 957.494,294.653 957.828,304.986 957.5,315.5C 955.179,315.771 953.179,315.104 951.5,313.5C 948.091,316.145 944.757,316.145 941.5,313.5C 942.5,313.5 943.5,313.5 944.5,313.5C 944.5,303.833 944.5,294.167 944.5,284.5 Z"/></g>
<g><path style="opacity:1" fill="#fcfcfc" d="M 953.5,284.5 C 954.5,284.5 955.5,284.5 956.5,284.5C 956.5,294.5 956.5,304.5 956.5,314.5C 955.5,314.5 954.5,314.5 953.5,314.5C 953.5,304.5 953.5,294.5 953.5,284.5 Z"/></g>
<g><path style="opacity:1" fill="#1f1e1e" d="M 534.5,313.5 C 537.522,313.804 540.522,314.304 543.5,315C 545.14,317.776 544.473,319.776 541.5,321C 538.833,321.667 536.167,321.667 533.5,321C 532.426,320.261 531.759,319.261 531.5,318C 532.315,316.357 533.315,314.857 534.5,313.5 Z"/></g>
<g><path style="opacity:1" fill="#1d1c1c" d="M 854.5,313.5 C 857.487,313.998 860.487,314.498 863.5,315C 864.76,316.814 864.76,318.647 863.5,320.5C 860.562,321.575 857.562,321.741 854.5,321C 852.112,318.597 852.112,316.097 854.5,313.5 Z"/></g>
</svg>
