<svg xmlns="http://www.w3.org/2000/svg" version="1.1" xmlns:xlink="http://www.w3.org/1999/xlink" xmlns:svgjs="http://svgjs.dev/svgjs" width="2000" height="661" viewBox="0 0 2000 661"><g transform="matrix(1,0,0,1,-1.2121212121212466,-0.6065944785232205)"><svg viewBox="0 0 396 131" data-background-color="#ffffff" preserveAspectRatio="xMidYMid meet" height="661" width="2000" xmlns="http://www.w3.org/2000/svg" xmlns:xlink="http://www.w3.org/1999/xlink"><g id="tight-bounds" transform="matrix(1,0,0,1,0.2400000000000091,0.12021766518387267)"><svg viewBox="0 0 395.52 130.75956466963225" height="130.75956466963225" width="395.52"><g><svg viewBox="0 0 593.0750087394761 196.07157655545166" height="130.75956466963225" width="395.52"><g transform="matrix(1,0,0,1,197.55500873947605,0)"><svg viewBox="0 0 395.52 196.07157655545166" height="196.07157655545166" width="395.52"><g id="textblocktransform"><svg viewBox="0 0 395.52 196.07157655545166" height="196.07157655545166" width="395.52" id="textblock"><g><svg viewBox="0 0 395.52 132.76099196646874" height="132.76099196646874" width="395.52"><g transform="matrix(1,0,0,1,0,0)"><svg width="395.52" viewBox="4.05 -38.8 143.14 48.05" height="132.76099196646874" data-palette-color="#ffffff"><path d="M17.3-29.5L11.45-5.15Q12-5.05 12.73-5.03 13.45-5 15-5L15-5Q18.6-5 21.5-6.15 24.4-7.3 26.43-9.43 28.45-11.55 29.55-14.53 30.65-17.5 30.65-21.15L30.65-21.15Q30.65-25.1 28.4-27.4 26.15-29.7 21.05-29.7L21.05-29.7Q19.75-29.7 18.98-29.65 18.2-29.6 17.3-29.5L17.3-29.5ZM37.15-21.35L37.15-21.35Q37.15-16.7 35.65-12.7 34.15-8.7 31.2-5.8 28.25-2.9 23.83-1.25 19.4 0.4 13.55 0.4L13.55 0.4Q11.45 0.4 8.85 0.18 6.25-0.05 4.05-0.55L4.05-0.55 12.1-34.1Q14.55-34.65 17.05-34.83 19.55-35 21.65-35L21.65-35Q25.45-35 28.35-34.02 31.25-33.05 33.2-31.28 35.15-29.5 36.15-26.98 37.15-24.45 37.15-21.35ZM47.85-4.6L47.85-4.6Q49.2-4.6 50.52-4.85 51.85-5.1 52.92-5.7 54-6.3 54.65-7.33 55.3-8.35 55.3-9.9L55.3-9.9Q55.3-11.05 54.8-11.88 54.3-12.7 53.45-13.35 52.6-14 51.52-14.58 50.45-15.15 49.25-15.8L49.25-15.8Q47.95-16.45 46.77-17.28 45.6-18.1 44.7-19.15 43.8-20.2 43.27-21.6 42.75-23 42.75-24.9L42.75-24.9Q42.75-27.2 43.62-29.13 44.5-31.05 46.22-32.45 47.95-33.85 50.47-34.65 53-35.45 56.35-35.45L56.35-35.45Q57.9-35.45 59.32-35.2 60.75-34.95 62-34.58 63.25-34.2 64.2-33.75 65.15-33.3 65.7-32.9L65.7-32.9 62.95-28.1Q61.9-28.95 60.02-29.55 58.15-30.15 55.9-30.15L55.9-30.15Q54.55-30.15 53.32-29.88 52.1-29.6 51.17-29.03 50.25-28.45 49.72-27.53 49.2-26.6 49.2-25.35L49.2-25.35Q49.2-24.2 49.57-23.45 49.95-22.7 50.62-22.13 51.3-21.55 52.2-21.08 53.1-20.6 54.15-20L54.15-20Q55.7-19.15 57.07-18.3 58.45-17.45 59.5-16.35 60.55-15.25 61.17-13.83 61.8-12.4 61.8-10.4L61.8-10.4Q61.8-7.6 60.75-5.5 59.7-3.4 57.8-2.02 55.9-0.65 53.3 0.05 50.7 0.75 47.6 0.75L47.6 0.75Q45.55 0.75 43.82 0.45 42.1 0.15 40.75-0.3 39.4-0.75 38.42-1.25 37.45-1.75 36.9-2.15L36.9-2.15 39.7-7.1Q40.2-6.75 41.02-6.3 41.85-5.85 42.9-5.48 43.95-5.1 45.2-4.85 46.45-4.6 47.85-4.6ZM71.15 0L65.1 0 74.15-37.8 80.45-38.8 77.35-25.95Q78.35-26.2 79.52-26.43 80.7-26.65 81.85-26.65L81.85-26.65Q84.05-26.65 85.62-26.03 87.2-25.4 88.22-24.3 89.25-23.2 89.72-21.65 90.2-20.1 90.2-18.3L90.2-18.3Q90.2-16.15 89.6-13.75L89.6-13.75 86.3 0 80.25 0 83.4-13.1Q83.65-14.25 83.9-15.45 84.15-16.65 84.15-17.7L84.15-17.7Q84.15-19.35 83.27-20.48 82.4-21.6 79.95-21.6L79.95-21.6Q78.95-21.6 77.95-21.43 76.95-21.25 76.15-21L76.15-21 71.15 0ZM103.99 0.7L103.99 0.7Q99.34 0.7 96.89-2.05 94.44-4.8 94.44-9.3L94.44-9.3Q94.44-12.2 95.34-15.3 96.24-18.4 98.09-20.95 99.94-23.5 102.74-25.15 105.54-26.8 109.34-26.8L109.34-26.8Q113.99-26.8 116.44-24.08 118.89-21.35 118.89-16.85L118.89-16.85Q118.89-13.9 118.02-10.8 117.14-7.7 115.32-5.15 113.49-2.6 110.67-0.95 107.84 0.7 103.99 0.7ZM108.59-21.7L108.59-21.7Q106.64-21.7 105.12-20.58 103.59-19.45 102.57-17.7 101.54-15.95 100.99-13.88 100.44-11.8 100.44-9.85L100.44-9.85Q100.44-7.35 101.39-5.9 102.34-4.45 104.74-4.45L104.74-4.45Q106.69-4.45 108.22-5.58 109.74-6.7 110.77-8.43 111.79-10.15 112.34-12.25 112.89-14.35 112.89-16.25L112.89-16.25Q112.89-18.75 111.94-20.23 110.99-21.7 108.59-21.7ZM132.54-21.2L128.59-4.7Q129.09-4.6 129.64-4.58 130.19-4.55 130.74-4.55L130.74-4.55Q133.14-4.55 135.07-5.48 136.99-6.4 138.34-7.98 139.69-9.55 140.42-11.68 141.14-13.8 141.14-16.2L141.14-16.2Q141.14-17.3 140.89-18.28 140.64-19.25 140.07-20 139.49-20.75 138.52-21.2 137.54-21.65 136.04-21.65L136.04-21.65Q135.04-21.65 134.14-21.53 133.24-21.4 132.54-21.2L132.54-21.2ZM147.19-16.75L147.19-16.75Q147.19-13.2 146.07-10.08 144.94-6.95 142.77-4.6 140.59-2.25 137.47-0.88 134.34 0.5 130.29 0.5L130.29 0.5Q129.59 0.5 128.87 0.43 128.14 0.35 127.44 0.25L127.44 0.25 125.24 9.25 119.19 9.25 127.44-25.1Q129.49-25.85 132.02-26.3 134.54-26.75 137.09-26.75L137.09-26.75Q139.69-26.75 141.62-25.98 143.54-25.2 144.77-23.85 145.99-22.5 146.59-20.68 147.19-18.85 147.19-16.75Z" opacity="1" transform="matrix(1,0,0,1,0,0)" fill="#ffffff" class="wordmark-text-0" data-fill-palette-color="primary" id="text-0"></path></svg></g></svg></g><g transform="matrix(1,0,0,1,0,164.1026759059448)"><svg viewBox="0 0 395.52 31.968900649506864" height="31.968900649506864" width="395.52"><g transform="matrix(1,0,0,1,0,0)"><svg width="395.52" viewBox="2.7 -40.9 623.4599999999999 50.4" height="31.968900649506864" data-palette-color="#ffffff"><path d="M12.95 0.5L12.95 0.5Q8.85 0.5 6.63-1.2 4.4-2.9 3.55-5.78 2.7-8.65 2.7-12.15L2.7-12.15 2.7-28.25Q2.7-32 3.58-34.85 4.45-37.7 6.7-39.3 8.95-40.9 12.95-40.9L12.95-40.9Q16.6-40.9 18.68-39.5 20.75-38.1 21.65-35.52 22.55-32.95 22.55-29.4L22.55-29.4 22.55-26.95 18.95-26.95 18.95-29.3Q18.95-31.95 18.53-33.85 18.1-35.75 16.8-36.8 15.5-37.85 13-37.85L13-37.85Q10.25-37.85 8.88-36.73 7.5-35.6 7.03-33.55 6.55-31.5 6.55-28.8L6.55-28.8 6.55-11.55Q6.55-8.55 7.13-6.55 7.7-4.55 9.1-3.55 10.5-2.55 13-2.55L13-2.55Q15.55-2.55 16.82-3.65 18.1-4.75 18.53-6.73 18.95-8.7 18.95-11.35L18.95-11.35 18.95-14 22.55-14 22.55-11.6Q22.55-8.05 21.73-5.33 20.9-2.6 18.82-1.05 16.75 0.5 12.95 0.5ZM34.9 0.45L34.9 0.45Q31.95 0.45 30.27-0.83 28.6-2.1 27.9-4.53 27.2-6.95 27.2-10.45L27.2-10.45 27.2-18.45Q27.2-21.95 27.9-24.38 28.6-26.8 30.27-28.08 31.95-29.35 34.9-29.35L34.9-29.35Q37.95-29.35 39.6-28.08 41.25-26.8 41.95-24.38 42.65-21.95 42.65-18.45L42.65-18.45 42.65-10.45Q42.65-6.95 41.95-4.53 41.25-2.1 39.6-0.83 37.95 0.45 34.9 0.45ZM34.9-2.3L34.9-2.3Q36.8-2.3 37.67-3.3 38.55-4.3 38.75-6.13 38.95-7.95 38.95-10.25L38.95-10.25 38.95-18.65Q38.95-21 38.75-22.78 38.55-24.55 37.67-25.58 36.8-26.6 34.9-26.6L34.9-26.6Q33-26.6 32.15-25.58 31.3-24.55 31.1-22.78 30.9-21 30.9-18.65L30.9-18.65 30.9-10.25Q30.9-7.95 31.1-6.13 31.3-4.3 32.15-3.3 33-2.3 34.9-2.3ZM51.35 0L47.7 0 47.7-28.9 51.35-28.9 51.35-25.9Q52.75-27.4 54.5-28.38 56.25-29.35 58.3-29.35L58.3-29.35Q59.75-29.35 60.75-28.63 61.75-27.9 62.25-26.53 62.75-25.15 62.75-23.2L62.75-23.2 62.75 0 59.1 0 59.1-22.4Q59.1-24.65 58.42-25.58 57.75-26.5 56.35-26.5L56.35-26.5Q55.1-26.5 53.8-25.75 52.5-25 51.35-23.8L51.35-23.8 51.35 0ZM71.79 0L68.14 0 68.14-28.9 71.79-28.9 71.79-25.9Q73.19-27.4 74.94-28.38 76.69-29.35 78.74-29.35L78.74-29.35Q80.19-29.35 81.19-28.63 82.19-27.9 82.69-26.53 83.19-25.15 83.19-23.2L83.19-23.2 83.19 0 79.54 0 79.54-22.4Q79.54-24.65 78.87-25.58 78.19-26.5 76.79-26.5L76.79-26.5Q75.54-26.5 74.24-25.75 72.94-25 71.79-23.8L71.79-23.8 71.79 0ZM95.84 0.45L95.84 0.45Q93.14 0.45 91.42-0.63 89.69-1.7 88.87-4.2 88.04-6.7 88.04-10.85L88.04-10.85 88.04-18.15Q88.04-22.45 88.89-24.88 89.74-27.3 91.49-28.33 93.24-29.35 95.89-29.35L95.89-29.35Q98.94-29.35 100.54-28.05 102.14-26.75 102.77-24.13 103.39-21.5 103.39-17.4L103.39-17.4 103.39-14.8 91.69-14.8 91.69-9.75Q91.69-6.95 92.12-5.33 92.54-3.7 93.47-3 94.39-2.3 95.84-2.3L95.84-2.3Q96.94-2.3 97.84-2.73 98.74-3.15 99.27-4.38 99.79-5.6 99.79-7.85L99.79-7.85 99.79-9.85 103.34-9.85 103.34-8.25Q103.34-4.3 101.72-1.93 100.09 0.45 95.84 0.45ZM91.69-18.85L91.69-16.9 99.79-16.9 99.79-19.3Q99.79-21.6 99.54-23.23 99.29-24.85 98.47-25.73 97.64-26.6 95.84-26.6L95.84-26.6Q94.34-26.6 93.42-25.95 92.49-25.3 92.09-23.63 91.69-21.95 91.69-18.85L91.69-18.85ZM115.54 0.45L115.54 0.45Q112.14 0.45 110.49-1.05 108.84-2.55 108.31-5.13 107.79-7.7 107.79-10.95L107.79-10.95 107.79-17.7Q107.79-21.7 108.44-24.28 109.09-26.85 110.76-28.1 112.44-29.35 115.54-29.35L115.54-29.35Q118.59-29.35 120.19-28.2 121.79-27.05 122.34-24.95 122.89-22.85 122.89-20.1L122.89-20.1 122.89-18.7 119.49-18.7 119.49-20.1Q119.49-22.65 119.11-24.05 118.74-25.45 117.86-26.03 116.99-26.6 115.54-26.6L115.54-26.6Q113.84-26.6 112.94-25.8 112.04-25 111.74-23.18 111.44-21.35 111.44-18.3L111.44-18.3 111.44-10.2Q111.44-5.85 112.29-4.08 113.14-2.3 115.59-2.3L115.59-2.3Q117.29-2.3 118.14-3.08 118.99-3.85 119.24-5.4 119.49-6.95 119.49-9.25L119.49-9.25 119.49-10.85 122.89-10.85 122.89-9.45Q122.89-6.55 122.36-4.33 121.84-2.1 120.24-0.83 118.64 0.45 115.54 0.45ZM134.64 0.35L134.64 0.35Q132.54 0.35 131.41-0.48 130.29-1.3 129.86-2.73 129.44-4.15 129.44-6L129.44-6 129.44-26.5 125.89-26.5 125.89-28.9 129.44-28.9 129.44-37.85 133.09-37.85 133.09-28.9 137.89-28.9 137.89-26.5 133.09-26.5 133.09-6.35Q133.09-4.25 133.56-3.38 134.04-2.5 135.64-2.5L135.64-2.5Q136.09-2.5 136.66-2.58 137.24-2.65 137.74-2.75L137.74-2.75 137.74 0.05Q136.99 0.2 136.19 0.28 135.39 0.35 134.64 0.35ZM145.83 0L142.18 0 142.18-28.9 145.83-28.9 145.83 0ZM145.83-32.9L142.18-32.9 142.18-37.85 145.83-37.85 145.83-32.9ZM155.63 0L151.98 0 151.98-28.9 155.63-28.9 155.63-25.9Q157.03-27.4 158.78-28.38 160.53-29.35 162.58-29.35L162.58-29.35Q164.03-29.35 165.03-28.63 166.03-27.9 166.53-26.53 167.03-25.15 167.03-23.2L167.03-23.2 167.03 0 163.38 0 163.38-22.4Q163.38-24.65 162.71-25.58 162.03-26.5 160.63-26.5L160.63-26.5Q159.38-26.5 158.08-25.75 156.78-25 155.63-23.8L155.63-23.8 155.63 0ZM179.78 9.5L179.78 9.5Q176.93 9.5 174.83 8.95 172.73 8.4 171.6 7.23 170.48 6.05 170.48 4.25L170.48 4.25Q170.48 2.8 171.18 1.6 171.88 0.4 172.98-0.53 174.08-1.45 175.23-2.05L175.23-2.05Q173.58-2.5 172.8-3.3 172.03-4.1 172.03-5.2L172.03-5.2Q172.03-6.7 172.95-7.9 173.88-9.1 175.48-10.45L175.48-10.45Q173.48-11.85 172.65-14.05 171.83-16.25 171.83-19.25L171.83-19.25Q171.83-22.05 172.7-24.33 173.58-26.6 175.35-27.98 177.13-29.35 179.93-29.35L179.93-29.35Q182.48-29.35 183.93-28.3 185.38-27.25 186.13-25.75L186.13-25.75Q186.58-26.45 187.68-27.48 188.78-28.5 190.03-29L190.03-29 190.78-29.25 191.78-26.7Q190.98-26.55 190.03-26.13 189.08-25.7 188.25-25.2 187.43-24.7 187.03-24.2L187.03-24.2Q187.38-23.3 187.65-21.75 187.93-20.2 187.93-19.15L187.93-19.15Q187.93-16.3 187.15-14 186.38-11.7 184.65-10.38 182.93-9.05 179.98-9.05L179.98-9.05Q179.23-9.05 178.4-9.2 177.58-9.35 177.03-9.5L177.03-9.5Q176.33-8.75 175.7-7.88 175.08-7 175.08-6.2L175.08-6.2Q175.08-5.5 175.65-5.13 176.23-4.75 177.48-4.6L177.48-4.6 182.08-3.9Q185.58-3.4 187.45-1.8 189.33-0.2 189.33 2.8L189.33 2.8Q189.33 5.05 188.1 6.55 186.88 8.05 184.75 8.78 182.63 9.5 179.78 9.5ZM179.93 6.55L179.93 6.55Q182.83 6.55 184.63 5.68 186.43 4.8 186.43 2.85L186.43 2.85Q186.43 1.85 186 1.1 185.58 0.35 184.4-0.18 183.23-0.7 180.98-1.05L180.98-1.05 177.28-1.55Q176.53-1.05 175.68-0.33 174.83 0.4 174.2 1.3 173.58 2.2 173.58 3.35L173.58 3.35Q173.58 5 175.15 5.78 176.73 6.55 179.93 6.55ZM179.98-11.7L179.98-11.7Q181.58-11.7 182.5-12.38 183.43-13.05 183.9-14.15 184.38-15.25 184.55-16.6 184.73-17.95 184.73-19.25L184.73-19.25Q184.73-20.55 184.53-21.85 184.33-23.15 183.83-24.28 183.33-25.4 182.4-26.08 181.48-26.75 179.98-26.75L179.98-26.75Q178.48-26.75 177.5-26.05 176.53-25.35 176-24.23 175.48-23.1 175.3-21.8 175.13-20.5 175.13-19.25L175.13-19.25Q175.13-18.05 175.28-16.7 175.43-15.35 175.95-14.23 176.48-13.1 177.45-12.4 178.43-11.7 179.98-11.7ZM214.07 0L204.92 0 204.92-40.5 213.72-40.5Q217.97-40.5 220.35-39.03 222.72-37.55 223.72-34.85 224.72-32.15 224.72-28.6L224.72-28.6 224.72-12.5Q224.72-8.75 223.72-5.93 222.72-3.1 220.42-1.55 218.12 0 214.07 0L214.07 0ZM208.72-37.55L208.72-2.85 213.82-2.85Q217.02-2.85 218.52-4.17 220.02-5.5 220.42-7.83 220.82-10.15 220.82-13.1L220.82-13.1 220.82-28.2Q220.82-31.25 220.3-33.33 219.77-35.4 218.25-36.48 216.72-37.55 213.67-37.55L213.67-37.55 208.72-37.55ZM234.17 0L230.47 0 230.47-28.9 234.17-28.9 234.17-24.95Q235.57-27.25 237.37-28.23 239.17-29.2 240.82-29.2L240.82-29.2Q240.97-29.2 241.12-29.2 241.27-29.2 241.47-29.15L241.47-29.15 241.47-25.25Q241.12-25.4 240.62-25.48 240.12-25.55 239.67-25.55L239.67-25.55Q237.97-25.55 236.6-24.75 235.22-23.95 234.17-22.2L234.17-22.2 234.17 0ZM252.22 0.45L252.22 0.45Q249.52 0.45 247.79-0.63 246.07-1.7 245.24-4.2 244.42-6.7 244.42-10.85L244.42-10.85 244.42-18.15Q244.42-22.45 245.27-24.88 246.12-27.3 247.87-28.33 249.62-29.35 252.27-29.35L252.27-29.35Q255.32-29.35 256.92-28.05 258.52-26.75 259.14-24.13 259.77-21.5 259.77-17.4L259.77-17.4 259.77-14.8 248.07-14.8 248.07-9.75Q248.07-6.95 248.49-5.33 248.92-3.7 249.84-3 250.77-2.3 252.22-2.3L252.22-2.3Q253.32-2.3 254.22-2.73 255.12-3.15 255.64-4.38 256.17-5.6 256.17-7.85L256.17-7.85 256.17-9.85 259.72-9.85 259.72-8.25Q259.72-4.3 258.09-1.93 256.47 0.45 252.22 0.45ZM248.07-18.85L248.07-16.9 256.17-16.9 256.17-19.3Q256.17-21.6 255.92-23.23 255.67-24.85 254.84-25.73 254.02-26.6 252.22-26.6L252.22-26.6Q250.72-26.6 249.79-25.95 248.87-25.3 248.47-23.63 248.07-21.95 248.07-18.85L248.07-18.85ZM269.72 0.45L269.72 0.45Q267.97 0.45 266.67-0.43 265.37-1.3 264.64-2.78 263.92-4.25 263.92-6L263.92-6Q263.92-8.2 264.54-9.75 265.17-11.3 266.54-12.53 267.92-13.75 270.14-14.93 272.37-16.1 275.56-17.55L275.56-17.55 275.56-19.6Q275.56-22.25 275.24-23.78 274.92-25.3 274.14-25.95 273.37-26.6 271.97-26.6L271.97-26.6Q270.81-26.6 269.92-26.15 269.02-25.7 268.47-24.63 267.92-23.55 267.92-21.65L267.92-21.65 267.92-20.65 264.31-20.7Q264.37-25.1 266.19-27.23 268.02-29.35 272.17-29.35L272.17-29.35Q276.06-29.35 277.64-27.03 279.22-24.7 279.22-19.8L279.22-19.8 279.22-5.75Q279.22-5 279.27-3.83 279.31-2.65 279.37-1.6 279.42-0.55 279.47 0L279.47 0 276.22 0Q276.12-0.95 275.92-2.13 275.72-3.3 275.67-4L275.67-4Q275.06-2.25 273.54-0.9 272.02 0.45 269.72 0.45ZM270.87-2.65L270.87-2.65Q271.97-2.65 272.87-3.2 273.77-3.75 274.47-4.53 275.17-5.3 275.56-6.1L275.56-6.1 275.56-15.1Q273.42-14 271.89-13.1 270.37-12.2 269.42-11.35 268.47-10.5 268.02-9.43 267.56-8.35 267.56-6.9L267.56-6.9Q267.56-4.6 268.56-3.63 269.56-2.65 270.87-2.65ZM287.96 0L284.56 0 284.56-28.9 287.96-28.9 287.96-25.95Q289.41-27.65 291.16-28.53 292.91-29.4 294.76-29.4L294.76-29.4Q296.26-29.4 297.54-28.6 298.81-27.8 299.36-25.65L299.36-25.65Q300.86-27.5 302.66-28.45 304.46-29.4 306.46-29.4L306.46-29.4Q307.71-29.4 308.84-28.8 309.96-28.2 310.66-26.75 311.36-25.3 311.36-22.8L311.36-22.8 311.36 0 307.96 0 307.96-22.7Q307.96-25.25 307.14-26.08 306.31-26.9 305.06-26.9L305.06-26.9Q303.66-26.9 302.26-26.1 300.86-25.3 299.61-23.9L299.61-23.9Q299.66-23.65 299.69-23.38 299.71-23.1 299.71-22.8L299.71-22.8 299.71 0 296.26 0 296.26-22.7Q296.26-25.25 295.44-26.08 294.61-26.9 293.36-26.9L293.36-26.9Q292.01-26.9 290.61-26.1 289.21-25.3 287.96-23.95L287.96-23.95 287.96 0ZM323.36 0.45L323.36 0.45Q319.91 0.45 317.86-1.78 315.81-4 315.51-7.75L315.51-7.75 318.56-8.7Q318.86-5.35 320.11-3.83 321.36-2.3 323.61-2.3L323.61-2.3Q325.51-2.3 326.54-3.38 327.56-4.45 327.56-6.4L327.56-6.4Q327.56-7.8 326.71-9.22 325.86-10.65 324.06-12.2L324.06-12.2 320.11-15.6Q318.16-17.25 317.16-18.9 316.16-20.55 316.16-22.85L316.16-22.85Q316.16-24.95 317.04-26.38 317.91-27.8 319.46-28.58 321.01-29.35 323.06-29.35L323.06-29.35Q326.36-29.35 328.06-27.23 329.76-25.1 329.91-21.75L329.91-21.75 327.31-20.9Q327.21-22.85 326.71-24.13 326.21-25.4 325.34-26 324.46-26.6 323.21-26.6L323.21-26.6Q321.56-26.6 320.54-25.68 319.51-24.75 319.51-23.1L319.51-23.1Q319.51-21.8 320.01-20.8 320.51-19.8 321.86-18.55L321.86-18.55 325.96-14.9Q327.16-13.85 328.26-12.65 329.36-11.45 330.06-9.98 330.76-8.5 330.76-6.5L330.76-6.5Q330.76-4.25 329.84-2.73 328.91-1.2 327.26-0.38 325.61 0.45 323.36 0.45ZM335.36 5.8L335.36 5.8 334.56 4.2Q335.91 3.45 336.43 2.48 336.96 1.5 336.96 0L336.96 0 334.81 0 334.81-5.45 338.86-5.45 338.86-0.4Q338.86 2.05 338.06 3.45 337.26 4.85 335.36 5.8ZM364.9 0L354.9 0 354.9-40.5 363.6-40.5Q366.35-40.5 368.25-39.8 370.15-39.1 371.3-37.75 372.45-36.4 372.98-34.52 373.5-32.65 373.5-30.4L373.5-30.4Q373.5-28.45 373.03-26.63 372.55-24.8 371.45-23.53 370.35-22.25 368.35-21.85L368.35-21.85Q370.7-21.2 372.05-19.63 373.4-18.05 373.93-15.98 374.45-13.9 374.45-11.7L374.45-11.7Q374.45-9.3 374.03-7.18 373.6-5.05 372.53-3.45 371.45-1.85 369.6-0.93 367.75 0 364.9 0L364.9 0ZM358.7-20.1L358.7-2.85 364.15-2.85Q368.1-2.85 369.43-5 370.75-7.15 370.75-11.7L370.75-11.7Q370.75-14.15 370.15-16.05 369.55-17.95 368.13-19.03 366.7-20.1 364.25-20.1L364.25-20.1 358.7-20.1ZM358.7-37.55L358.7-23.05 364.2-23.05Q366.55-23.05 367.8-23.98 369.05-24.9 369.55-26.53 370.05-28.15 370.05-30.4L370.05-30.4Q370.05-32.85 369.38-34.45 368.7-36.05 367.05-36.8 365.4-37.55 362.3-37.55L362.3-37.55 358.7-37.55ZM383.5 0.45L383.5 0.45Q382.05 0.45 381.05-0.3 380.05-1.05 379.53-2.4 379-3.75 379-5.7L379-5.7 379-28.9 382.7-28.9 382.7-6.5Q382.7-4.25 383.38-3.35 384.05-2.45 385.45-2.45L385.45-2.45Q386.75-2.45 388.08-3.25 389.4-4.05 390.55-5.3L390.55-5.3 390.55-28.9 394.2-28.9 394.2 0 390.55 0 390.55-3.2Q389.15-1.6 387.35-0.58 385.55 0.45 383.5 0.45ZM403.9 0L400.25 0 400.25-28.9 403.9-28.9 403.9 0ZM403.9-32.9L400.25-32.9 400.25-37.85 403.9-37.85 403.9-32.9ZM414.2 0L410.55 0 410.55-40.5 414.2-40.5 414.2 0ZM426.54 0.45L426.54 0.45Q422.84 0.45 421.22-2.35 419.59-5.15 419.59-11.65L419.59-11.65 419.59-17Q419.59-20.8 420.14-23.55 420.69-26.3 422.17-27.83 423.64-29.35 426.39-29.35L426.39-29.35Q428.09-29.35 429.37-28.58 430.64-27.8 431.49-26.85L431.49-26.85 431.49-40.5 435.14-40.5 435.14 0 431.49 0 431.49-2.05Q430.64-1.1 429.42-0.33 428.19 0.45 426.54 0.45ZM427.29-2.45L427.29-2.45Q428.49-2.45 429.57-3 430.64-3.55 431.49-4.35L431.49-4.35 431.49-24.45Q430.74-25.15 429.64-25.83 428.54-26.5 427.19-26.5L427.19-26.5Q424.79-26.5 424.02-24.38 423.24-22.25 423.24-18.2L423.24-18.2 423.24-11.35Q423.24-8.45 423.57-6.45 423.89-4.45 424.77-3.45 425.64-2.45 427.29-2.45ZM444.84 0L441.19 0 441.19-28.9 444.84-28.9 444.84 0ZM444.84-32.9L441.19-32.9 441.19-37.85 444.84-37.85 444.84-32.9ZM454.64 0L450.99 0 450.99-28.9 454.64-28.9 454.64-25.9Q456.04-27.4 457.79-28.38 459.54-29.35 461.59-29.35L461.59-29.35Q463.04-29.35 464.04-28.63 465.04-27.9 465.54-26.53 466.04-25.15 466.04-23.2L466.04-23.2 466.04 0 462.39 0 462.39-22.4Q462.39-24.65 461.71-25.58 461.04-26.5 459.64-26.5L459.64-26.5Q458.39-26.5 457.09-25.75 455.79-25 454.64-23.8L454.64-23.8 454.64 0ZM478.79 9.5L478.79 9.5Q475.94 9.5 473.84 8.95 471.74 8.4 470.61 7.23 469.49 6.05 469.49 4.25L469.49 4.25Q469.49 2.8 470.19 1.6 470.89 0.4 471.99-0.53 473.09-1.45 474.24-2.05L474.24-2.05Q472.59-2.5 471.81-3.3 471.04-4.1 471.04-5.2L471.04-5.2Q471.04-6.7 471.96-7.9 472.89-9.1 474.49-10.45L474.49-10.45Q472.49-11.85 471.66-14.05 470.84-16.25 470.84-19.25L470.84-19.25Q470.84-22.05 471.71-24.33 472.59-26.6 474.36-27.98 476.14-29.35 478.94-29.35L478.94-29.35Q481.49-29.35 482.94-28.3 484.39-27.25 485.14-25.75L485.14-25.75Q485.59-26.45 486.69-27.48 487.79-28.5 489.04-29L489.04-29 489.79-29.25 490.79-26.7Q489.99-26.55 489.04-26.13 488.09-25.7 487.26-25.2 486.44-24.7 486.04-24.2L486.04-24.2Q486.39-23.3 486.66-21.75 486.94-20.2 486.94-19.15L486.94-19.15Q486.94-16.3 486.16-14 485.39-11.7 483.66-10.38 481.94-9.05 478.99-9.05L478.99-9.05Q478.24-9.05 477.41-9.2 476.59-9.35 476.04-9.5L476.04-9.5Q475.34-8.75 474.71-7.88 474.09-7 474.09-6.2L474.09-6.2Q474.09-5.5 474.66-5.13 475.24-4.75 476.49-4.6L476.49-4.6 481.09-3.9Q484.59-3.4 486.46-1.8 488.34-0.2 488.34 2.8L488.34 2.8Q488.34 5.05 487.11 6.55 485.89 8.05 483.76 8.78 481.64 9.5 478.79 9.5ZM478.94 6.55L478.94 6.55Q481.84 6.55 483.64 5.68 485.44 4.8 485.44 2.85L485.44 2.85Q485.44 1.85 485.01 1.1 484.59 0.35 483.41-0.18 482.24-0.7 479.99-1.05L479.99-1.05 476.29-1.55Q475.54-1.05 474.69-0.33 473.84 0.4 473.21 1.3 472.59 2.2 472.59 3.35L472.59 3.35Q472.59 5 474.16 5.78 475.74 6.55 478.94 6.55ZM478.99-11.7L478.99-11.7Q480.59-11.7 481.51-12.38 482.44-13.05 482.91-14.15 483.39-15.25 483.56-16.6 483.74-17.95 483.74-19.25L483.74-19.25Q483.74-20.55 483.54-21.85 483.34-23.15 482.84-24.28 482.34-25.4 481.41-26.08 480.49-26.75 478.99-26.75L478.99-26.75Q477.49-26.75 476.51-26.05 475.54-25.35 475.01-24.23 474.49-23.1 474.31-21.8 474.14-20.5 474.14-19.25L474.14-19.25Q474.14-18.05 474.29-16.7 474.44-15.35 474.96-14.23 475.49-13.1 476.46-12.4 477.44-11.7 478.99-11.7ZM507.73 0L503.93 0 503.93-40.5 518.48-40.5 518.48-37.65 507.73-37.65 507.73-22.4 516.68-22.4 516.68-19.6 507.73-19.6 507.73 0ZM526.73 0.45L526.73 0.45Q525.28 0.45 524.28-0.3 523.28-1.05 522.75-2.4 522.23-3.75 522.23-5.7L522.23-5.7 522.23-28.9 525.93-28.9 525.93-6.5Q525.93-4.25 526.6-3.35 527.28-2.45 528.68-2.45L528.68-2.45Q529.98-2.45 531.3-3.25 532.63-4.05 533.78-5.3L533.78-5.3 533.78-28.9 537.43-28.9 537.43 0 533.78 0 533.78-3.2Q532.38-1.6 530.58-0.58 528.78 0.45 526.73 0.45ZM549.92 0.35L549.92 0.35Q547.82 0.35 546.7-0.48 545.57-1.3 545.15-2.73 544.73-4.15 544.73-6L544.73-6 544.73-26.5 541.17-26.5 541.17-28.9 544.73-28.9 544.73-37.85 548.38-37.85 548.38-28.9 553.17-28.9 553.17-26.5 548.38-26.5 548.38-6.35Q548.38-4.25 548.85-3.38 549.32-2.5 550.92-2.5L550.92-2.5Q551.38-2.5 551.95-2.58 552.52-2.65 553.02-2.75L553.02-2.75 553.02 0.05Q552.27 0.2 551.48 0.28 550.67 0.35 549.92 0.35ZM561.32 0.45L561.32 0.45Q559.87 0.45 558.87-0.3 557.87-1.05 557.35-2.4 556.82-3.75 556.82-5.7L556.82-5.7 556.82-28.9 560.52-28.9 560.52-6.5Q560.52-4.25 561.2-3.35 561.87-2.45 563.27-2.45L563.27-2.45Q564.57-2.45 565.9-3.25 567.22-4.05 568.37-5.3L568.37-5.3 568.37-28.9 572.02-28.9 572.02 0 568.37 0 568.37-3.2Q566.97-1.6 565.17-0.58 563.37 0.45 561.32 0.45ZM581.62 0L577.92 0 577.92-28.9 581.62-28.9 581.62-24.95Q583.02-27.25 584.82-28.23 586.62-29.2 588.27-29.2L588.27-29.2Q588.42-29.2 588.57-29.2 588.72-29.2 588.92-29.15L588.92-29.15 588.92-25.25Q588.57-25.4 588.07-25.48 587.57-25.55 587.12-25.55L587.12-25.55Q585.42-25.55 584.04-24.75 582.67-23.95 581.62-22.2L581.62-22.2 581.62 0ZM599.67 0.45L599.67 0.45Q596.97 0.45 595.24-0.63 593.52-1.7 592.69-4.2 591.87-6.7 591.87-10.85L591.87-10.85 591.87-18.15Q591.87-22.45 592.72-24.88 593.57-27.3 595.32-28.33 597.07-29.35 599.72-29.35L599.72-29.35Q602.77-29.35 604.37-28.05 605.97-26.75 606.59-24.13 607.22-21.5 607.22-17.4L607.22-17.4 607.22-14.8 595.52-14.8 595.52-9.75Q595.52-6.95 595.94-5.33 596.37-3.7 597.29-3 598.22-2.3 599.67-2.3L599.67-2.3Q600.77-2.3 601.67-2.73 602.57-3.15 603.09-4.38 603.62-5.6 603.62-7.85L603.62-7.85 603.62-9.85 607.17-9.85 607.17-8.25Q607.17-4.3 605.54-1.93 603.92 0.45 599.67 0.45ZM595.52-18.85L595.52-16.9 603.62-16.9 603.62-19.3Q603.62-21.6 603.37-23.23 603.12-24.85 602.29-25.73 601.47-26.6 599.67-26.6L599.67-26.6Q598.17-26.6 597.24-25.95 596.32-25.3 595.92-23.63 595.52-21.95 595.52-18.85L595.52-18.85ZM618.76 0.45L618.76 0.45Q615.31 0.45 613.26-1.78 611.21-4 610.91-7.75L610.91-7.75 613.96-8.7Q614.26-5.35 615.51-3.83 616.76-2.3 619.01-2.3L619.01-2.3Q620.91-2.3 621.94-3.38 622.96-4.45 622.96-6.4L622.96-6.4Q622.96-7.8 622.11-9.22 621.26-10.65 619.46-12.2L619.46-12.2 615.51-15.6Q613.56-17.25 612.56-18.9 611.56-20.55 611.56-22.85L611.56-22.85Q611.56-24.95 612.44-26.38 613.31-27.8 614.86-28.58 616.41-29.35 618.46-29.35L618.46-29.35Q621.76-29.35 623.46-27.23 625.16-25.1 625.31-21.75L625.31-21.75 622.71-20.9Q622.61-22.85 622.11-24.13 621.61-25.4 620.74-26 619.86-26.6 618.61-26.6L618.61-26.6Q616.96-26.6 615.94-25.68 614.91-24.75 614.91-23.1L614.91-23.1Q614.91-21.8 615.41-20.8 615.91-19.8 617.26-18.55L617.26-18.55 621.36-14.9Q622.56-13.85 623.66-12.65 624.76-11.45 625.46-9.98 626.16-8.5 626.16-6.5L626.16-6.5Q626.16-4.25 625.24-2.73 624.31-1.2 622.66-0.38 621.01 0.45 618.76 0.45Z" opacity="1" transform="matrix(1,0,0,1,0,0)" fill="#ffffff" class="slogan-text-1" data-fill-palette-color="secondary" id="text-1"></path></svg></g></svg></g></svg></g></svg></g><g transform="matrix(1,0,0,1,0,14.929125877725838)"><svg viewBox="0 0 166.21332479999998 166.21332479999998" height="166.21332479999998" width="166.21332479999998"><g><svg xmlns="http://www.w3.org/2000/svg" xmlns:xlink="http://www.w3.org/1999/xlink" version="1.1" x="0" y="0" viewBox="19.5 20.5 60 60" enable-background="new 0 0 100 100" xml:space="preserve" height="166.21332479999998" width="166.21332479999998" class="icon-icon-0" data-fill-palette-color="accent" id="icon-0"><path d="M33.5 20.5v16h15v12h-15v14h-14v18h17v-15h15v-14h11v14h17v-45H33.5zM33.5 77.5h-11v-12h11V77.5zM76.5 62.5h-11v-14h-14v-15h-15v-10h40V62.5z" fill="#ffffff" data-fill-palette-color="accent"></path></svg></g></svg></g></svg></g><defs></defs></svg><rect width="395.52" height="130.75956466963225" fill="none" stroke="none" visibility="hidden"></rect></g></svg></g></svg>