<svg version="1.2" xmlns="http://www.w3.org/2000/svg" viewBox="0 0 1792 576" width="1792" height="576"><style>tspan{white-space:pre}</style><path  d="m140.1 44.4c-0.8 0.9-1 18.9-0.9 65.2l0.3 63.9 61 0.5 61 0.5v48.5 48.5l-61 0.5-61 0.5-0.3 56.7-0.2 56.8-10.3 0.1c-5.6 0-30.7 0-55.8 0.1-25.1 0-46.1 0.3-46.8 0.7-0.8 0.5-1 19.5-0.9 73.2l0.3 72.4h69 69l0.5-60.5 0.5-60.5 60.5-0.5 60.5-0.5 0.5-56.5 0.5-56.5h45 45l0.5 56.5 0.5 56.5 67.9 0.3c49.3 0.1 68.3-0.1 69.2-0.9 1.9-1.6 2.1-363.8 0.2-365.7-1.9-1.9-373.1-1.7-374.7 0.2zm350.7 182.8l0.2 158.8h-44.4c-39.6 0-44.5-0.2-45-1.6-0.3-0.9-0.6-26-0.6-55.9 0-44.2-0.2-54.5-1.3-55.4-1-0.8-18-1.2-57.3-1.3l-55.9-0.3-0.3-59.9c-0.1-42.7-0.5-60.3-1.3-61.3-1-1.1-11.4-1.3-60-1-38.5 0.2-59.2 0-59.9-0.7-1.6-1.6-1.3-79.3 0.3-79.9 0.6-0.3 74.1-0.5 163.2-0.4l162 0.2zm-352 232.5l0.2 48.2-3.6 0.7c-3.8 0.7-84.1 0-84.8-0.7-0.6-0.8-1.6-95.6-0.9-96.3 0.4-0.3 20.5-0.5 44.7-0.4l44.1 0.3z"/><path  d="m1338 84c-2.5 0.5-8.9 1.5-14.4 2.4-5.4 0.8-10 1.6-10.1 1.8-0.3 0.3-9.7 44.6-17 80.3-4.9 23.4-5.3 25.6-11 51-1.4 6.6-3.3 15.1-4 19-0.8 3.8-2.6 12.4-4 19-4.6 21.3-4.6 21.8-3.3 22.7 2.4 1.5 14.3 4.7 23.8 6.4 40.6 7.1 75.4-8.7 92.7-42.1 11.3-22 14.4-50.9 7.3-69.8-2.8-7.5-10.2-17.2-16.3-21.3-10.7-7.4-26.2-10.1-40.2-7.1-3.8 0.8-7.2 1.3-7.4 1.1-0.4-0.4 0.7-6.2 8-40.6 2.1-10.3 3.9-19.9 3.9-21.3 0-2.7-0.4-2.8-8-1.5zm16.5 90.4c4.5 1.9 8.2 5.9 10.8 11.6 2.7 5.9 2.9 24.1 0.3 34-3.9 15.2-13.5 29.2-24.2 35.5-6.4 3.8-15.7 5.8-23.7 5.2-3.7-0.2-7-0.7-7.3-1-0.6-0.5 0.4-5.5 7.1-36.2 1.4-6.6 4.2-19.9 6.1-29.5 2-9.6 3.9-17.8 4.2-18.2 2.8-2.8 21.1-3.7 26.7-1.4z"/><path  d="m674 94.6c-34.8 6.7-54.9 27.3-55 56.3 0 21.1 10.8 35.4 37.8 49.7 22.2 11.8 29.2 19.2 29.2 30.9 0 10.5-4.6 17.1-15.1 22-16.4 7.4-43 5.5-59.8-4.4-2.9-1.7-5.3-3.1-5.5-3.1-0.2 0-3.7 5.9-7.7 13.1-8.2 14.9-8.3 13.6 1.3 18.4 11.3 5.9 31.5 10.5 45.4 10.5 27.6 0 55.4-11.7 66.7-28.1 10.6-15.4 12.5-38.6 4.6-54.2-6.5-12.7-14.8-19.4-42.4-34.1-13.9-7.5-19.5-14.2-19.5-23.6 0-13 10.3-21.8 28.2-24.2 11-1.5 23.1 0.5 35.2 5.7 4.8 2 8.8 3.6 9 3.4 0.5-0.8 8.5-14.7 11-19.3 1.5-2.7 2.5-5.5 2.2-6.3-0.8-2-12.1-7.1-22.4-10-7.3-2.1-11.3-2.5-24.7-2.8-8.8-0.2-17.1-0.1-18.5 0.1z"/><path  d="m1254 111.1c-20.9 4.1-20 3.9-21.1 6.7-0.6 1.5-2.1 8.1-3.5 14.7-1.3 6.6-2.6 13-2.9 14.2-0.5 2.2-1 2.3-10.9 2.3h-10.4l-2 8.7c-1.1 4.9-2.3 10.5-2.7 12.5l-0.7 3.8h9.6c7 0 9.6 0.3 9.6 1.2 0 1.9-5.5 30.4-9 46.8-1.7 8-4 19-5.1 24.5-4.1 20.2 0.3 32.5 13.9 39.2 5.4 2.6 6.5 2.8 18.7 2.8 9.9 0 14.2-0.4 18.1-1.8l5.1-1.8 1.7-8.2c0.8-4.5 1.9-10.9 2.2-14.1 0.7-5.6 0.6-5.9-1.2-5.1-5.3 2.2-10.1 3.6-13.9 4.2-5.6 0.7-10.9-2.3-12.5-7.1-1.1-3.6-0.9-4.9 6.1-38.1 1.6-7.7 4.1-19.4 5.4-26 1.4-6.6 2.7-13 3-14.3 0.5-2.2 0.7-2.2 17.5-2.2 9.4 0 17-0.1 17-0.3 0-0.1 0.9-4.9 2-10.7 3-15.6 4.6-14-14.1-14h-16.1l0.6-2.6c1-3.7 6.6-32.5 6.9-34.8 0.3-2.6-0.6-2.7-11.3-0.5z"/><path  d="m1170.9 147c-10.5 1.8-23.3 11.3-30.7 22.9l-2.3 3.6 0.7-11.8 0.6-11.7h-14.1c-13.8 0-14.1 0-14.6 2.2-0.2 1.3-1.4 7-2.6 12.8-2.6 13.2-7.8 38.4-15.9 77-1.2 5.8-3.9 18.1-6 27.5-2.1 9.3-3.6 17.3-3.4 17.7 0.5 0.8 30 0.2 31.4-0.7 0.6-0.4 1-1.3 1-2.1 0-1.7 7.3-35.2 12-55.5 1.7-7 3-13.4 3-14.2 0-3.8 7.6-16.2 13.9-22.6 10.7-10.9 23.3-15.4 34.4-12.3 2 0.6 3.9 0.7 4.1 0.3 0.8-1.2 6.6-27.4 6.6-29.7 0-1.7-0.9-2.4-4.4-3.3-5-1.2-6.9-1.2-13.7-0.1z"/><path  d="m816.5 148.3c-7.1 2.4-15.2 6.6-20.3 10.7-2.7 2.2-5.2 3.7-5.5 3.4-0.3-0.3-0.3-3.2 0-6.5l0.6-5.9h-14.1c-13.9 0-14.2 0-14.7 2.2-0.3 1.3-2.8 13.3-5.5 26.8-6.4 31.7-12.1 59.8-16 78-1.7 8-3.7 17.8-4.6 21.8-0.8 4-1.2 7.7-0.9 8.3 0.7 1.1 28.5 1.2 30.2 0.1 0.5-0.4 2.2-6.3 3.7-13.2 1.4-6.9 3.3-15.4 4.1-19 0.8-3.6 4-17.8 7-31.5 3-13.8 5.9-26.7 6.4-28.8 1.3-5.6 5.3-11 10.7-14.6 10.7-7 24-8 30.8-2.2 4.8 4.1 6.8 14.5 4.7 24.6-0.5 2.2-2.1 9.6-3.5 16.5-1.4 6.9-3.7 17.7-5 24-1.4 6.3-4 18.8-5.9 27.7-1.9 8.9-3.2 16.5-2.9 16.8 0.8 0.8 29.5 0.6 30.8-0.3 0.6-0.4 1.4-2.3 1.7-4.2 0.3-1.9 1.5-7.6 2.6-12.5 1-5 2.7-12.6 3.6-17 2.8-12.9 3.4-15.6 5-23 3.4-14.9 6.4-30.3 7-36 0.7-5.3 1.2-6.5 4.7-9.8 15-14.2 35.6-13.7 39.7 0.9 2.2 7.9 1.9 10-12.5 76.4-2.9 13.5-4.9 24.8-4.5 25.3 0.4 0.4 7.7 0.6 16.1 0.5l15.4-0.3 3.2-15.5c4.1-20.2 9.8-47.5 13.1-62.5 3-13.7 3.6-28 1.4-36.3-0.7-2.9-3-7.9-5.2-11-7-10.7-16.5-15.2-31.6-15.2-12.7 0-24.6 4.8-36.9 14.9-2.7 2.3-5.2 4.1-5.6 4.1-0.3 0-1.6-1.5-2.7-3.4-3-4.8-9.1-10-14.8-12.7-6-2.8-23.4-3.7-29.8-1.6z"/><path  d="m1006.7 145.1c-11.7 1.7-29.7 8.1-29.7 10.5 0 2.4 2.1 21.9 2.5 23.1 0.2 0.7 2.7 0 7.2-2.2 10.6-5.3 17.7-6.8 31.6-6.3l11.9 0.3 3.5 4c3.4 3.9 3.5 4.2 3.1 11.2-0.2 4-0.8 7.7-1.3 8.2-0.6 0.6-9.1 2.2-19 3.6-21.3 3-28.4 4.6-37.4 8.2-21.6 8.6-33.1 24.4-33.1 45.9 0 27.7 26.9 43.7 54.4 32.2 5.6-2.3 17.6-9.9 19.6-12.3 1.5-1.8 3.1-2 2.9-0.3-0.1 0.7-0.1 3.9 0 7l0.1 5.8h15 15v-8.4c0-7.6 1.3-15.4 6.5-39.1 0.8-3.9 2-9 2.5-11.5 0.5-2.5 1.9-8.8 3-14 3.8-17.4 4.2-20.4 3.8-30.5-0.4-11.4-2.2-16.3-8.7-23.7-7.7-8.7-19.9-12.9-37.4-12.7-5.6 0.1-12.8 0.5-16 1zm23.8 75.1c-0.3 1.3-1.2 5.4-2 9.3-3 13.4-4.3 16.1-10.3 21.6-8.1 7.4-14.9 10.4-23.7 10.4-8.6 0-12.5-2.3-15-9-4.1-10.5 3.6-23.7 16.4-28.5 5.4-2.1 24-5.4 32.4-5.9 2.4-0.1 2.7 0.2 2.2 2.1z"/><path  d="m1421 148.8c0 1.4-10.7 52.9-14 67.2-0.4 1.9-1.3 5.7-1.9 8.5-0.7 2.7-1.9 9.7-2.7 15.5-4.1 26.8 6 44.1 27.6 47.9 14 2.4 28.8-2.6 42.3-14.1l5.7-4.9v8.1 8.1l13.7-0.3 13.7-0.3 1.4-7c1.2-6.3 4.6-22.4 10.3-49 1.1-5 2.6-12.2 3.4-16 2.1-10.5 9.2-43.8 11.4-54 1.1-5 2.1-9.3 2.1-9.8 0-0.4-7.4-0.7-16.4-0.7h-16.3l-1.7 8.2c-1 4.6-2.8 13.7-4.2 20.3-1.4 6.6-2.9 13.8-3.4 16-0.5 2.2-3 13.3-5.5 24.8-2.4 11.4-5.4 22.5-6.4 24.6-4.2 8.1-17 16.6-26.8 17.8-6 0.7-12.5-2-15.8-6.5-3-4-2.7-18.4 0.7-31.7 1.4-5.5 3.1-12.7 3.8-16 0.7-3.3 1.9-8.6 2.7-11.7 0.7-3.2 1.8-7.9 2.3-10.5 0.5-2.7 2.3-11.3 3.9-19.3 1.7-8 3.1-14.8 3.1-15.2 0-0.5-7.4-0.8-16.5-0.8-9.1 0-16.5 0.4-16.5 0.8z"/><path  d="m1532.4 171.2c1.2 8.3 3.5 22.5 5.5 34.3 7.3 43 14.1 87.2 14.1 92.2 0 3.7-1 6.2-5.5 13.8-11 18.4-17.2 23-30.2 22.4l-7.6-0.4-2.4 12c-1.2 6.6-2.1 12.5-1.9 13.1 0.5 1.4 9.7 3.4 15.8 3.4 7 0 16.3-2.6 23.3-6.5 11.8-6.6 22.1-19.2 37.5-46 3.4-6.1 15.1-26.3 25.8-45 10.7-18.7 20.4-35.6 21.5-37.5 1-1.9 3.6-6.4 5.7-10 15.1-26 28-48.9 28-49.4 0-0.3-7.6-0.6-16.8-0.6-16.5 0-16.9 0.1-18 2.2-0.7 1.3-2 3.7-2.9 5.3-1 1.7-4.4 7.7-7.7 13.5-3.2 5.8-7.8 13.9-10.1 18-6 10.7-21.7 40.3-25.6 48.2-3.6 7.3-4.9 8.4-4.9 4-0.1-5-8.5-83.1-9.6-88.5l-0.6-2.7h-17-17.1z"/><path  d="m611.4 480.8c-8.4 5.3-9.7 10.6-9.2 39.7 0.3 21.1 0.4 22.2 2.8 27 3.4 6.8 7.3 8.9 16.5 9 12.6 0 17.7-5.5 18.4-19.8l0.3-7.8-3.8 0.3-3.9 0.3-0.6 7.9c-0.5 7-0.8 8.1-3.3 10.2-4 3.5-10.4 3.3-14.4-0.4-4-3.8-4.4-7-4-34l0.3-22.4 3.3-2.9c2.2-2 4.3-2.9 6.7-2.9 8.2 0 11.5 4 11.5 13.8 0 6.2 0.8 7.4 4.6 6.7 1.1-0.2 2.2-0.4 2.7-0.4 1.1-0.1 0.8-10-0.4-14.4-0.6-2.2-2.6-5.5-4.4-7.5-3.3-3.6-3.5-3.7-11.7-4-6.8-0.2-8.8 0-11.4 1.6z"/><path  d="m981.8 479.6c-0.5 0.4-0.8 17.8-0.8 38.7v37.9l12.8-0.3c14.9-0.5 18.2-1.8 22.2-9 2.5-4.4 2.5-4.7 2.5-28.4 0-13.2-0.3-25.2-0.8-26.7-1.2-4.3-6.5-9.7-10.5-10.7-5-1.3-24.5-2.5-25.4-1.5zm25.2 9.2c3.7 3.8 4.3 8.9 3.9 33.6-0.4 17.9-0.6 19.7-2.5 22.3-2.6 3.4-8.3 5.5-14.4 5.1l-4.5-0.3-0.3-31.8-0.2-31.7h7.6c7 0 7.8 0.2 10.4 2.8z"/><path  d="m1263.3 479.6c-1 0.4-1.3 9.1-1.3 38.6v38l13.3-0.4c11.6-0.3 13.6-0.6 16.8-2.6 2-1.2 4.5-3.9 5.4-5.9 2.3-4.8 3.1-15.6 1.5-21.2-1.1-4.3-5-9.2-8-10.3-1.2-0.4-0.8-1.1 1.4-2.8 1.6-1.3 3.5-3.8 4.2-5.6 1.7-4 1.8-13.1 0.3-17.1-1.5-4.1-5.8-8.2-9.8-9.3-4.3-1.2-22.1-2.2-23.8-1.4zm23.7 9.2c3.3 3.4 4.6 9.4 3.1 14.9-1.7 6.2-4.1 7.7-12.7 8.1l-7.4 0.4v-13.1-13.1h7.1c6.4 0 7.3 0.3 9.9 2.8zm0.5 32.2c4.7 4.4 5.9 15.3 2.5 22.7-2.1 4.8-4.2 5.7-13.5 5.8h-6l-0.3-15.9-0.3-15.9 7.6 0.5c6.1 0.4 8 0.9 10 2.8z"/><path  d="m1368.1 480.1l-2.2 0.9 0.2 36.2c0.1 20 0.4 36.9 0.7 37.5 0.2 0.7 1.9 1.3 3.8 1.3h3.4v-37.9c0-35.5-0.1-37.9-1.8-38.3-1-0.3-2.8-0.1-4.1 0.3z"/><path  d="m1406 492v12.1l-3-1.6c-4.1-2.1-10.2-1.9-13.3 0.5-4.8 3.8-6.2 9.8-6.2 26.5 0.1 17.8 1.6 22.9 7.8 25.8 4.4 2.1 5.2 2.1 10.5-0.3 3.7-1.7 4.4-1.7 4.8-0.5 0.8 2 6 1.9 6.8-0.1 0.3-0.9 0.6-18 0.6-38v-36.4h-4-4zm-2.2 16.6c2.1 1.5 2.2 2 2.2 20.5v19l-3.5 1.4c-4.4 1.9-7.8 0.7-9.9-3.6-1.2-2.4-1.6-6.3-1.6-15.9 0-7 0.3-14.1 0.6-15.8 1.3-6.4 7.2-9.1 12.2-5.6z"/><path  d="m1542 518.1v38l3.8-0.3 3.7-0.3 0.3-18.3 0.2-18.2h8 8v-3-3h-8-8v-13.5-13.5h10 10v-3-3h-14-14z"/><path  d="m840 492.5v8.5h-2.9c-1.7 0-3.3 0.5-3.6 1-1.2 2 0.6 4.9 3.3 5.2l2.7 0.3 0.5 22.1c0.4 19.8 0.7 22.4 2.4 24.2 2.2 2.5 6.5 3.6 10.7 2.7 2.5-0.6 3-1.1 2.7-3.3-0.2-2.2-0.9-2.8-3.5-3-2-0.2-3.7-1.1-4.3-2.2-0.6-1.2-0.9-9.5-0.8-21.2l0.3-19.3 4.3-0.3c3.9-0.3 4.2-0.5 4.2-3.3 0-2.8-0.2-2.9-4.5-2.9h-4.5v-8.5-8.5h-3.5-3.5z"/><path  d="m864.7 484.6c-0.4 0.4-0.7 2.7-0.7 5.1 0 4.3 0 4.3 3.6 4.3h3.5l-0.3-4.8c-0.3-4.2-0.6-4.7-2.8-5-1.4-0.2-2.9 0-3.3 0.4z"/><path  d="m1425.8 484.7c-1.4 0.3-1.8 1.5-1.8 4.9v4.4h4 4v-4.4c0-3.1-0.5-4.6-1.6-5-1.7-0.6-1.9-0.6-4.6 0.1z"/><path  d="m1619.3 484.7c-0.9 0.3-1.3 3-1.3 8.3 0 7.8 0 7.9-2.7 8.2-2.2 0.2-2.8 0.8-2.8 2.8 0 2 0.6 2.6 2.8 2.8l2.7 0.3v21c0 23.1 0.5 25.6 5.8 27.8 1.8 0.8 4.4 1 6.6 0.5 3.3-0.6 3.7-1 3.4-3.3-0.2-2.1-0.9-2.7-3.8-3.1l-3.5-0.5-0.3-21.3-0.2-21.2h4c3.8 0 4-0.2 4-3 0-2.8-0.2-3-4-3h-4v-7.9c0-6.3-0.3-8-1.6-8.5-1.8-0.7-3.3-0.7-5.1 0.1z"/><path  d="m1347 489.5v4.5h4 4v-4.5-4.5h-4-4z"/><path  d="m657.3 501.1c-7.6 2.3-9.6 8.8-9.1 29.8 0.3 13.5 0.6 16.1 2.3 19.1 4.4 7.4 15.5 9.2 21.5 3.5 4.7-4.5 5.5-8.3 5.5-25.5 0-17-1.1-21.3-6.5-25.2-3.1-2.2-9.5-3-13.7-1.7zm10.4 7.7c0.7 0.8 1.5 3.4 1.9 5.8 0.8 5.3 0 30.2-1 32.6-1.2 2.7-5.8 4.1-8.9 2.7-3.1-1.4-3.6-3-4.4-14.5-0.9-13.8 0.4-24.1 3.3-27.1 2.6-2.6 6.8-2.4 9.1 0.5z"/><path  d="m702.8 501c-1.5 0.4-3.7 1.5-5 2.4-3 2.1-3.8 2-3.8-0.4 0-1.7-0.7-2-4-2h-4l0.2 27.2 0.3 27.3h3.5 3.5l0.3-22.7 0.2-22.8 3-1.5c4.1-2.1 8.7-1.9 10 0.4 0.6 1.2 1 10.9 1 24.5v22.6h3.5c2.1 0 3.5-0.5 3.5-1.3 0.2-11.1 0.3-31.3 0.2-38.9-0.2-8.5-0.5-10-2.4-12.1-2.6-2.9-6.2-3.8-10-2.7z"/><path  d="m738.3 502.4c-5 2.4-5.2 2.4-5.8 0.5-0.5-1.4-1.6-1.9-4.1-1.9h-3.4v27.5 27.5h3.4 3.3l0.7-11.6c0.4-6.3 0.4-16 0-21.4-0.8-11.8 0.3-14.5 6.3-15.6 6.8-1.3 6.7-1.4 7.3 24.7l0.5 23.4h3.5 3.5l0.3-23.8c0.3-25.9-0.2-28.8-5.4-30.7-3.5-1.4-4.2-1.3-10.1 1.4z"/><path  d="m772 501.1c-7.4 3.1-10 10-10 26.4 0 20.5 3 27.5 12.3 28.9 7 1.1 11.8-1 14.5-6.4 1.2-2.5 2.2-6.3 2.2-8.7 0-4.2 0-4.3-3.5-4.3-3.5 0-3.5 0.1-3.5 4.3 0 6.3-2.2 8.9-7.3 8.5-5.5-0.4-6.7-2.8-6.7-13.5v-8.2l10.8-0.3 10.7-0.3-0.3-8c-0.4-8.8-2.2-13.7-6.4-16.8-3-2.2-9.4-3.1-12.8-1.6zm9.1 6.8c1.9 1.5 2.4 3 2.7 8.5l0.4 6.6h-7.1-7.1l0.1-4.8c0.1-6.7 1.1-9.5 3.9-10.9 3.4-1.7 4.4-1.6 7.1 0.6z"/><path  d="m809.3 500.7c-3.5 0.7-7.9 5.7-9.2 10.6-0.9 2.9-1.2 9.5-0.9 19.3 0.2 12.7 0.6 15.5 2.4 18.9 5.1 9.9 20 10.1 24.4 0.3 2.1-4.6 2.7-13.3 0.9-14.3-0.5-0.4-2.1-0.4-3.5-0.1-2.1 0.6-2.4 1.2-2.4 5.7 0 6.4-3.3 10.3-7.7 9.3-5.5-1.3-5.8-2.1-6.1-20.2-0.2-10.1 0.1-17.8 0.7-19.5 1.2-3.1 4.2-4.6 7.8-3.9 2.9 0.5 4.3 3 5.2 9.1 0.6 4.3 0.8 4.6 3.6 4.6 2.7 0 3-0.3 3.3-3.7 0.5-5.7-1.5-11.4-4.7-13.8-3-2-9.8-3.2-13.8-2.3z"/><path  d="m897.7 501.4c-2 0.8-4.4 1.9-5.2 2.6-1.6 1.4-3.5 0.5-3.5-1.6 0-0.9-1.1-1.4-3.5-1.4h-3.5v27.5 27.5h3.4c4.3 0 4.4-0.3 4.5-25 0-10.7 0.1-19.8 0.1-20.2 0-1.2 5.7-3.8 8.3-3.8 1.4 0 3 0.6 3.6 1.3 0.7 0.9 1.2 9.4 1.3 24.3l0.3 22.9 3.8 0.3 3.7 0.3v-24.1c0-26.8-0.4-28.9-6.1-30.9-1.8-0.6-3.2-1.1-3.3-1.1-0.1 0.1-1.8 0.7-3.9 1.4z"/><path  d="m928 502.2c-2.9 1.5-5 3.6-6.3 6-3.8 7.6-3.1 21.4 1.4 25.9 2.4 2.4 2.4 2.5-0.6 6.1-3 3.6-3.2 7.1-0.5 9.8l2.1 2.1-3.6 3.3c-3 2.8-3.5 4-3.5 7.8 0 3.5 0.6 5 2.6 6.9 2.3 2.1 3.6 2.4 12.3 2.7 8.4 0.3 10.4 0.1 13.9-1.7 5-2.5 6.5-5.2 6.4-10.8-0.1-7.7-5.1-11.2-18.4-12.8-6.2-0.8-8.5-2.9-6.5-5.9 1.1-1.6 2.8-2.2 7.4-2.6 11.3-1 15.8-7.2 15.1-21.4l-0.3-8.1 3.3-1.7c4.4-2.1 4.5-2.3 3.7-4.7-0.9-2.9-3.3-2.6-6.7 0.6l-2.8 2.7-2.2-2.1c-2.4-2.1-7.9-4.3-10.7-4.3-0.9 0-3.7 1-6.1 2.2zm11.7 6.2c2.5 2.2 2.8 3.1 3.1 10.3 0.2 6.5 0 8.4-1.7 11-1.8 2.8-2.6 3.3-6 3.3-5.4 0-7.8-2.7-8.7-9.6-1.7-13.9 5.3-21.8 13.3-15zm-2.7 46.1c6.3 1 9 2.9 9 6.5 0 4.9-4.2 6.5-15.7 6.1-3.3-0.1-4.6-0.6-5.9-2.6-1.4-2.1-1.4-3-0.4-5.5 1.5-3.6 4.8-6.2 7-5.6 0.8 0.3 3.5 0.8 6 1.1z"/><path  d="m1044.5 501.4c-1.7 0.7-3.6 2-4.4 2.9-1.9 2.3-2.9 2.1-3.3-0.6-0.2-1.8-1-2.3-4-2.5l-3.8-0.3v27.6 27.6l3.8-0.3 3.7-0.3 0.5-21.7c0.5-20.2 0.6-21.8 2.5-23.2 2.4-1.7 8.1-3 9.6-2.1 0.7 0.5 0.9-0.8 0.7-3.6-0.3-4.8-1.1-5.3-5.3-3.5z"/><path  d="m1065.6 501c-3.9 1.2-7.3 4.6-8.8 8.9-0.8 2.3-1.3 9-1.3 18.6 0 21.8 2.4 26.9 13.3 28.1 9.1 1 15.2-5 15.2-14.9v-4.7h-3.5-3.5v5c0 3.8-0.5 5.4-2.2 7-2.4 2.2-3.6 2.4-7.1 1.1-3.5-1.3-4.8-5.6-4.5-14.2l0.3-7.4 10.5-0.5 10.5-0.5 0.3-3.4c0.2-1.8-0.2-6.4-0.8-10.2-1.3-7.9-4.6-12.2-10.1-13.3-3.8-0.7-4.5-0.7-8.3 0.4zm9.7 8.3c1.4 1.6 1.7 3.4 1.5 8.1l-0.3 6.1h-6.5-6.5l-0.3-4c-0.2-2.2 0.2-5.7 0.8-7.8 1.7-5.9 7.3-7.1 11.3-2.4z"/><path  d="m1102.9 500.9c-6.4 2.1-9.9 6.6-9.9 13 0 2.9 0.3 3.1 3.5 3.1 3.2 0 3.5-0.3 3.5-2.9 0-6.3 8-10.2 11.4-5.5 1.6 2.1 3.1 11.8 2.1 13.4-0.3 0.5-2.6 1.8-5.1 2.9-6.8 3-13.1 8-14.8 11.6-3.1 6.4-1.6 14.3 3.4 18.2 3 2.4 9.2 1.6 13.3-1.8 3-2.5 3.8-2.8 4.2-1.5 0.3 0.9 0.7 2.3 1 3.2 0.3 1 1.4 1.4 3.2 1.2l2.7-0.3-0.3-22.5c-0.3-24-0.9-27.3-5.5-30.3-2.8-1.9-9.4-2.8-12.7-1.8zm11.1 35.5c0 8.5 0 8.5-3.3 11-3.9 3-6.3 3.3-8.9 0.9-2.3-2.1-2.4-9-0.2-12.2 1.6-2.2 10-8.1 11.6-8.1 0.4 0 0.8 3.8 0.8 8.4z"/><path  d="m1142.8 502.4c-4.5 2.4-4.6 2.4-5.1 0.4-0.4-1.5-1.2-1.9-3.9-1.6l-3.3 0.3v27 27h3.5 3.5l0.3-22.8 0.2-22.8 3.3-1.9c3.5-2.2 6.4-2.5 8.7-1 1.2 0.8 1.6 5 2 24.7l0.5 23.8h3.5 3.5l0.3-22.6c0.2-20.8 0.4-22.8 2.1-24.3 2.7-2.4 9.3-3.2 10.9-1.4 0.8 1 1.2 8.6 1.4 24.9l0.3 23.4h3.5 3.5l0.3-22.1c0.3-26-0.3-28.9-6-31.7-4.5-2.2-8.1-1.7-13.2 1.8l-3.5 2.4-3-2.9c-3.6-3.7-6.9-3.8-13.3-0.6z"/><path  d="m1198.4 501.1c-6.2 1.8-9.8 9.2-8 16.5 0.4 1.6 4.8 6.7 10.7 12.4 8.8 8.6 9.9 10.1 9.9 13.1 0 4.5-1.7 6.7-5.6 7.5-4.1 0.8-8.9-3.2-9.8-8.2-0.5-2.6-1.1-3.4-2.2-3-0.9 0.3-2.3 0.6-3.1 0.6-2.1 0-0.9 6.4 2.2 11.1 3.8 5.9 13.6 7.5 20.3 3.2 4.7-2.9 6.7-12.6 3.8-18.1-0.8-1.5-5.3-6.5-10-11.1-8.6-8.4-10.3-11.2-9.2-14.9 0.9-2.6 5-4.4 7.9-3.3 2.9 1.1 4.4 2.9 5.2 6.4 0.7 2.7 2.8 3.4 5.4 1.8 1.9-1.2 0.6-6.4-2.5-10.1-1.4-1.6-4.2-3.4-6.2-4-4.2-1.1-4.6-1.1-8.8 0.1z"/><path  d="m1460 500.9c-1.4 0.5-4 1.5-5.7 2.4-4.1 2.1-4.3 2.1-4.3-0.4 0-1.7-0.5-2-3.7-1.7l-3.8 0.3-0.3 27.3-0.2 27.3 3.7-0.3 3.8-0.3 0.3-22.2 0.2-22.2 2.7-2c3.5-2.9 8.6-2.8 10.1 0.1 0.8 1.5 1.3 9.9 1.5 24.3l0.2 22h3.5 3.5l0.3-20.5c0.2-11.3 0-22.4-0.3-24.8-1-6.9-5.9-10.9-11.5-9.3z"/><path  d="m1490.6 501c-6.6 2-10.7 9.4-10.7 19.3 0 7 1.2 11.1 4.3 14.5l2.2 2.2-2.7 2.8c-3.4 3.5-3.6 8.4-0.6 10.6 2.1 1.4 2.1 1.5-2 5.4-3.3 3.2-4.1 4.6-4.1 7.5 0 6.9 4.9 9.7 17.1 9.7 12.8 0 18.9-4 18.9-12.4 0-7.6-4.2-10.9-16.2-12.6-8.6-1.3-10.7-2.7-9-6.5 1-2.3 1.7-2.5 6.9-2.5 11.6 0 15.8-5.2 15.8-20l0.1-9.5 3.3-1.7c4.4-2.2 4.4-2.3 3.1-4.7-1.4-2.8-2.9-2.6-6.3 0.5-2.7 2.5-2.9 2.5-4.7 0.9-2-1.8-8.6-4.4-11-4.4-0.8 0.1-2.8 0.5-4.4 0.9zm9.1 6.5c4.5 3.2 5.5 17.2 1.7 23.1-2.4 3.5-8.6 3.4-11.9-0.2-2.2-2.4-2.5-3.6-2.5-10.3 0-7.4 1.2-11.1 4.4-13.3 1.8-1.3 6-0.9 8.3 0.7zm3.5 48.3c4.5 1.8 4.9 7.4 0.7 10-3.4 2.1-15.5 1.9-17.9-0.3-2.8-2.5-2.5-6.2 0.8-9.4 2.6-2.7 3.1-2.8 8.2-2.1 3 0.5 6.7 1.3 8.2 1.8z"/><path  d="m1718.1 501c-9.6 2.3-11.3 7.1-10.9 30 0.4 17.6 1 20 5.6 23.5 3.8 2.8 14.1 2.8 17.2 0 6.1-5.5 6.8-17.5 1.1-17.5-1.5 0-1.9 1.1-2.4 5.2-0.8 6.4-3.5 9.3-8.1 8.4-3.7-0.8-5.5-3.2-5.6-7.6-0.2-5.8-0.2-12.4-0.1-13.8q0.2-1.2 5.1-1.2c2.8 0 5-0.4 5-0.8 0-1.2-4.7-3.2-7.5-3.2-3.8 0-4.6-2.7-2.7-10 1.5-5.5 2.1-6.5 4.6-7.1 3.1-0.9 7.1 0.3 7.9 2.3 0.4 0.9 1.1 0.6 2.6-1.2 2.6-3.2 2.6-3.6-0.1-5.4-3.1-1.9-7.7-2.6-11.7-1.6z"/><path  d="m1752.6 501c-3.5 1.1-7.2 4.4-7.9 7.2-0.4 1.3 0.3 2.9 1.8 4.4 3 2.9 4.5 3.1 4.5 0.3 0-4.1 1.8-5.9 5.9-5.9 4.2 0 5.8 1.3 7 5.7 0.5 2.1 1.4 2.9 3.4 3.1 2.3 0.3 2.7 0 2.7-2.3 0-3.8-2.5-9.2-5.2-10.8-3.1-2-8.6-2.7-12.2-1.7z"/><path  d="m864 528.5v27.5h3.5 3.5v-27.5-27.5h-3.5-3.5z"/><path  d="m1307.4 502.4c-0.3 0.8-0.4 11.7-0.2 24.2 0.4 24.9 0.8 27.3 5.8 29.4 3.1 1.3 9.1 0.1 12.4-2.5 2.6-2 3.3-1.9 3.9 0.6 0.4 1.6 1.2 2 3.9 1.7l3.3-0.3v-27-27l-3.7-0.3-3.8-0.3v22.9 23l-2.4 1.6c-3.2 2-8 2.4-10 0.7-1.4-1.2-1.6-4.5-1.6-24.7v-23.4h-3.5c-2.1 0-3.8 0.6-4.1 1.4z"/><path  d="m1347.5 502.2c-0.3 0.7-0.4 13-0.3 27.3l0.3 26h3.5 3.5v-27-27l-3.3-0.3c-2-0.2-3.4 0.2-3.7 1z"/><path  d="m1424 528.5v27.6l3.8-0.3 3.7-0.3v-27-27l-3.7-0.3-3.8-0.3z"/><path  d="m1576.2 525.7c0.3 26.8 0.6 28.1 5.9 30.3 3 1.3 9 0 12.3-2.5 2.6-2 3.3-1.9 3.9 0.5 0.4 1.4 1.4 2 3.5 2h3l0.4-26.3c0.3-14.4 0.3-26.8 0-27.5-0.2-0.6-1.9-1.2-3.8-1.2h-3.4v22.4 22.5l-2.7 2c-3.5 2.8-6.6 3.5-9.2 2.2-2-1.1-2.1-2-2.3-24.9l-0.3-23.7-3.8-0.3-3.8-0.3z"/><path  d="m1641.2 526.5c0.3 24.9 0.3 25.5 2.6 27.7 2.9 2.9 8.7 2.9 13.7-0.1 4.2-2.5 5.5-2.6 5.5-0.7 0 1.7 3.1 2.9 5.2 2.1 1.2-0.5 1.7-3 2.2-10.3 0.7-12.6 0.8-36.8 0-41-0.6-2.9-1-3.2-4-3.2-3.1 0-3.4 0.2-3.5 3.2-0.1 1.8-0.3 12-0.5 22.6-0.2 12.8-0.7 19.8-1.5 20.8-1.7 2.1-7.8 3.5-10 2.3-1.7-0.9-1.9-2.5-2.1-17.7-0.1-9.2-0.1-18.5 0.1-20.7 0.1-2.2-0.1-5.5-0.4-7.3-0.5-2.9-0.9-3.2-4.1-3.2h-3.5z"/><path  d="m1680.2 528.2l0.3 27.3h3.5 3.5l0.3-21.1c0.2-20.9 0.3-21.1 2.7-23.4 1.8-1.7 3.7-2.3 7-2.4l4.5-0.1v-3.8c0-3.5-0.2-3.7-3.3-3.7-2.1 0-4.5 1-7 3.1l-3.7 3v-3c0-2.9-0.2-3.1-4-3.1h-4z"/><path  d="m1752.3 523.2c-1.3 0.6-2.3 1.4-2.3 1.9 0 0.4 2.6 3 5.9 5.8 8.8 7.7 10.8 13.3 6.3 18.3-3.3 3.9-10.1 0.7-12.2-5.7-1.2-3.5-3.1-4.4-5.9-2.6-1.2 0.8-1.3 1.6-0.2 5.2 4.4 14.7 25.4 14.4 27.6-0.4 1-6.2-1.9-12-9.2-18.7-5.7-5.3-6.4-5.5-10-3.8z"/><path  d="m1226.3 545.6c-0.8 0.3-1.3 2.4-1.3 4.9 0 3.3 0.5 4.7 1.9 5.5 2.1 1.1 1.9 4.1-0.5 6.1-1.8 1.5-1.8 3.9-0.1 3.9 0.8 0 2.4-1.2 3.8-2.6 2.1-2.2 2.4-3.5 2.4-10.2 0-7.5-0.1-7.7-2.5-7.9-1.4-0.1-3.1 0.1-3.7 0.3z"/><text style="transform:matrix(1,0,0,1,180,348)" ></text><text style="transform:matrix(1,0,0,1,870,-243)" ></text></svg>