<?xml version="1.0" encoding="UTF-8" standalone="no"?> <svg xmlns="http://www.w3.org/2000/svg" viewBox="0 0 32 32"><defs><style>.cls-1{fill:#00b157;}.cls-2{fill:#00cf66;}.cls-3{fill:#fac100;}.cls-4{fill:#ff9500;}.cls-5{fill:#ff7f00;}</style></defs><title>Money</title><g id="Money"><rect class="cls-1" x="2" y="5" width="24" height="16" rx="5"/><rect class="cls-2" x="2" y="9" width="24" height="16" rx="5"/><path class="cls-1" d="M8,12H7a2,2,0,0,0-2,2v1a1,1,0,0,0,2,0V14H8a1,1,0,0,0,0-2Z"/><path class="cls-1" d="M8,20H7V19a1,1,0,0,0-2,0v1a2,2,0,0,0,2,2H8a1,1,0,0,0,0-2Z"/><path class="cls-1" d="M20,12h1a2,2,0,0,1,2,2v1a1,1,0,0,1-2,0V14H20a1,1,0,0,1,0-2Z"/><path class="cls-1" d="M20,20h1V19a1,1,0,0,1,2,0v1a2,2,0,0,1-2,2H20a1,1,0,0,1,0-2Z"/><circle class="cls-3" cx="14" cy="17" r="3"/><path class="cls-4" d="M25.5,27c-2.565,0-4.5-1.29-4.5-3V16c0-1.71,1.935-3,4.5-3S30,14.29,30,16v8C30,25.71,28.065,27,25.5,27Z"/><ellipse class="cls-3" cx="25.5" cy="16" rx="4.5" ry="3"/><path class="cls-5" d="M21,21c0,1.657,2.015,3,4.5,3S30,22.657,30,21V19c0,1.657-2.015,3-4.5,3S21,20.657,21,19Z"/></g></svg>