<?xml version="1.0" encoding="iso-8859-1"?>
<!-- Uploaded to: SVG Repo, www.svgrepo.com, Generator: SVG Repo Mixer Tools -->
<!DOCTYPE svg PUBLIC "-//W3C//DTD SVG 1.1//EN" "http://www.w3.org/Graphics/SVG/1.1/DTD/svg11.dtd">
<svg fill="#000000" height="800px" width="800px" version="1.1" id="Capa_1" xmlns="http://www.w3.org/2000/svg" xmlns:xlink="http://www.w3.org/1999/xlink" 
	 viewBox="0 0 61.655 61.655" xml:space="preserve">
<path d="M59.329,27.469c-2.979-7.002-11.265-13.623-17.136-13.623l-22.817,0c-5.785,0-14.071,6.621-17.05,13.623
	c-3.851,9.053-2.818,17.868,2.353,20.068c0.422,0.179,0.886,0.271,1.379,0.271c4.892,0,12.491-9.536,14.288-11.885H41.31
	c1.797,2.349,9.396,11.884,14.287,11.885c0,0,0,0,0,0c0.493,0,0.957-0.091,1.379-0.271C62.147,45.337,63.18,36.522,59.329,27.469z
	 M38.115,15.846c-0.393,2.2-2.31,3.879-4.621,3.879h-5.343c-2.311,0-4.228-1.679-4.621-3.878L38.115,15.846z M56.193,45.697
	c-0.175,0.075-0.37,0.111-0.596,0.111c-3.21,0-9.671-7.044-12.989-11.483c-0.189-0.252-0.486-0.401-0.801-0.401h-21.96
	c-0.315,0-0.612,0.149-0.801,0.401c-3.318,4.44-9.779,11.483-12.989,11.483c-0.225,0-0.42-0.037-0.596-0.111
	c-4-1.703-4.594-9.691-1.295-17.445c2.664-6.261,10.197-12.406,15.295-12.406l3.052,0c0.402,2.754,2.773,4.878,5.638,4.878h5.343
	c2.865,0,5.236-2.124,5.638-4.879l3.147,0c5.012,0,12.546,6.145,15.209,12.406C60.787,36.006,60.194,43.995,56.193,45.697z
	 M18.387,20.745c-2.477,0-4.492,2.015-4.492,4.492c0,2.477,2.015,4.492,4.492,4.492c2.477,0,4.492-2.015,4.492-4.492
	C22.879,22.76,20.863,20.745,18.387,20.745z M18.387,28.729c-1.926,0-3.492-1.566-3.492-3.492c0-1.925,1.566-3.492,3.492-3.492
	c1.925,0,3.492,1.566,3.492,3.492C21.879,27.163,20.312,28.729,18.387,28.729z M47.88,25.237c0,0.552-0.448,1-1,1h-1.081
	c-0.552,0-1-0.448-1-1s0.448-1,1-1h1.081C47.432,24.237,47.88,24.685,47.88,25.237z M39.698,25.237c0,0.552-0.448,1-1,1h-1.081
	c-0.552,0-1-0.448-1-1s0.448-1,1-1h1.081C39.251,24.237,39.698,24.685,39.698,25.237z M43.249,28.788v1.081c0,0.552-0.448,1-1,1
	s-1-0.448-1-1v-1.081c0-0.552,0.448-1,1-1S43.249,28.235,43.249,28.788z M43.249,20.606v1.081c0,0.552-0.448,1-1,1s-1-0.448-1-1
	v-1.081c0-0.552,0.448-1,1-1S43.249,20.054,43.249,20.606z"/>
</svg>